<svg xmlns="http://www.w3.org/2000/svg" viewBox="0 0 135.9 109.27"><defs><style>.cls-1{fill:#fff;}</style></defs><g id="Layer_2" data-name="Layer 2"><g id="Layer_1-2" data-name="Layer 1"><path class="cls-1" d="M135.41,49.08l-9.59-9a28.15,28.15,0,0,0,.54-5.49C126.36,15.53,106.92,0,83,0,69.7,0,57,5,48.82,13.31q-1.26-.06-2.55-.06C20.76,13.25,0,29.81,0,50.17c0,11.92,7.16,23,19.24,30L11.46,95a1.49,1.49,0,0,0,.62,2,1.46,1.46,0,0,0,.7.18,1.39,1.39,0,0,0,.57-.12l25.7-10.45a59.9,59.9,0,0,0,7.21.45c1.71,0,3.4-.08,5.07-.23,6.71,9.18,19.06,14.86,32.39,14.86a46.3,46.3,0,0,0,10.74-1.26L112,109.11a1.49,1.49,0,0,0,2-.68,1.52,1.52,0,0,0,.1-1.07l-4-14.26c7.13-5.6,11.21-13.34,11.21-21.36a25.53,25.53,0,0,0-5-14.93,36.49,36.49,0,0,0,3.81-4.24l14.39-.9a1.49,1.49,0,0,0,1.41-1.58,1.52,1.52,0,0,0-.47-1ZM39.05,83.64a1.51,1.51,0,0,0-.76.09L16,92.8l6.57-12.54a1.49,1.49,0,0,0-.63-2C10.08,71.88,3,61.4,3,50.17,3,31.46,22.41,16.24,46.28,16.24c.73,0,1.46,0,2.19,0a1.49,1.49,0,0,0,1.46.08C72.1,17.81,89.58,32.42,89.58,50.17c0,18.72-19.42,33.94-43.28,33.94A56.58,56.58,0,0,1,39.05,83.64Zm68.41,7.69a1.49,1.49,0,0,0-.55,1.61l3.39,12-15-7.39a1.44,1.44,0,0,0-1-.11,43.59,43.59,0,0,1-10.55,1.29c-11.71,0-22.58-4.66-28.92-12.27C76.26,83.25,92.55,68.2,92.55,50.17a29.77,29.77,0,0,0-.36-4.62c15.21,3,26.06,13.77,26.06,26.18C118.26,79.22,114.42,86.18,107.46,91.33ZM119.2,49.62a1.5,1.5,0,0,0-1.11.62,32.26,32.26,0,0,1-3.68,4.23c-5.32-6-13.37-10.47-22.9-12.08-4-15-19.47-26.58-38.67-28.77C60.46,6.92,71.47,3,83,3c22.27,0,40.36,14.19,40.36,31.62a25.56,25.56,0,0,1-.64,5.65,1.5,1.5,0,0,0,.43,1.43l7.68,7.21Z"/><path class="cls-1" d="M69.47,36.81H23.1a1.5,1.5,0,0,0,0,3H69.47a1.5,1.5,0,0,0,0-3Z"/><path class="cls-1" d="M69.47,48.68H23.1a1.5,1.5,0,0,0,0,3H69.47a1.5,1.5,0,0,0,0-3Z"/><path class="cls-1" d="M60.16,60.55H32.41a1.5,1.5,0,1,0-.14,3H60.16A1.5,1.5,0,0,0,61.58,62a1.48,1.48,0,0,0-1.42-1.42Z"/></g></g></svg>