<svg xmlns="http://www.w3.org/2000/svg" viewBox="0 0 101.56 85.7"><defs><style>.cls-1{fill:none;stroke-miterlimit:10;stroke-width:6px;}.cls-1,.cls-2{stroke:#0088ce;}.cls-2{fill:#66b8e2;stroke-miterlimit:10;stroke-width:6px;}</style></defs><g id="Layer_2" data-name="Layer 2"><g id="Layer_1-2" data-name="Layer 1"><g id="Layer_5" data-name="Layer 5"><path class="cls-1" d="M14.65,41.5A256,256,0,0,0,32.9,62.6c8.78,8.78,23.46,24.13,28.69,18.9a5.4,5.4,0,0,0,1.52-4,6.56,6.56,0,0,0,7.16-5.9.34.34,0,0,1,0-.1,6.36,6.36,0,0,0,6.58-6.08s4.3-.25,5.91-1.86c2.28-2.28,2.1-5,.76-6.33C78.63,52.3,64,37.86,64,37.86c-7.09,5.74-12.23.25-12.23.25S41.59,51,35.86,43.28,61.39,15.8,61.39,15.8"/><line class="cls-1" x1="63.11" y1="77.45" x2="47.67" y2="62.01"/><line class="cls-1" x1="70.28" y1="71.46" x2="54.25" y2="55.43"/><line class="cls-1" x1="76.86" y1="65.38" x2="60.58" y2="49.1"/><path class="cls-1" d="M81.42,55.09c2.37-2.37,7.23-8.78,7.15-13.93"/><path class="cls-1" d="M25.15,53.94c-2.73,2.73-7.94,5.79-2.29,11.45l15,15c5.32,5.32,10.61,0,12.18-1.55"/><line class="cls-1" x1="24.46" y1="66.99" x2="30.88" y2="60.57"/><line class="cls-1" x1="31.09" y1="73.61" x2="37.5" y2="67.2"/><line class="cls-1" x1="37.21" y1="79.73" x2="43.62" y2="73.31"/><path class="cls-1" d="M40.41,14.86c2.48,1.83,8.11,5,10.19,7.88"/><rect class="cls-2" x="70.31" y="-0.14" width="13.6" height="49.88" rx="2.39" transform="translate(5.05 61.79) rotate(-45)"/><rect class="cls-2" x="-0.49" y="17.65" width="49.88" height="13.6" rx="2.39" transform="translate(-10.13 24.45) rotate(-45)"/></g></g></g></svg>