<svg xmlns="http://www.w3.org/2000/svg" xmlns:xlink="http://www.w3.org/1999/xlink" viewBox="0 0 68 68"><defs><style>.cls-1{fill:url(#linear-gradient);}.cls-2{fill:url(#linear-gradient-2);}.cls-3{fill:url(#linear-gradient-3);}.cls-4{fill:url(#linear-gradient-4);}.cls-5{fill:url(#linear-gradient-5);}.cls-6{fill:url(#linear-gradient-6);}.cls-7{fill:url(#linear-gradient-7);}.cls-8{fill:url(#linear-gradient-8);}</style><linearGradient id="linear-gradient" x1="34" y1="7.93" x2="34" y2="5.67" gradientUnits="userSpaceOnUse"><stop offset="0" stop-color="#4169e1"/><stop offset="1" stop-color="#412fe1"/></linearGradient><linearGradient id="linear-gradient-2" x1="35.42" y1="68" x2="35.42" y2="22.67" xlink:href="#linear-gradient"/><linearGradient id="linear-gradient-3" x1="10.77" y1="20.4" x2="10.77" y2="10.2" xlink:href="#linear-gradient"/><linearGradient id="linear-gradient-4" x1="34" y1="28.33" x2="34" y2="17" xlink:href="#linear-gradient"/><linearGradient id="linear-gradient-5" x1="34" y1="32.87" x2="34" y2="12.47" xlink:href="#linear-gradient"/><linearGradient id="linear-gradient-6" x1="10.2" y1="26.07" x2="10.2" y2="5.67" xlink:href="#linear-gradient"/><linearGradient id="linear-gradient-7" x1="57.8" y1="20.4" x2="57.8" y2="0" xlink:href="#linear-gradient"/><linearGradient id="linear-gradient-8" x1="34" y1="48.73" x2="34" y2="46.47" xlink:href="#linear-gradient"/></defs><g id="Layer_2" data-name="Layer 2"><g id="Layer_1-2" data-name="Layer 1"><rect class="cls-1" x="22.67" y="5.67" width="22.67" height="2.27"/><path class="cls-2" d="M56.1,42.5a4,4,0,0,0-4-4H49.87V22.67H47.6V38.53H44.77A4,4,0,0,0,42,45.33a3.92,3.92,0,0,0-.6,4.91,4,4,0,0,0-2.3,3.59,3.87,3.87,0,0,0,.4,1.7H30.6a10.19,10.19,0,0,0-4.39-8.37A6.81,6.81,0,0,0,30.6,40.8a1.13,1.13,0,0,0-1.13-1.13H20.4V28.33H18.13V39.67a3.4,3.4,0,0,0-3.4,3.4V68H17V43.07a1.14,1.14,0,0,1,1.13-1.14H28.19a4.53,4.53,0,0,1-4.39,3.4H20.4a1.14,1.14,0,0,0,0,2.27,7.94,7.94,0,0,1,7.93,7.93v1.14a1.14,1.14,0,0,0,1.14,1.13H36.1a3.9,3.9,0,0,0-.4,1.7,4,4,0,0,0,4,4V68h2.26V63.47H47a4,4,0,0,0,4-4,3.86,3.86,0,0,0-.41-1.72,3.93,3.93,0,0,0,3.21-6,4,4,0,0,0,1.1-6.43A3.93,3.93,0,0,0,56.1,42.5ZM47,61.2H39.67a1.7,1.7,0,0,1,0-3.4H47a1.7,1.7,0,0,1,0,3.4Zm3.4-5.67H43.07a1.7,1.7,0,0,1,0-3.4h7.36a1.7,1.7,0,1,1,0,3.4Zm3.4-7.36a1.7,1.7,0,0,1-1.7,1.7H44.77a1.7,1.7,0,0,1,0-3.4h7.36A1.7,1.7,0,0,1,53.83,48.17Zm-9.06-4a1.7,1.7,0,0,1,0-3.4h7.36a1.7,1.7,0,0,1,0,3.4Z"/><path class="cls-3" d="M15.37,12.71a3.09,3.09,0,0,0-6.13.57,6.62,6.62,0,0,1-2.54-1L6.3,12a1.14,1.14,0,0,0-1.77.94v.93a6.55,6.55,0,0,0,1.18,3.76l-.85.86a1.12,1.12,0,0,0-.24,1.23,1.15,1.15,0,0,0,1,.7h5.49a4.28,4.28,0,0,0,4.24-3.81l1.27-1.29a1.14,1.14,0,0,0,.33-.87,1.17,1.17,0,0,0-.45-.83ZM13.49,15.3a1.13,1.13,0,0,0-.33.79,2,2,0,0,1-2,2H8.28A1.15,1.15,0,0,0,8,16.88,4.3,4.3,0,0,1,6.94,15a8.94,8.94,0,0,0,3.43.69,1.14,1.14,0,0,0,1.14-1.13V13.32a.83.83,0,1,1,1.65,0,1.14,1.14,0,0,0,.45.9l.54.41Z"/><path class="cls-4" d="M32.87,18.13v3.4H30.6V23.8h2.27v4.53h2.26V23.8H37.4V21.53H35.13V19.27H37.4V17H34A1.13,1.13,0,0,0,32.87,18.13Z"/><path class="cls-5" d="M44.2,29.47V15.87a3.4,3.4,0,0,0-3.4-3.4H27.2a3.4,3.4,0,0,0-3.4,3.4v13.6a3.41,3.41,0,0,0,3.4,3.4H40.8A3.41,3.41,0,0,0,44.2,29.47Zm-18.13,0V15.87a1.13,1.13,0,0,1,1.13-1.14H40.8a1.13,1.13,0,0,1,1.13,1.14v13.6A1.13,1.13,0,0,1,40.8,30.6H27.2A1.13,1.13,0,0,1,26.07,29.47Z"/><path class="cls-6" d="M20.4,22.67V9.07A3.4,3.4,0,0,0,17,5.67H3.4A3.4,3.4,0,0,0,0,9.07v13.6a3.41,3.41,0,0,0,3.4,3.4H17A3.41,3.41,0,0,0,20.4,22.67Zm-18.13,0V9.07A1.13,1.13,0,0,1,3.4,7.93H17a1.13,1.13,0,0,1,1.13,1.14v13.6A1.13,1.13,0,0,1,17,23.8H3.4A1.13,1.13,0,0,1,2.27,22.67Z"/><path class="cls-7" d="M64.6,0H51a3.41,3.41,0,0,0-3.4,3.4V17A3.41,3.41,0,0,0,51,20.4H64.6A3.41,3.41,0,0,0,68,17V3.4A3.41,3.41,0,0,0,64.6,0ZM51,2.27H64.6A1.13,1.13,0,0,1,65.73,3.4V9.07H63.35a5.66,5.66,0,0,0-11.1,0H49.87V3.4A1.13,1.13,0,0,1,51,2.27ZM61.2,10.2a3.4,3.4,0,1,1-3.4-3.4A3.41,3.41,0,0,1,61.2,10.2Zm3.4,7.93H51A1.13,1.13,0,0,1,49.87,17V11.33h2.38a5.66,5.66,0,0,0,11.1,0h2.38V17A1.13,1.13,0,0,1,64.6,18.13Z"/><rect class="cls-8" x="32.87" y="46.47" width="2.27" height="2.27"/></g></g></svg>