<svg xmlns="http://www.w3.org/2000/svg" xmlns:xlink="http://www.w3.org/1999/xlink" viewBox="0 0 61.2 68"><defs><style>.cls-1{fill:url(#linear-gradient);}</style><linearGradient id="linear-gradient" x1="30.6" y1="68" x2="30.6" gradientUnits="userSpaceOnUse"><stop offset="0" stop-color="#4169e1"/><stop offset="1" stop-color="#412fe1"/></linearGradient></defs><g id="Layer_2" data-name="Layer 2"><g id="Layer_1-2" data-name="Layer 1"><path class="cls-1" d="M34,19.27H27.2V1.13h0A1.12,1.12,0,0,0,26.09,0H5.67a1.13,1.13,0,0,0-1,.63L.12,9.69h0A1.14,1.14,0,0,0,0,10.2V30.6a1.13,1.13,0,0,0,1.13,1.13H10.2v4.54H5.67a1.14,1.14,0,0,0-1,.62L.12,46h0a1.14,1.14,0,0,0-.13.51v20.4A1.14,1.14,0,0,0,1.13,68h20.4a1.16,1.16,0,0,0,1-.67h0v0h0L26.8,57.8H34v9.07A1.14,1.14,0,0,0,35.13,68h20.4a1.16,1.16,0,0,0,1-.67h0v0h0L61.1,57.13a1.23,1.23,0,0,0,.1-.46V37.4h0a1.11,1.11,0,0,0-1.11-1.13H46.47V31.73h9.06a1.14,1.14,0,0,0,1-.67h0v0h0L61.1,20.86a1.19,1.19,0,0,0,.1-.46V1.13h0A1.12,1.12,0,0,0,60.09,0H39.67a1.13,1.13,0,0,0-1,.63L34.11,9.69h0a1.13,1.13,0,0,0-.12.51ZM22.67,21.53h1.65l-1.65,3.73Zm0-2.26v-8.8l2.26-4.54V19.27Zm-16.3-17H24.23l-3.4,6.8H3Zm-4.1,9.06H20.4v7.94H10.2v2.26H20.4v7.94H2.27Zm4.1,27.2H10.2v6.8H3Zm18.56,17H22.67v-8.8l2.26-4.53Zm-4.1-10.2H12.47v-6.8H24.23Zm-.43,20.4H2.27V47.6H10.2V57.8h2.27V47.6H20.4Zm2.27-4.2V57.8h1.65Zm31.73,4.2H36.27V57.8h10.2V55.53H36.27V47.6H54.4ZM37,45.33l3.4-6.8H44.2v6.8Zm19.7,16.2V46.73l2.26-4.53V56.43Zm1.56-23-3.4,6.8H46.47v-6.8Zm-14-2.26H39.67a1.12,1.12,0,0,0-1,.62L34.11,46h0a1.13,1.13,0,0,0-.12.51v9.06H27.2V37.4h0a1.11,1.11,0,0,0-1.11-1.13H12.47V31.73h9.06a1.14,1.14,0,0,0,1-.67h0v0h0l4.23-9.51H34V30.6a1.13,1.13,0,0,0,1.13,1.13H44.2Zm10.2-6.8H46.47V19.27H44.2v10.2H36.27V11.33H54.4Zm2.27-4.21V10.47l2.26-4.54V20.16Zm-16.3-23H58.23l-3.4,6.8H37Z"/></g></g></svg>