<svg xmlns="http://www.w3.org/2000/svg" xmlns:xlink="http://www.w3.org/1999/xlink" viewBox="0 0 38 68"><defs><style>.cls-1{fill:url(#linear-gradient);}.cls-2{fill:url(#linear-gradient-2);}.cls-3{fill:url(#linear-gradient-3);}.cls-4{fill:url(#linear-gradient-4);}.cls-5{fill:url(#linear-gradient-5);}.cls-6{fill:url(#linear-gradient-6);}.cls-7{fill:url(#linear-gradient-7);}.cls-8{fill:url(#linear-gradient-8);}.cls-9{fill:url(#linear-gradient-9);}.cls-10{fill:url(#linear-gradient-10);}.cls-11{fill:url(#linear-gradient-11);}.cls-12{fill:url(#linear-gradient-12);}.cls-13{fill:url(#linear-gradient-13);}.cls-14{fill:url(#linear-gradient-14);}.cls-15{fill:url(#linear-gradient-15);}.cls-16{fill:url(#linear-gradient-16);}.cls-17{fill:url(#linear-gradient-17);}.cls-18{fill:url(#linear-gradient-18);}</style><linearGradient id="linear-gradient" x1="14.72" y1="68" x2="14.72" y2="11.71" gradientUnits="userSpaceOnUse"><stop offset="0" stop-color="#4169e1"/><stop offset="1" stop-color="#412fe1"/></linearGradient><linearGradient id="linear-gradient-2" x1="1.18" y1="18.02" x2="1.18" y2="13.94" xlink:href="#linear-gradient"/><linearGradient id="linear-gradient-3" x1="34.81" y1="12.3" x2="34.81" y2="8.45" xlink:href="#linear-gradient"/><linearGradient id="linear-gradient-4" x1="7.43" y1="6.87" x2="7.43" y2="3.52" xlink:href="#linear-gradient"/><linearGradient id="linear-gradient-5" x1="3.34" y1="11.95" x2="3.34" y2="8.12" xlink:href="#linear-gradient"/><linearGradient id="linear-gradient-6" x1="36.84" y1="18.41" x2="36.84" y2="14.32" xlink:href="#linear-gradient"/><linearGradient id="linear-gradient-7" x1="25.39" y1="3.57" x2="25.39" y2="0.83" xlink:href="#linear-gradient"/><linearGradient id="linear-gradient-8" x1="19.17" y1="2.04" x2="19.17" y2="0" xlink:href="#linear-gradient"/><linearGradient id="linear-gradient-9" x1="12.93" y1="3.42" x2="12.93" y2="0.71" xlink:href="#linear-gradient"/><linearGradient id="linear-gradient-10" x1="30.83" y1="7.15" x2="30.83" y2="3.76" xlink:href="#linear-gradient"/><linearGradient id="linear-gradient-11" x1="1.2" y1="24.35" x2="1.2" y2="20.27" xlink:href="#linear-gradient"/><linearGradient id="linear-gradient-12" x1="30.14" y1="34.96" x2="30.14" y2="31.65" xlink:href="#linear-gradient"/><linearGradient id="linear-gradient-13" x1="34.36" y1="30.48" x2="34.36" y2="26.68" xlink:href="#linear-gradient"/><linearGradient id="linear-gradient-14" x1="7.51" y1="34.73" x2="7.51" y2="31.39" xlink:href="#linear-gradient"/><linearGradient id="linear-gradient-15" x1="25.47" y1="37.03" x2="25.47" y2="34.96" xlink:href="#linear-gradient"/><linearGradient id="linear-gradient-16" x1="3.4" y1="30.16" x2="3.4" y2="26.33" xlink:href="#linear-gradient"/><linearGradient id="linear-gradient-17" x1="36.69" y1="24.73" x2="36.69" y2="20.66" xlink:href="#linear-gradient"/><linearGradient id="linear-gradient-18" x1="18.98" y1="31.16" x2="18.98" y2="5.32" xlink:href="#linear-gradient"/></defs><g id="Layer_2" data-name="Layer 2"><g id="Layer_1-2" data-name="Layer 1"><path class="cls-1" d="M23.75,38.37a3.19,3.19,0,0,0-1.65.17V25.79a7.39,7.39,0,1,0-6.25,0v8.49a3.1,3.1,0,0,0-4.15,2.18,3.09,3.09,0,0,0-1.76-.22,3.16,3.16,0,0,0-2.49,2.35,3.14,3.14,0,0,0-1.77-.22,3.22,3.22,0,0,0-2.6,3.2V48.4a14,14,0,0,0,.41,3.34L4.85,57.2a11.56,11.56,0,0,1,.36,2.86V67a1,1,0,1,0,2,0V60.06a13.88,13.88,0,0,0-.41-3.34L5.42,51.25a11.89,11.89,0,0,1-.35-2.85V41.57A1.21,1.21,0,0,1,6,40.34a1.13,1.13,0,0,1,1.34,1.11,1,1,0,1,0,2,0v-2a1.21,1.21,0,0,1,.93-1.23,1.1,1.1,0,0,1,.93.25,1.12,1.12,0,0,1,.4.86,1,1,0,0,0,2,0v-2a1.21,1.21,0,0,1,.93-1.23,1.13,1.13,0,0,1,1.33,1.11,1,1,0,1,0,2,0v-18A1.22,1.22,0,0,1,18.78,18a1.13,1.13,0,0,1,1.33,1.11V41.45a1,1,0,1,0,2,0,1.13,1.13,0,0,1,.4-.86,1.12,1.12,0,0,1,.93-.25,1.21,1.21,0,0,1,.94,1.23v7a11.45,11.45,0,0,1-.28,2.55L22.57,58a13.61,13.61,0,0,0-.33,3v6a1,1,0,1,0,2,0V61a12.22,12.22,0,0,1,.28-2.55L26,51.55a13.54,13.54,0,0,0,.33-3v-7A3.21,3.21,0,0,0,23.75,38.37ZM18.46,16a3.21,3.21,0,0,0-2.61,3.2v4.28a5.4,5.4,0,1,1,6.25,0V19.1A3.12,3.12,0,0,0,18.46,16Z"/><path class="cls-2" d="M.88,18H1a1,1,0,0,0,1-.88,16.38,16.38,0,0,1,.34-2A1,1,0,0,0,1.59,14a1,1,0,0,0-1.2.75A18.06,18.06,0,0,0,0,16.91,1,1,0,0,0,.88,18Z"/><path class="cls-3" d="M34.42,11.73a1,1,0,0,0,.9.57,1,1,0,0,0,.43-.1,1,1,0,0,0,.47-1.33,20.72,20.72,0,0,0-1.08-2A1,1,0,0,0,33.45,10,16.57,16.57,0,0,1,34.42,11.73Z"/><path class="cls-4" d="M6.62,6.87A1,1,0,0,0,7.3,6.6,17.42,17.42,0,0,1,8.84,5.32a1,1,0,1,0-1.18-1.6A18.11,18.11,0,0,0,5.94,5.15a1,1,0,0,0-.05,1.41A1,1,0,0,0,6.62,6.87Z"/><path class="cls-5" d="M2.36,11.84a1.06,1.06,0,0,0,.45.11,1,1,0,0,0,.89-.55,16.75,16.75,0,0,1,1-1.74,1,1,0,1,0-1.66-1.1A20.86,20.86,0,0,0,1.92,10.5,1,1,0,0,0,2.36,11.84Z"/><path class="cls-6" d="M35.71,15.52a16.46,16.46,0,0,1,.3,2,1,1,0,0,0,1,.9h.09a1,1,0,0,0,.9-1.09,20.66,20.66,0,0,0-.33-2.21,1,1,0,1,0-1.95.41Z"/><path class="cls-7" d="M24.1,2.77A15.83,15.83,0,0,1,26,3.49a1,1,0,0,0,.41.08,1,1,0,0,0,.41-1.9,19.72,19.72,0,0,0-2.1-.8,1,1,0,0,0-.6,1.9Z"/><path class="cls-8" d="M18.16,2a19.28,19.28,0,0,1,2,0h.07a1,1,0,0,0,1-.93A1,1,0,0,0,20.3.05a18.44,18.44,0,0,0-2.23,0,1,1,0,1,0,.09,2Z"/><path class="cls-9" d="M11.93,3.42a1.09,1.09,0,0,0,.39-.08,15.71,15.71,0,0,1,1.89-.67A1,1,0,1,0,13.65.75a20.38,20.38,0,0,0-2.11.75,1,1,0,0,0,.39,1.92Z"/><path class="cls-10" d="M29.42,5.55a18.63,18.63,0,0,1,1.51,1.31,1,1,0,1,0,1.39-1.42A18.16,18.16,0,0,0,30.63,4a1,1,0,0,0-1.39.18A1,1,0,0,0,29.42,5.55Z"/><path class="cls-11" d="M2.35,23.12a18.9,18.9,0,0,1-.35-2,1,1,0,0,0-1.11-.87A1,1,0,0,0,0,21.38a18.27,18.27,0,0,0,.4,2.21,1,1,0,0,0,1.93-.47Z"/><path class="cls-12" d="M30.31,31.9a18.58,18.58,0,0,1-1.57,1.24,1,1,0,0,0-.25,1.39,1,1,0,0,0,.82.43,1,1,0,0,0,.57-.18,19.53,19.53,0,0,0,1.76-1.39,1,1,0,0,0,.08-1.4A1,1,0,0,0,30.31,31.9Z"/><path class="cls-13" d="M35.39,26.8a1,1,0,0,0-1.35.41A16.62,16.62,0,0,1,33,28.91a1,1,0,0,0,.25,1.39,1,1,0,0,0,1.38-.24,17.83,17.83,0,0,0,1.18-1.91A1,1,0,0,0,35.39,26.8Z"/><path class="cls-14" d="M8.33,34.73a1,1,0,0,0,.8-.41,1,1,0,0,0-.21-1.39,17.26,17.26,0,0,1-1.55-1.28A1,1,0,0,0,6,31.71a1,1,0,0,0,0,1.4,19.59,19.59,0,0,0,1.73,1.43A1,1,0,0,0,8.33,34.73Z"/><path class="cls-15" d="M25.2,35,25,35.1A1,1,0,0,0,25.37,37a1.12,1.12,0,0,0,.35-.06l.21-.08a1,1,0,0,0,.56-1.3A1,1,0,0,0,25.2,35Z"/><path class="cls-16" d="M3.93,30.16A1,1,0,0,0,4.49,30a1,1,0,0,0,.27-1.38c-.37-.56-.71-1.14-1-1.73a1,1,0,1,0-1.77.9,16.87,16.87,0,0,0,1.14,1.93A1,1,0,0,0,3.93,30.16Z"/><path class="cls-17" d="M37,20.67a1,1,0,0,0-1.13.84,16,16,0,0,1-.4,2,1,1,0,0,0,.71,1.22,1.15,1.15,0,0,0,.26,0,1,1,0,0,0,1-.74,18.22,18.22,0,0,0,.44-2.2A1,1,0,0,0,37,20.67Z"/><path class="cls-18" d="M19,5.32A13.78,13.78,0,0,0,12.1,31a1,1,0,0,0,.49.13,1,1,0,0,0,.5-1.86,11.78,11.78,0,1,1,11.78,0,1,1,0,1,0,1,1.72A13.77,13.77,0,0,0,19,5.32Z"/></g></g></svg>