<svg xmlns="http://www.w3.org/2000/svg" xmlns:xlink="http://www.w3.org/1999/xlink" viewBox="0 0 68 68"><defs><style>.cls-1{fill:url(#linear-gradient);}</style><linearGradient id="linear-gradient" y1="34" x2="68" y2="34" gradientUnits="userSpaceOnUse"><stop offset="0" stop-color="#4169e1"/><stop offset="1" stop-color="#412fe1"/></linearGradient></defs><g id="Layer_2" data-name="Layer 2"><g id="Layer_1-2" data-name="Layer 1"><path class="cls-1" d="M45.29,53.88h3.88a1,1,0,0,0,0-2H45.29a1,1,0,1,0,0,2ZM40.8,50.5h2.69a1,1,0,1,0,0-2H40.8a1,1,0,1,0,0,2Zm6.11,0h9a1,1,0,1,0,0-2h-9a1,1,0,1,0,0,2ZM14.72,3.82a2.93,2.93,0,1,0,2.92,2.93A2.94,2.94,0,0,0,14.72,3.82Zm0,3.86a.93.93,0,1,1,.93-.93A.93.93,0,0,1,14.72,7.68ZM40.8,53.88h1.4a1,1,0,1,0,0-2H40.8a1,1,0,1,0,0,2Zm20.49-33.3a3.15,3.15,0,0,0-3.15-3.15H9.71a3.15,3.15,0,0,0-3.15,3.15v5.85a1,1,0,0,0,2,0V20.58a1.16,1.16,0,0,1,1.16-1.16H58.14a1.16,1.16,0,0,1,1.16,1.16V38.81A1.16,1.16,0,0,1,58.14,40H55L44.79,28.46a1.7,1.7,0,0,0-1.17-.55,1.66,1.66,0,0,0-1.21.48L37,33.8l-7.29-8.21A1.59,1.59,0,0,0,28.54,25a1.65,1.65,0,0,0-1.21.47L12.87,40H9.71a1.16,1.16,0,0,1-1.16-1.16V32.72a1,1,0,1,0-2,0v6.09A3.15,3.15,0,0,0,9.71,42H58.14a3.15,3.15,0,0,0,3.15-3.15ZM15.69,40,28.47,27.19l9.7,10.93a1,1,0,0,0,1.4.08,1,1,0,0,0,.09-1.41l-1.34-1.5,5.23-5.22L52.34,40ZM7.27,3.82A2.93,2.93,0,1,0,10.2,6.75,2.93,2.93,0,0,0,7.27,3.82Zm0,3.86a.93.93,0,1,1,.94-.93A.93.93,0,0,1,7.27,7.68ZM22.16,3.82a2.93,2.93,0,1,0,2.92,2.93A2.93,2.93,0,0,0,22.16,3.82Zm0,3.86a.93.93,0,1,1,.93-.93A.93.93,0,0,1,22.16,7.68ZM67,43.37a1,1,0,0,0,1-1v-38A4.39,4.39,0,0,0,63.61,0H4.38A4.39,4.39,0,0,0,0,4.38V63.61A4.39,4.39,0,0,0,4.38,68H63.61A4.4,4.4,0,0,0,68,63.61V48.52a1,1,0,0,0-2,0V63.61a2.41,2.41,0,0,1-2.4,2.4H4.38A2.4,2.4,0,0,1,2,63.61V13.55H66V42.37A1,1,0,0,0,67,43.37ZM2,11.56V4.38A2.4,2.4,0,0,1,4.38,2H63.61A2.4,2.4,0,0,1,66,4.38v7.18Zm24.8,43.52h-2.7a1,1,0,0,0,0,2h2.7a1,1,0,0,0,0-2Zm-6.11,0h-9a1,1,0,0,0,0,2h9a1,1,0,0,0,0-2Zm6.37-3.19H23.33a1,1,0,0,0,0,2h3.72a1,1,0,1,0,0-2Zm-15.41,2H13a1,1,0,1,0,0-2h-1.4a1,1,0,0,0,0,2ZM9.71,44.75A3.16,3.16,0,0,0,6.56,47.9v9.78a3.16,3.16,0,0,0,3.15,3.15H29a3.16,3.16,0,0,0,3.15-3.15V47.9A3.16,3.16,0,0,0,29,44.75ZM30.14,47.9v9.78A1.15,1.15,0,0,1,29,58.83H9.71a1.15,1.15,0,0,1-1.16-1.15V47.9a1.16,1.16,0,0,1,1.16-1.15H29A1.16,1.16,0,0,1,30.14,47.9Zm19.69,7.18h-9a1,1,0,1,0,0,2h9a1,1,0,1,0,0-2Zm4.53-30.27a3.79,3.79,0,1,0-3.79,3.79A3.8,3.8,0,0,0,54.36,24.81Zm-5.59,0a1.8,1.8,0,1,1,1.8,1.8A1.8,1.8,0,0,1,48.77,24.81Zm7.44,27.08H52.49a1,1,0,1,0,0,2h3.72a1,1,0,0,0,0-2ZM38.87,44.75a3.16,3.16,0,0,0-3.15,3.15v9.78a3.16,3.16,0,0,0,3.15,3.15H58.14a3.16,3.16,0,0,0,3.15-3.15V47.9a3.16,3.16,0,0,0-3.15-3.15ZM59.3,47.9v9.78a1.15,1.15,0,0,1-1.16,1.15H38.87a1.15,1.15,0,0,1-1.16-1.15V47.9a1.16,1.16,0,0,1,1.16-1.15H58.14A1.16,1.16,0,0,1,59.3,47.9ZM11.64,50.5h2.7a1,1,0,0,0,0-2h-2.7a1,1,0,0,0,0,2Zm44.3,4.58H53.25a1,1,0,1,0,0,2h2.69a1,1,0,1,0,0-2ZM17.75,50.5h9a1,1,0,0,0,0-2h-9a1,1,0,0,0,0,2Zm-1.62,3.38H20a1,1,0,1,0,0-2H16.13a1,1,0,0,0,0,2Z"/></g></g></svg>