<svg xmlns="http://www.w3.org/2000/svg" xmlns:xlink="http://www.w3.org/1999/xlink" viewBox="0 0 68 68"><defs><style>.cls-1{fill:url(#linear-gradient);}.cls-2{fill:url(#linear-gradient-2);}.cls-3{fill:url(#linear-gradient-3);}.cls-4{fill:url(#linear-gradient-4);}.cls-5{fill:url(#linear-gradient-5);}.cls-6{fill:url(#linear-gradient-6);}.cls-7{fill:url(#linear-gradient-7);}.cls-8{fill:url(#linear-gradient-8);}.cls-9{fill:url(#linear-gradient-9);}.cls-10{fill:url(#linear-gradient-10);}.cls-11{fill:url(#linear-gradient-11);}.cls-12{fill:url(#linear-gradient-12);}</style><linearGradient id="linear-gradient" x1="34" y1="58.93" x2="34" y2="56.67" gradientUnits="userSpaceOnUse"><stop offset="0" stop-color="#4169e1"/><stop offset="1" stop-color="#412fe1"/></linearGradient><linearGradient id="linear-gradient-2" x1="34" y1="68" x2="34" y2="0" xlink:href="#linear-gradient"/><linearGradient id="linear-gradient-3" x1="34" y1="38.53" x2="34" y2="36.27" xlink:href="#linear-gradient"/><linearGradient id="linear-gradient-4" x1="32.87" y1="43.07" x2="32.87" y2="40.8" xlink:href="#linear-gradient"/><linearGradient id="linear-gradient-5" x1="37.4" y1="34" x2="37.4" y2="31.73" xlink:href="#linear-gradient"/><linearGradient id="linear-gradient-6" x1="19.27" y1="6.8" x2="19.27" y2="4.53" xlink:href="#linear-gradient"/><linearGradient id="linear-gradient-7" x1="23.8" y1="6.8" x2="23.8" y2="4.53" xlink:href="#linear-gradient"/><linearGradient id="linear-gradient-8" x1="28.33" y1="6.8" x2="28.33" y2="4.53" xlink:href="#linear-gradient"/><linearGradient id="linear-gradient-9" x1="22.67" y1="34" x2="22.67" y2="31.73" xlink:href="#linear-gradient"/><linearGradient id="linear-gradient-10" x1="26.97" y1="25.84" x2="26.97" y2="17.23" xlink:href="#linear-gradient"/><linearGradient id="linear-gradient-11" x1="41.03" y1="25.84" x2="41.03" y2="17.23" xlink:href="#linear-gradient"/><linearGradient id="linear-gradient-12" x1="34" y1="27.62" x2="34" y2="15.45" gradientTransform="translate(41.36 -18.03) rotate(68.19)" xlink:href="#linear-gradient"/></defs><g id="Layer_2" data-name="Layer 2"><g id="Layer_1-2" data-name="Layer 1"><rect class="cls-1" x="32.87" y="56.67" width="2.27" height="2.27"/><path class="cls-2" d="M66.87,58.93H65.73V18.13A4.53,4.53,0,0,0,61.2,13.6H54.4V4.53A4.53,4.53,0,0,0,49.87,0H18.13A4.53,4.53,0,0,0,13.6,4.53V13.6H6.8a4.53,4.53,0,0,0-4.53,4.53v40.8H1.13A1.14,1.14,0,0,0,0,60.07v3.4A4.53,4.53,0,0,0,4.53,68H63.47A4.53,4.53,0,0,0,68,63.47v-3.4A1.14,1.14,0,0,0,66.87,58.93ZM18.13,48.73H49.87A4.53,4.53,0,0,0,54.4,44.2V20.4h4.53V52.13H9.07V20.4H13.6V44.2A4.53,4.53,0,0,0,18.13,48.73Zm-2.26-37.4H52.13V44.2a2.27,2.27,0,0,1-2.26,2.27H18.13a2.27,2.27,0,0,1-2.26-2.27Zm2.26-9.06H49.87a2.26,2.26,0,0,1,2.26,2.26V9.07H15.87V4.53A2.26,2.26,0,0,1,18.13,2.27ZM4.53,18.13A2.27,2.27,0,0,1,6.8,15.87h6.8v2.26H7.93A1.14,1.14,0,0,0,6.8,19.27v34A1.14,1.14,0,0,0,7.93,54.4H60.07a1.14,1.14,0,0,0,1.13-1.13v-34a1.14,1.14,0,0,0-1.13-1.14H54.4V15.87h6.8a2.27,2.27,0,0,1,2.27,2.26v40.8H44.2a1.14,1.14,0,0,0-.8.33L41.46,61.2H26.54L24.6,59.26a1.14,1.14,0,0,0-.8-.33H4.53Zm61.2,45.34a2.26,2.26,0,0,1-2.26,2.26H4.53a2.26,2.26,0,0,1-2.26-2.26V61.2H23.33l1.94,1.93a1.1,1.1,0,0,0,.8.34H41.93a1.1,1.1,0,0,0,.8-.34l1.94-1.93H65.73Z"/><rect class="cls-3" x="19.27" y="36.27" width="29.47" height="2.27"/><rect class="cls-4" x="19.27" y="40.8" width="27.2" height="2.27"/><rect class="cls-5" x="26.07" y="31.73" width="22.67" height="2.27"/><rect class="cls-6" x="18.13" y="4.53" width="2.27" height="2.27"/><rect class="cls-7" x="22.67" y="4.53" width="2.27" height="2.27"/><rect class="cls-8" x="27.2" y="4.53" width="2.27" height="2.27"/><rect class="cls-9" x="21.53" y="31.73" width="2.27" height="2.27"/><path class="cls-10" d="M28.79,25.84,30.15,24l-3.33-2.5L30.15,19l-1.36-1.81-4.54,3.4A1.12,1.12,0,0,0,24,22.21a1,1,0,0,0,.22.23Z"/><path class="cls-11" d="M39.21,25.84l4.54-3.4A1.13,1.13,0,0,0,44,20.85a1.15,1.15,0,0,0-.22-.22l-4.54-3.4L37.85,19l3.33,2.49L37.85,24Z"/><rect class="cls-12" x="27.9" y="20.4" width="12.21" height="2.27" transform="translate(1.38 45.1) rotate(-68.19)"/></g></g></svg>