<svg xmlns="http://www.w3.org/2000/svg" xmlns:xlink="http://www.w3.org/1999/xlink" viewBox="0 0 68 68"><defs><style>.cls-1{fill:url(#linear-gradient);}.cls-2{fill:url(#linear-gradient-2);}.cls-3{fill:url(#linear-gradient-3);}.cls-4{fill:url(#linear-gradient-4);}.cls-5{fill:url(#linear-gradient-5);}.cls-6{fill:url(#linear-gradient-6);}.cls-7{fill:url(#linear-gradient-7);}</style><linearGradient id="linear-gradient" x1="34" y1="68" x2="34" gradientUnits="userSpaceOnUse"><stop offset="0" stop-color="#4169e1"/><stop offset="1" stop-color="#412fe1"/></linearGradient><linearGradient id="linear-gradient-2" x1="51.57" y1="31.73" x2="51.57" xlink:href="#linear-gradient"/><linearGradient id="linear-gradient-3" x1="16.43" y1="11.33" x2="16.43" y2="9.07" xlink:href="#linear-gradient"/><linearGradient id="linear-gradient-4" x1="16.43" y1="15.87" x2="16.43" y2="13.6" xlink:href="#linear-gradient"/><linearGradient id="linear-gradient-5" x1="52.13" y1="27.2" x2="52.13" y2="4.52" xlink:href="#linear-gradient"/><linearGradient id="linear-gradient-6" x1="52.13" y1="62.33" x2="52.13" y2="41.93" xlink:href="#linear-gradient"/><linearGradient id="linear-gradient-7" x1="14.73" y1="20.4" x2="14.73" y2="18.13" xlink:href="#linear-gradient"/></defs><g id="Layer_2" data-name="Layer 2"><g id="Layer_1-2" data-name="Layer 1"><path class="cls-1" d="M66.87,36.27H36.27a1.13,1.13,0,0,0-1.14,1.13v9.42a4.24,4.24,0,0,0-4.19.33l-6,4V31.73h6.8a1.13,1.13,0,0,0,1.14-1.13V1.13A1.14,1.14,0,0,0,31.73,0H1.13A1.14,1.14,0,0,0,0,1.13V30.6a1.13,1.13,0,0,0,1.13,1.13H17v2.65a3.92,3.92,0,0,0-5.44,2.39,3.92,3.92,0,0,0-5.33,1.49A3.8,3.8,0,0,0,5.9,39a4,4,0,0,0-2.28-.49A4.1,4.1,0,0,0,0,42.7V61.18a0,0,0,0,0,0,0v5.67A1.14,1.14,0,0,0,1.13,68H23.8a1.13,1.13,0,0,0,1.13-1.13V61.76l10.2-7.64V66.87A1.14,1.14,0,0,0,36.27,68h30.6A1.14,1.14,0,0,0,68,66.87V37.4A1.13,1.13,0,0,0,66.87,36.27Zm-64.6-6.8V2.27H30.6v27.2H24.93V27.2a1.14,1.14,0,0,0,1.14-1.13V5.67a1.14,1.14,0,0,0-1.14-1.14h-17A1.14,1.14,0,0,0,6.8,5.67v20.4A1.14,1.14,0,0,0,7.93,27.2H17v2.27ZM23.8,6.8V22.73a3.95,3.95,0,0,0-6.74,2.2h-8V6.8ZM22.67,65.73H2.27v-3.4h20.4ZM34.39,51.84l-11,8.23H2.27V42.7a1.83,1.83,0,0,1,1.54-1.89,1.7,1.7,0,0,1,1.85,1.53.92.92,0,0,1,0,.16v4H7.93v-6a1.85,1.85,0,0,1,1.55-1.89,1.7,1.7,0,0,1,1.85,1.54v5.25H13.6V38.17a1.85,1.85,0,0,1,1.57-1.9A1.77,1.77,0,0,1,17,37.55v5.52h2.27V25.5a1.7,1.7,0,0,1,3.4,0V53.27A1.13,1.13,0,0,0,23.8,54.4a1.19,1.19,0,0,0,.63-.19L32.19,49a1.92,1.92,0,0,1,2.46.2h0a1.78,1.78,0,0,1-.14,2.51l-.12.1ZM65.73,65.73H37.4V38.53H65.73Z"/><path class="cls-2" d="M66.87,0H36.27a1.14,1.14,0,0,0-1.14,1.13V30.6a1.13,1.13,0,0,0,1.14,1.13h30.6A1.13,1.13,0,0,0,68,30.6V1.13A1.14,1.14,0,0,0,66.87,0ZM65.73,29.47H37.4V2.27H65.73Z"/><rect class="cls-3" x="11.33" y="9.07" width="10.2" height="2.27"/><rect class="cls-4" x="11.33" y="13.6" width="10.2" height="2.27"/><path class="cls-5" d="M46.47,27.2H57.8a1.13,1.13,0,0,0,1.13-1.13V18.13a6.81,6.81,0,0,0-3.52-5.95,4.53,4.53,0,1,0-6.56,0,6.83,6.83,0,0,0-3.52,5.95v7.94A1.14,1.14,0,0,0,46.47,27.2ZM52.13,6.8a2.27,2.27,0,1,1-2.26,2.27A2.26,2.26,0,0,1,52.13,6.8ZM47.6,18.13a4.54,4.54,0,0,1,9.07,0v6.8H47.6Z"/><path class="cls-6" d="M52.13,62.33a10.2,10.2,0,1,0-10.2-10.2A10.19,10.19,0,0,0,52.13,62.33Zm0-2.26a7.93,7.93,0,0,1-5.54-2.27H57.68A7.93,7.93,0,0,1,52.13,60.07Zm0-15.87a7.89,7.89,0,0,1,5.55,2.27H46.59A7.88,7.88,0,0,1,52.13,44.2ZM45,48.73H59.29A8.17,8.17,0,0,1,60,51H44.29A7.55,7.55,0,0,1,45,48.73Zm15,4.54a8.11,8.11,0,0,1-.69,2.26H45a7.49,7.49,0,0,1-.69-2.26Z"/><rect class="cls-7" x="11.33" y="18.13" width="6.8" height="2.27"/></g></g></svg>