<svg xmlns="http://www.w3.org/2000/svg" xmlns:xlink="http://www.w3.org/1999/xlink" viewBox="0 0 68 68"><defs><style>.cls-1{fill:url(#linear-gradient);}</style><linearGradient id="linear-gradient" x1="34" y1="68" x2="34" gradientUnits="userSpaceOnUse"><stop offset="0" stop-color="#4169e1"/><stop offset="1" stop-color="#412fe1"/></linearGradient></defs><g id="Layer_2" data-name="Layer 2"><g id="Layer_1-2" data-name="Layer 1"><path class="cls-1" d="M17.55,46.06H37.29V43.87H17.55Zm4.39,4.39h2.19V48.26H21.94Zm-4.39,0h2.19V48.26H17.55ZM28.52,7V21.52L43,14.26Zm2.19,3.55,7.42,3.71L30.71,18Zm-4.39,39.9h2.2V48.26h-2.2Zm-8.77-8.77H37.29v-2.2H17.55Zm-2.2,21.93h2.2V61.42h-2.2Zm-4.38,0h2.19V61.42H11ZM65.81,57V20.84a5.5,5.5,0,0,0-5.49-5.49H54.84V11h-7a14.24,14.24,0,0,0-27.72,0h-7v4.38H7.68a5.5,5.5,0,0,0-5.49,5.49V57H0v5.49A5.49,5.49,0,0,0,5.48,68h57A5.49,5.49,0,0,0,68,62.52V57Zm-11-39.48h5.48a3.29,3.29,0,0,1,3.29,3.29V57H61.42V21.94a2.2,2.2,0,0,0-2.19-2.2H54.84ZM34,2.19A12.07,12.07,0,1,1,21.94,14.26,12.08,12.08,0,0,1,34,2.19ZM4.39,20.84a3.29,3.29,0,0,1,3.29-3.29h5.48v2.19H8.77a2.2,2.2,0,0,0-2.19,2.2V57H4.39ZM65.81,62.52a3.3,3.3,0,0,1-3.29,3.29h-57a3.3,3.3,0,0,1-3.29-3.29V59.23H8.77V21.94h4.39v32.9H54.84V24.13H52.65V52.65H15.35V13.16H19.8c0,.36-.06.73-.06,1.1a14.26,14.26,0,1,0,28.52,0c0-.37,0-.74-.06-1.1h4.45v8.78h6.58V57H42.32l-.32.32a6.35,6.35,0,0,1-4.52,1.88h-7A6.35,6.35,0,0,1,26,57.35L25.68,57H11v2.2H24.79a8.55,8.55,0,0,0,5.73,2.19h7a8.55,8.55,0,0,0,5.73-2.19h22.6Zm-4.39-1.1H52.65v2.19h8.77Zm-21.94-11h11V41.68h-11Zm2.2-6.58h6.58v4.39H41.68ZM6.58,63.61H8.77V61.42H6.58ZM24.13,28.52H17.55v8.77h6.58V34H50.45V31.81H24.13ZM21.94,35.1h-2.2V30.71h2.2Z"/></g></g></svg>