<svg xmlns="http://www.w3.org/2000/svg" viewBox="0 0 70.3 70.29"><defs><style>.cls-1{fill:#fd0;}.cls-2{fill:#40bdff;}.cls-3{fill:#effafe;}.cls-4{fill:#eb5639;}.cls-5{fill:#d84936;}.cls-6{fill:#4169e1;}.cls-7{fill:#2197f7;}.cls-8{fill:#e4ebed;}.cls-9{fill:#efc803;}.cls-10{fill:#263238;}</style></defs><g id="Layer_2" data-name="Layer 2"><g id="Layer_1-2" data-name="Layer 1"><path class="cls-1" d="M4.47,29.1H3.31V27.94a.3.3,0,0,0-.3-.3.29.29,0,0,0-.29.3V29.1H1.55a.3.3,0,0,0,0,.59H2.72v1.16a.29.29,0,0,0,.29.29.3.3,0,0,0,.3-.29V29.69H4.47a.3.3,0,0,0,0-.59Z"/><path class="cls-1" d="M15,4.78H13.86V3.61a.3.3,0,0,0-.59,0V4.78H12.11a.29.29,0,1,0,0,.58h1.16V6.53a.3.3,0,0,0,.59,0V5.36H15a.29.29,0,1,0,0-.58Z"/><path class="cls-2" d="M20.31,63.43H19.14V62.27a.29.29,0,1,0-.58,0v1.16H17.39a.29.29,0,0,0-.29.29.3.3,0,0,0,.29.3h1.17v1.16a.29.29,0,0,0,.58,0V64h1.17a.3.3,0,0,0,.29-.3A.29.29,0,0,0,20.31,63.43Z"/><path class="cls-2" d="M51.88,63.43H50.72V62.27a.3.3,0,1,0-.59,0v1.16H49a.29.29,0,0,0-.3.29.3.3,0,0,0,.3.3h1.16v1.16a.3.3,0,0,0,.59,0V64h1.16a.3.3,0,0,0,.29-.3A.29.29,0,0,0,51.88,63.43Z"/><path class="cls-2" d="M68.36,23.25H67.19V22.08a.29.29,0,0,0-.58,0v1.17H65.44a.29.29,0,0,0,0,.58h1.17V25a.29.29,0,0,0,.58,0V23.83h1.17a.29.29,0,0,0,0-.58Z"/><path class="cls-2" d="M30.69,6.82a1.75,1.75,0,1,1,1.75-1.75A1.75,1.75,0,0,1,30.69,6.82Zm0-2.92a1.17,1.17,0,1,0,1.16,1.17A1.17,1.17,0,0,0,30.69,3.9Z"/><path class="cls-1" d="M35.88,65.47a1.75,1.75,0,1,1,1.75-1.75A1.75,1.75,0,0,1,35.88,65.47Zm0-2.91a1.17,1.17,0,1,0,1.17,1.16A1.17,1.17,0,0,0,35.88,62.56Z"/><path class="cls-1" d="M64.91,14.13a1.75,1.75,0,1,1,1.75-1.75A1.75,1.75,0,0,1,64.91,14.13Zm0-2.92a1.17,1.17,0,1,0,1.16,1.17A1.17,1.17,0,0,0,64.91,11.21Z"/><rect class="cls-2" x="8.61" y="11.74" width="19.85" height="15.69" rx="2.33"/><path class="cls-3" d="M63.16,30.81A12.33,12.33,0,0,0,50.84,18.49H49.56a10.58,10.58,0,0,1-1.78,0H46.51A12.33,12.33,0,0,0,34.19,30.81v3.74h29Z"/><path class="cls-3" d="M47.84,17.32h1.68a8,8,0,1,0-1.68,0Z"/><rect class="cls-4" x="16.32" y="28.6" width="2.96" height="5.95"/><rect class="cls-5" x="18.41" y="28.6" width="0.88" height="5.95"/><rect class="cls-1" x="58.49" y="58.47" width="4.67" height="10.5"/><path class="cls-6" d="M66.66,35.74H5.11a2.34,2.34,0,0,0-2.34,2.34V57.31H69V38.08A2.33,2.33,0,0,0,66.66,35.74Z"/><rect class="cls-1" x="8.31" y="58.47" width="3.5" height="10.5"/><path class="cls-7" d="M26.13,11.74H25a2.33,2.33,0,0,1,2.33,2.34v11A2.33,2.33,0,0,1,25,27.44h1.17a2.33,2.33,0,0,0,2.33-2.34v-11A2.33,2.33,0,0,0,26.13,11.74Z"/><path class="cls-8" d="M48.09,18.51l-.31,0H46.61A9.15,9.15,0,0,0,48.09,18.51Z"/><path class="cls-8" d="M50.84,18.48H49.7A12.34,12.34,0,0,1,62,30.81v3.74h1.17V30.81A12.34,12.34,0,0,0,50.84,18.48Z"/><path class="cls-8" d="M48.67,1.3a5.62,5.62,0,0,0-.58,0,8,8,0,0,1,.26,16h1.17a8,8,0,0,0-.85-16Z"/><rect class="cls-9" x="61.99" y="58.47" width="1.17" height="10.5"/><path class="cls-5" d="M66.66,35.74H65.49a2.34,2.34,0,0,1,2.34,2.34V57.31H69V38.08A2.33,2.33,0,0,0,66.66,35.74Z"/><rect class="cls-9" x="10.65" y="58.47" width="1.17" height="10.5"/><path class="cls-10" d="M66.66,34.43H64.47V30.81a13.65,13.65,0,0,0-11.11-13.4,9.34,9.34,0,1,0-9.37,0,13.66,13.66,0,0,0-11.12,13.4v3.62H20.6V28.75h5.54a3.65,3.65,0,0,0,3.65-3.65v-11a3.65,3.65,0,0,0-3.65-3.65H9.48a3.66,3.66,0,0,0-3.65,3.65v11a3.66,3.66,0,0,0,3.65,3.65H15v5.68H3.65A3.65,3.65,0,0,0,0,38.08V57.89a.73.73,0,0,0,.73.73h5.1V69.56a.73.73,0,0,0,.73.73H12.4a.73.73,0,0,0,.73-.73V58.62H57.18V69.56a.73.73,0,0,0,.73.73h5.83a.73.73,0,0,0,.73-.73V58.62h5.11a.73.73,0,0,0,.72-.73V38.08A3.64,3.64,0,0,0,66.66,34.43ZM40.79,9.34a7.88,7.88,0,1,1,8.72,7.85H47.84a7.89,7.89,0,0,1-7.05-7.86ZM34.33,30.82A12.2,12.2,0,0,1,46.51,18.64h1.27a8.53,8.53,0,0,0,.89.05,8.72,8.72,0,0,0,.9-.05h1.27A12.19,12.19,0,0,1,63,30.82v3.59H34.33ZM9.48,27.29A2.19,2.19,0,0,1,7.29,25.1v-11a2.19,2.19,0,0,1,2.19-2.19H26.13a2.19,2.19,0,0,1,2.18,2.19v11a2.19,2.19,0,0,1-2.18,2.19Zm9.66,1.46v5.66H16.48V28.75ZM11.67,68.83H7.29V58.62h4.38Zm51.34,0H58.64V58.62H63Zm5.84-11.67H1.46V38.08a2.19,2.19,0,0,1,2.19-2.19h63a2.2,2.2,0,0,1,2.19,2.19Z"/></g></g></svg>