<svg xmlns="http://www.w3.org/2000/svg" viewBox="0 0 295 512"><defs><style>.cls-1{opacity:0.3;}.cls-2{fill:#fff;}</style></defs><g id="Layer_2" data-name="Layer 2"><g id="Layer_1-2" data-name="Layer 1"><g class="cls-1"><path class="cls-2" d="M257.5,0H37.5A37.51,37.51,0,0,0,0,37.5v437A37.51,37.51,0,0,0,37.5,512h220A37.51,37.51,0,0,0,295,474.5V37.5A37.51,37.51,0,0,0,257.5,0ZM280,407H67.5a7.5,7.5,0,0,0,0,15H280v52.5A22.53,22.53,0,0,1,257.5,497H37.5A22.53,22.53,0,0,1,15,474.5V422H37.5a7.5,7.5,0,0,0,0-15H15V75H280Zm0-347H15V37.5A22.53,22.53,0,0,1,37.5,15h220A22.53,22.53,0,0,1,280,37.5Z"/><path class="cls-2" d="M177.5,30h-30a7.5,7.5,0,0,0,0,15h30a7.5,7.5,0,0,0,0-15Z"/><path class="cls-2" d="M147.5,437A22.5,22.5,0,1,0,170,459.5,22.53,22.53,0,0,0,147.5,437Zm0,30a7.5,7.5,0,1,1,7.5-7.5A7.55,7.55,0,0,1,147.5,467Z"/><circle class="cls-2" cx="117.5" cy="37.5" r="7.5"/></g></g></g></svg>