<svg xmlns="http://www.w3.org/2000/svg" viewBox="0 0 821.69 394.39"><defs><style>.cls-1{fill:none;stroke:#4169e1;stroke-miterlimit:10;stroke-width:2px;}.cls-2{fill:#4169e1;}.cls-3{fill:#233862;}.cls-4{fill:#ffb27d;}.cls-5{fill:#f99746;}.cls-6{fill:#ed7d2b;}.cls-7{fill:#0f2949;}.cls-8{fill:#163560;}.cls-9{fill:#2b478b;}.cls-10{fill:#fff;}.cls-11{fill:#ed985f;}.cls-12{fill:#2c3a64;}.cls-13{fill:#35488b;}.cls-14{fill:#dfebfd;}.cls-15{fill:#bc3f3f;}.cls-16{font-size:45px;font-family:CenturyGothic-Bold, Century Gothic;font-weight:700;}.cls-17{font-size:25.69px;font-family:Montserrat-Medium, Montserrat;font-weight:500;}</style></defs><g id="Layer_2" data-name="Layer 2"><g id="Layer_1-2" data-name="Layer 1"><rect class="cls-1" x="1" y="1" width="95.21" height="353.89"/><rect class="cls-1" x="198.9" y="1" width="95.21" height="353.89"/><rect class="cls-1" x="433.28" y="1" width="95.21" height="353.89"/><rect class="cls-1" x="660.89" y="1" width="95.21" height="353.89"/><rect class="cls-2" x="1" y="275.82" width="95.89" height="79.07"/><rect class="cls-2" x="198.9" y="66.12" width="95.21" height="288.77"/><rect class="cls-2" x="433.28" y="242" width="95.21" height="112.88"/><rect class="cls-2" x="660.89" y="315.31" width="95.21" height="39.57"/><path class="cls-3" d="M751.27,354.89l-.43-128.72s-1-9.28-9.07-9.33c-8.63-.05-9.18,9.22-9.18,9.22a1,1,0,0,0,1,.8,1,1,0,0,0,1.09-.79s.42-7.15,7.07-7.11c6.24,0,7,7.19,7,7.19L748,354.87Z"/><path class="cls-3" d="M746.87,354.86l5.37,0-.44-5.61s.05-.78-1-.83-3-.21-3.19.4S746.87,354.86,746.87,354.86Z"/><path class="cls-4" d="M741.74,210l-.38,1.84a11.78,11.78,0,0,0-11.28,9.65s-.6,4.05,2.33,3.2,2.49-2.92,6.64-4,6.85-2,7.5-5l.69-3.35Z"/><path class="cls-5" d="M774.39,130.4s-2.46,9.46-4.59,18.11c-.85,3.48-1.65,6.83-2.22,9.38a21.75,21.75,0,0,0-.79,4.59c1.79,2.94-1.61,20.79-4.26,27.26-.23.57-.56,1.25-.94,2-3.69,7.13-13.49,21.11-13.49,21.11a12.11,12.11,0,0,1-4.53-.42,5.94,5.94,0,0,1-2.5-2.41c.88-1.39,4.49-17.88,9.07-27.11,2-4,5-40.68,8.8-45.61C762.09,133.18,774.39,130.4,774.39,130.4Z"/><path class="cls-6" d="M766.79,162.48c1.79,2.94-1.61,20.79-4.26,27.26-.23.57-.56,1.25-.94,2-3.39-15.44,2.51-37.25,2.51-37.25a7.16,7.16,0,0,1,3.48,3.41A21.75,21.75,0,0,0,766.79,162.48Z"/><path class="cls-7" d="M791,340.94s.85,14-1.79,14.15c-.35,0-13.37-.06-13.37-.06l-16.79-.1s.31-4.1,5.17-4.91,13-4.19,16-10.59C783.34,332.7,791,340.94,791,340.94Z"/><path class="cls-8" d="M816.25,341.09s.84,14-1.8,14.15c-.35,0-13.36-.06-13.36-.06l-16.8-.1s.31-4.1,5.17-4.91,13-4.19,16-10.59C808.59,332.85,816.25,341.09,816.25,341.09Z"/><path class="cls-9" d="M792,307.31c.37,5.9,1.17,13.5.83,20.34-.48,9.56-.83,17.62-.83,17.62-6.32,2.11-17.87-.56-17.87-.56s-4-24.2-7.23-43.51c-1.46-8.66-2.68-16.15-3.13-19.68-1.45-11.43,2-72.11,2-72.11s17.13-10.83,24.15-5.15,11.32,11.21-.41,72.91C788.66,281.85,791.14,294.08,792,307.31Z"/><path class="cls-3" d="M792,307.31c.37,5.9,1.08,15.35.74,22.19-5.9-6.31-17.51-19.63-25.84-28.3-1.46-8.66-2.68-16.15-3.13-19.68-1.45-11.43,2-72.11,2-72.11s17.13-10.83,24.15-5.15,11.32,11.21-.41,72.91C788.66,281.85,791.14,294.08,792,307.31Z"/><path class="cls-9" d="M781.22,210.74s1.18,60.77,3.5,72.05,14.52,62.93,14.52,62.93,11.71,1.13,17.85-1.45c0,0-.25-23.89-2.24-37.94-1.87-13.12-5.27-25.12-4.75-29.86,6.95-62.41,2.23-67.6-5.2-72.73S781.22,210.74,781.22,210.74Z"/><path class="cls-4" d="M804.35,216.2A11.79,11.79,0,0,0,808,230.59s3.37,2.33,3.91-.67-.07-2,.77-6.17-.18-8.58-2.59-10.5Z"/><path class="cls-4" d="M770.73,116.61s4.64,7.15,3.67,13.79l6.83,16.75,12.62-19.05a43.93,43.93,0,0,1-9-17Z"/><path class="cls-4" d="M768.64,122.68s17.05.84,17.42-9.4,5-17-7.73-18c-10.49-.81-14,3.55-15,6.94S762.32,122.09,768.64,122.68Z"/><path class="cls-5" d="M809.86,213.84c-3.66.32-8.71.71-14.84,1.06l-3.79.2C772.73,216,765.4,213,765.4,213s-.49-.4-.32-2.57c.87-11.18,3.27-14.46,3-16.59-.61-4.78-12-43.81-12-43.81s-.15-12.32,13.58-18a31.48,31.48,0,0,1,4.69-1.53,5.64,5.64,0,0,0,6.43,3.8,22,22,0,0,0,12.57-6.19h.48a35.84,35.84,0,0,1,1.12,4.07c1.1,4.84,1.73,9.94,4.67,13.76a103.74,103.74,0,0,1,7.51,11.13,91.79,91.79,0,0,1,4.57,8.89C823.68,192.81,814.18,213.46,809.86,213.84Z"/><path class="cls-6" d="M809.86,213.84c-3.66.32-8.71.71-14.84,1.06C793.41,184.8,805.85,156,805.85,156a10.29,10.29,0,0,1,1.3,1.09c2.13,2.09,3.6,5.18,4.57,8.89C815.29,179.62,812.1,201.77,809.86,213.84Z"/><path class="cls-10" d="M763.19,112.88s-3.4,13.15,2.23,15,20.6.49,20.69-15.66c0,0-7.88,4.64-11.63,4.49s-6.16-2.31-9.64-.64C764.84,116.11,763.57,116,763.19,112.88Z"/><path class="cls-5" d="M793.85,128.1s11.93.34,18.18,8.58c4.79,6.31,9.69,40,9.66,45.12s-5.63,33-8.69,36.08a11.6,11.6,0,0,1-4.6,0,9.22,9.22,0,0,1-4.42-2.18s1.7-31.17,1.72-34.1c0-4.23-13.06-30.24-13.06-30.24S785.84,139,793.85,128.1Z"/><path class="cls-10" d="M785.35,98.5a3,3,0,0,0-1.57-1.6c-9.58-4.24-16.63.29-16.63.29,5.94-7.87,20.14-6.12,23.09,1,4.82,11.67-4.13,14-4.13,14s-8.91-3.81-3.71-8.48a8.44,8.44,0,0,0,2.84-4.13h0A4.22,4.22,0,0,0,785.35,98.5Z"/><path class="cls-10" d="M766,118.23a3.86,3.86,0,0,0,3.09,1.71,3.6,3.6,0,0,0,2.89-1.71A16.69,16.69,0,0,0,766,118.23Z"/><path class="cls-3" d="M536.85,356.74s0-4.6.66-6.13,3.06-7.76,3.06-7.76H550a58,58,0,0,1,1.86,7.54c.1,1.86,0,6.35,0,6.35Z"/><path class="cls-3" d="M596.53,356.74s0-4.6-.66-6.13-3.06-7.76-3.06-7.76h-9.4a56.71,56.71,0,0,0-1.85,7.54c-.11,1.86,0,6.35,0,6.35Z"/><path class="cls-4" d="M558.87,98.49s-.33,10.25-1.64,14.84l-10.38,7.24,39.07,5.84-9.31-12.87s-2.82-13.74-1.34-18.82S558.87,98.49,558.87,98.49Z"/><path class="cls-11" d="M558.82,99.91s3.09,7.43,8.91,7.27,7.14-6.74,7.14-6.74Z"/><path class="cls-12" d="M555.34,93.89s-1.88-9.39-3.19-12.23-2.4-15.52,12.13-16.17c0,0,5.58.65,8.64-1.2,0,0,0,1.85-.77,2.51a9.66,9.66,0,0,1,9,3.17c3.94,4.37-2.62,19.67-2.29,23.28Z"/><path class="cls-4" d="M579,80.81V91.05A12.17,12.17,0,0,1,578,95.92h0a15.56,15.56,0,0,1-5.24,6.32,10.13,10.13,0,0,1-5.68,2.07,10.88,10.88,0,0,1-5.39-2,15.17,15.17,0,0,1-6.06-7.46l0,0,0-.13a9.8,9.8,0,0,1-.47-3V80.81c0-2.53,1.77-4.61,3.94-4.61H575.1C577.27,76.2,579,78.28,579,80.81Z"/><path class="cls-12" d="M555.08,86.61s0-6.52,5.19-7.52,16.72,3.17,18.36-1.58-22.34-4.67-23.55-1.64S555.08,86.61,555.08,86.61Z"/><path class="cls-5" d="M538,197.4s1.65,50.21-.81,78.86,0,68.53,0,68.53a18.6,18.6,0,0,0,16.38,0s9.35-55.35,9.29-68.53c-.06-14,10.18-76.67,10.18-76.67Z"/><path class="cls-5" d="M596.19,344.78a18.58,18.58,0,0,1-16.39,0s-9.35-55.34-9.29-68.52c0-5.92-1.78-20.52-3.88-35.41-2.88-20.36-6.29-41.26-6.29-41.26l36.41-2.28s-3,50.3-.54,78.95S596.19,344.78,596.19,344.78Z"/><path class="cls-13" d="M596.32,205.75a182.14,182.14,0,0,1-29.69,3,144.36,144.36,0,0,1-18.23-1.39c-5.91-.79-10.15-1.62-10.15-1.62s-3.15.28-1.29-15.24c1.42-11.81,1-22.47.66-33.44,0-1.22,0-2.66.07-4.27.6-12.79,4.47-35.81,7.41-37.05a54,54,0,0,1,12.13-2.42c0,.15,4.5,6.72,9.83,7.46,3.32-1.31,5.92-2.43,9.55-7.25a104.45,104.45,0,0,1,14.95,2.89s.56,2.44,2.67,44.76C595.06,178,600.78,205.81,596.32,205.75Z"/><path class="cls-12" d="M548.4,207.37c-5.91-.79-10.15-1.62-10.15-1.62s-3.15.28-1.29-15.24c1.42-11.81,1-22.47.66-33.44,0-1.22,0-2.66.07-4.27.9,1.45,11,17.74,13.7,29.84C553.37,191.47,550.39,201.87,548.4,207.37Z"/><path class="cls-6" d="M570.51,276.26c0-5.92-1.78-20.52-3.88-35.41a70,70,0,0,1,7.49-17.44C580.84,242.26,570.51,276.26,570.51,276.26Z"/><path class="cls-13" d="M523.27,166.13c-.37.3.92,3.5,2.83,7.67C530,182.37,536.51,195,536.51,195a37.82,37.82,0,0,1-2,5.78c-10.94-8.59-18-15.9-22.49-21.51-6.33-7.89-7.63-12.41-7.63-12.41,24.35-49.57,41.49-51.4,41.49-51.4l-2,32.76S524.4,165.19,523.27,166.13Z"/><path class="cls-4" d="M535.21,195.65s5.91-5.47,8.31-2.41,2.84,7.87,1,7.54-5.68-2.07-6.23-1.2-3,2.55-3.73,1.22S535.21,195.65,535.21,195.65Z"/><path class="cls-4" d="M536.51,195a37.82,37.82,0,0,1-2,5.78c-10.94-8.59-18-15.9-22.49-21.51,3.39-.25,8.34-1.47,14.05-5.49C530,182.37,536.51,195,536.51,195Z"/><path class="cls-13" d="M630.57,166.88s-1.3,4.52-7.63,12.41c-4.5,5.61-11.55,12.92-22.49,21.51a37.82,37.82,0,0,1-2-5.78s6.5-12.65,10.42-21.22c1.9-4.17,3.19-7.37,2.82-7.67-.88-.73-12.78-11.08-18.09-15.69l-2.53-2.2L589.89,116S606.22,117.31,630.57,166.88Z"/><path class="cls-4" d="M599.78,195.65s-5.91-5.47-8.31-2.41-2.84,7.87-1,7.54,5.68-2.07,6.23-1.2,3,2.55,3.73,1.22S599.78,195.65,599.78,195.65Z"/><path class="cls-4" d="M598.48,195a37.82,37.82,0,0,0,2,5.78c10.94-8.59,18-15.9,22.49-21.51-3.39-.25-8.34-1.47-14.05-5.49C605,182.37,598.48,195,598.48,195Z"/><path class="cls-12" d="M572.74,97.73v4.51a10.13,10.13,0,0,1-5.68,2.07,10.88,10.88,0,0,1-5.39-2V97.73a4.59,4.59,0,0,1,4.58-4.58h1.9A4.6,4.6,0,0,1,572.74,97.73Z"/><path class="cls-12" d="M578,95.92c-2.17,4.93-7.22,8.45-10.92,8.39s-9.64-4.08-11.45-9.5l0,0,0-.13s3.83,3.26,6.35,1.65h10.62A5.25,5.25,0,0,0,578,95.92Z"/><path class="cls-4" d="M568.35,97.18h-2.29c-.53,0-1.2-.86-1.2-1.38a2.52,2.52,0,0,1,1.2-.53h2.29a1.91,1.91,0,0,1,1.41.75A1.57,1.57,0,0,1,568.35,97.18Z"/><path class="cls-10" d="M563.71,95.58a4.45,4.45,0,0,0,3.61,2.16,4.23,4.23,0,0,0,3.37-2.16A18.22,18.22,0,0,0,563.71,95.58Z"/><path class="cls-3" d="M297.56,356.3s0-4.6.66-6.13,3.06-7.76,3.06-7.76h9.4a57.57,57.57,0,0,1,1.86,7.54c.11,1.86,0,6.35,0,6.35Z"/><path class="cls-3" d="M357.24,356.3s0-4.6-.66-6.13-3.06-7.76-3.06-7.76h-9.4a57.92,57.92,0,0,0-1.85,7.54c-.11,1.86,0,6.35,0,6.35Z"/><path class="cls-4" d="M319.58,98.05s-.33,10.25-1.64,14.84l-10.38,7.24L346.63,126l-9.31-12.87S334.5,99.36,336,94.28,319.58,98.05,319.58,98.05Z"/><path class="cls-11" d="M319.53,99.46s3.09,7.44,8.91,7.28,7.14-6.75,7.14-6.75Z"/><path class="cls-12" d="M316.05,93.44s-1.87-9.38-3.19-12.22S310.46,65.7,325,65.05c0,0,5.58.65,8.64-1.21,0,0,0,1.86-.77,2.52a9.63,9.63,0,0,1,9,3.17c3.94,4.37-2.62,19.67-2.29,23.27Z"/><path class="cls-4" d="M327.77,103.86c-4.22-.07-12-5.69-12-12.64V80.37c0-2.54,1.77-4.61,3.94-4.61h16.08c2.17,0,3.94,2.07,3.94,4.61V90.61C339.75,97.9,332.61,104,327.77,103.86Z"/><path class="cls-12" d="M315.79,86.16s0-6.51,5.19-7.52,16.72,3.18,18.36-1.57S317,72.4,315.79,75.43,315.79,86.16,315.79,86.16Z"/><path class="cls-9" d="M298.74,197s1.65,50.21-.81,78.86,0,68.52,0,68.52a18.56,18.56,0,0,0,16.38,0s9.35-55.35,9.29-68.52c-.06-14,10.18-76.67,10.18-76.67Z"/><path class="cls-9" d="M356.9,344.34a18.58,18.58,0,0,1-16.39,0s-9.35-55.35-9.29-68.52c0-5.93-1.78-20.52-3.88-35.41-2.88-20.36-6.29-41.26-6.29-41.26l36.41-2.28s-3,50.3-.54,78.95S356.9,344.34,356.9,344.34Z"/><path class="cls-10" d="M357,205.31a182.14,182.14,0,0,1-29.69,3,142.46,142.46,0,0,1-18.23-1.4c-5.91-.78-10.15-1.61-10.15-1.61s-3.14.28-1.29-15.24c1.42-11.81,1-22.47.66-33.44,0-1.22,0-2.66.07-4.27.6-12.79,4.47-35.82,7.41-37.05a54,54,0,0,1,12.13-2.42c0,.15,4.5,6.72,9.83,7.45,3.32-1.31,5.92-2.43,9.55-7.24a103.35,103.35,0,0,1,15,2.88s.55,2.44,2.66,44.76C355.77,177.51,361.49,205.37,357,205.31Z"/><path class="cls-14" d="M309.11,206.92c-5.91-.78-10.15-1.61-10.15-1.61s-3.14.28-1.29-15.24c1.42-11.81,1-22.47.66-33.44,0-1.22,0-2.66.07-4.27.9,1.45,11,17.74,13.7,29.84C314.08,191,311.1,201.43,309.11,206.92Z"/><path class="cls-3" d="M331.22,275.82c0-5.93-1.78-20.52-3.88-35.41A70.16,70.16,0,0,1,334.83,223C341.55,241.81,331.22,275.82,331.22,275.82Z"/><path class="cls-10" d="M284,165.68c-.37.31.92,3.51,2.83,7.68,3.91,8.57,10.41,21.22,10.41,21.22a37.82,37.82,0,0,1-2,5.78c-10.94-8.6-18-15.91-22.49-21.51-6.33-7.89-7.63-12.41-7.63-12.41,24.35-49.57,41.49-51.4,41.49-51.4l-2,32.76S285.11,164.75,284,165.68Z"/><path class="cls-4" d="M295.92,195.2s5.91-5.46,8.31-2.4,2.84,7.87,1,7.54-5.68-2.08-6.23-1.2-3,2.54-3.73,1.22S295.92,195.2,295.92,195.2Z"/><path class="cls-4" d="M297.22,194.58a37.82,37.82,0,0,1-2,5.78c-10.94-8.6-18-15.91-22.49-21.51,3.39-.26,8.34-1.47,14.05-5.49C290.72,181.93,297.22,194.58,297.22,194.58Z"/><path class="cls-10" d="M391.28,166.44s-1.3,4.52-7.63,12.41c-4.5,5.6-11.55,12.91-22.49,21.51a37.82,37.82,0,0,1-2-5.78s6.5-12.65,10.42-21.22c1.9-4.17,3.19-7.37,2.82-7.68-.88-.73-12.78-11.07-18.09-15.68l-2.53-2.2-1.21-32.27S366.93,116.87,391.28,166.44Z"/><path class="cls-4" d="M360.49,195.2s-5.91-5.46-8.31-2.4-2.84,7.87-1,7.54,5.68-2.08,6.23-1.2,3,2.54,3.73,1.22S360.49,195.2,360.49,195.2Z"/><path class="cls-4" d="M359.19,194.58a37.82,37.82,0,0,0,2,5.78c10.94-8.6,18-15.91,22.49-21.51-3.39-.26-8.34-1.47-14-5.49C365.69,181.93,359.19,194.58,359.19,194.58Z"/><path class="cls-6" d="M318.49,110.39a4.13,4.13,0,0,0-2.23,2.69s7,7.15,11.51,7.26Z"/><path class="cls-6" d="M327.77,120.34l9-10.31a4.2,4.2,0,0,1,1.83,3.22S331.63,120.62,327.77,120.34Z"/><path class="cls-5" d="M326.15,119.58s-6.85,59.18-4.47,66.4a49.79,49.79,0,0,0,4.18,9.16,2.43,2.43,0,0,0,4.21,0c1.82-3.16,4.2-7.73,4.2-10,0-3.76-5.2-65.55-5.2-65.55Z"/><path class="cls-6" d="M324.36,116.68a43.91,43.91,0,0,1,6.66-.16.7.7,0,0,1,.54,1c-.71,1.27-2.15,3.48-3.66,3.48C325.78,121,322.48,116.83,324.36,116.68Z"/><path class="cls-10" d="M324.41,96.88A4.62,4.62,0,0,0,328,98.59a4.31,4.31,0,0,0,3.37-1.71A22.69,22.69,0,0,0,324.41,96.88Z"/><polygon class="cls-4" points="114.11 323.65 112.07 332.24 109.36 343.63 100.89 343.63 100.39 332.72 100 324.3 114.11 323.65"/><path class="cls-15" d="M140.94,136.72s6.7-7.17,11.05-1.55,9.18,9.41,15.87,13.73-5.91,38.21-14.28,37.51S111.05,159,140.94,136.72Z"/><path class="cls-6" d="M107.58,133.31c1.68-1.25,17.07-6.54,32.08-1.34S128,151.65,128,151.65l-8.64.37Z"/><path class="cls-3" d="M97.55,356.14s0-4.14.59-5.52,2.75-7,2.75-7h8.47a50.76,50.76,0,0,1,1.67,6.79c.1,1.68,0,5.72,0,5.72Z"/><path class="cls-3" d="M151.3,356.14s0-4.14-.59-5.52-2.76-7-2.76-7h-8.46a52,52,0,0,0-1.68,6.79c-.1,1.68,0,5.72,0,5.72Z"/><path class="cls-4" d="M117.38,123.52s-.3,9.23-1.48,13.36L106.55,157l35.2-8.36-8.4-11.6s-2.53-12.37-1.2-16.95S117.38,123.52,117.38,123.52Z"/><path class="cls-11" d="M117.33,124.79s2.78,6.7,8,6.55,6.43-6.07,6.43-6.07Z"/><path class="cls-12" d="M114.2,119.37s-1.69-8.45-2.87-11-2.17-14,10.93-14.57c0,0,5,.59,7.77-1.08,0,0,0,1.67-.69,2.26a8.73,8.73,0,0,1,8.08,2.85c3.54,3.94-2.37,17.72-2.07,21Z"/><path class="cls-4" d="M124.76,128.75c-3.8-.06-10.79-5.12-10.79-11.38v-9.78c0-2.28,1.59-4.15,3.54-4.15H132c1.95,0,3.55,1.87,3.55,4.15v9.22C135.55,123.38,129.11,128.83,124.76,128.75Z"/><path class="cls-12" d="M114,112.81s0-5.87,4.67-6.77,15.06,2.86,16.54-1.42-20.13-4.21-21.21-1.48S114,112.81,114,112.81Z"/><path class="cls-9" d="M130.18,214.58c2.33-7.25,2.29,30-7.06,71.94-1.43,6.4-4.63,21.83-6.92,36.76H97c-.27-12.06-1.56-28.89-2.38-41.49-2.55-39.52,4-69.18,4-69.18Z"/><path class="cls-9" d="M154.77,281.78c-.21,12.09-2.66,28.14-2.88,39.9H132.45c-1.31-8.54-3.38-17.33-4.87-24.43-1.07-5-1.83-9.21-1.82-11.84,0-5.13-3.22-19.93-5.16-33v-.05c-.07-.5-.14-1-.21-1.5a216.85,216.85,0,0,1-1.68-36.3l32.8-2.05S155.34,249.56,154.77,281.78Z"/><path class="cls-3" d="M96,227.81s7.38,8.94,27.43,7.65,29.62-4.78,29.62-4.78Z"/><path class="cls-5" d="M153.06,230.68c-6.55.89-51.11,3.21-57-2.87s9.7-89,9.7-89,1.77-.51,4.76-1.07c1.52-.29,3.36-.59,5.44-.84,0,.65.54,10.42,8.65,14.46,0,0,9.75-3.9,8.79-14.3,0-.12,0-.24,0-.35,1.3.13,2.62.32,3.94.54a55.6,55.6,0,0,1,8.07,2S159.61,229.79,153.06,230.68Z"/><path class="cls-5" d="M96.39,187.88c-.27.34,1.51,2.89,4,6.17,5.16,6.74,13.41,16.55,13.41,16.55a33.42,33.42,0,0,1-.58,5.47c-11.33-5.35-19-10.36-24.06-14.38C82,196,80,192.32,80,192.32c11.45-48.41,26.13-53.45,26.13-53.45L110.9,168S97.19,186.83,96.39,187.88Z"/><path class="cls-10" d="M137.25,137.26l-2.95,9L130.37,152l-5.65,3.06L119.4,152l-8.93-14.27c1.52-.29,3.36-.59,5.44-.84a9.23,9.23,0,0,0,1.1,3.65,8.78,8.78,0,0,0,15.53,0,7.14,7.14,0,0,0,.81-3.53,2,2,0,0,0,0-.35C134.61,136.85,135.93,137,137.25,137.26Z"/><path class="cls-4" d="M113.81,210.6c0,.09,0,.19,0,.28,0,.61-.06,1.19-.11,1.71a9,9,0,0,1-.94,1.1,9.92,9.92,0,0,1-1.66,1.35l-.85-.42a119.09,119.09,0,0,1-21.07-12.93,25.2,25.2,0,0,0,11.23-7.64C105.56,200.79,113.81,210.6,113.81,210.6Z"/><path class="cls-5" d="M170.06,190.54s-2,3.75-9,9.54c-5,4.12-12.56,9.27-23.78,14.84a33.3,33.3,0,0,1-.68-5.46s8.05-10,13.08-16.8c2.44-3.32,4.17-5.91,3.9-6.25-.64-.8-9.24-12.11-13.07-17.15l-1.83-2.4,4.86-28.69S157.69,142.36,170.06,190.54Z"/><path class="cls-4" d="M161.06,200.08a119.4,119.4,0,0,1-20.92,13.39l-.72.37A13.21,13.21,0,0,1,137,209l.62-.78c2.32-2.88,8.13-10.18,12.08-15.55A25.14,25.14,0,0,0,161.06,200.08Z"/><path class="cls-4" d="M133.31,136.72a78.16,78.16,0,0,0-17.4.19v0S132,126.92,133.31,136.72Z"/><polygon class="cls-6" points="117.16 164.89 116.83 164.89 116.58 149.37 117.42 149.37 117.16 164.89"/><path class="cls-6" d="M116.79,164.49c-.3.45-1,2-.53,2.11a1.91,1.91,0,0,0,1.45,0C117.92,166.35,117.36,163.63,116.79,164.49Z"/><polygon class="cls-6" points="132.41 164.89 132.07 164.89 131.83 149.37 132.67 149.37 132.41 164.89"/><path class="cls-6" d="M132,164.49c-.3.45-1,2-.53,2.11a1.91,1.91,0,0,0,1.45,0C133.17,166.35,132.61,163.63,132,164.49Z"/><path class="cls-6" d="M119.4,152l-13.69-13.2s-3.09-2.19,1.79-5.46S119.4,152,119.4,152Z"/><path class="cls-6" d="M130.37,152l13.69-13.2s3.08-2.19-1.79-5.46S130.37,152,130.37,152Z"/><path class="cls-6" d="M147.55,216.27a8.51,8.51,0,0,1-6.61-2,8.83,8.83,0,0,1-.8-.82,13.25,13.25,0,0,1-2.54-5.26,17.49,17.49,0,0,1-.54-3.46v-.38H114.93v.41a12.35,12.35,0,0,1-1.14,6.1,8.8,8.8,0,0,1-1.61,2.25,9.71,9.71,0,0,1-2,1.49,13.51,13.51,0,0,1-6.3,1.65l-.41,0v9.35H148v-9.37Z"/><path class="cls-6" d="M153.58,186.41s-12.33-16.18-2.57-20.89c3.87-1.87,9.33,20.33,6.4,22.42s-7.73,4.72-7.73,4.72Z"/><path class="cls-6" d="M97.81,183.75s4.28-20.32.52-18.23-9.33,20.33-6.4,22.42,7.73,4.72,7.73,4.72Z"/><path class="cls-15" d="M151.85,186.37c-5.63-7-7.73-18.34-7.45-30.06a140.05,140.05,0,0,1,1.5-17l4.62,3.6c0,.07-2.65,4.88-2.85,13.44-.19,7.82-.56,13.78,3.86,27.41Z"/><path class="cls-3" d="M109.1,327.6H99.18c-.88.1-2.25-1.19-2.25-3a37,37,0,0,0-.32-5.19c-1.27-3.43.63-3.62,2.46-3.62h18.1c1.84,0-1,5.68-1,7.52l.65,2.41C116.85,327.53,110.94,327.6,109.1,327.6Z"/><path class="cls-10" d="M112.07,332.24l-2.71,11.39h-8.47l-.5-10.91C101.65,333.18,105.9,334.37,112.07,332.24Z"/><polygon class="cls-4" points="134.75 323.65 136.79 332.24 139.5 343.63 147.97 343.63 148.47 332.72 148.86 324.3 134.75 323.65"/><path class="cls-3" d="M139.76,327.6h9.93c.87.1,2.25-1.19,2.25-3a36.72,36.72,0,0,1,.31-5.19c1.28-3.43-.62-3.62-2.46-3.62h-18.1c-1.84,0,1,5.68,1,7.52l-.66,2.41C132,327.53,137.93,327.6,139.76,327.6Z"/><path class="cls-10" d="M136.79,332.24l2.71,11.39H148l.5-10.91C147.21,333.18,143,334.37,136.79,332.24Z"/><path class="cls-10" d="M121.15,121.94a4.62,4.62,0,0,0,3.61,1.71,4.28,4.28,0,0,0,3.37-1.71A22.69,22.69,0,0,0,121.15,121.94Z"/><text class="cls-16" transform="translate(12.36 48.94)">9%</text><text class="cls-16" transform="translate(202.74 48.94)">77%</text><text class="cls-16" transform="translate(435.07 48.94)">12%</text><text class="cls-16" transform="translate(675.17 48.94)">1%</text><text class="cls-17" transform="translate(7.99 387.63)">10 - 20</text><text class="cls-17" transform="translate(206.73 387.63)">21 - 30</text><text class="cls-17" transform="translate(441.11 387.63)">31 - 50</text><text class="cls-17" transform="translate(681.68 387.63)">50 +</text></g></g></svg>