<svg xmlns="http://www.w3.org/2000/svg" viewBox="0 0 483.18 484.94"><defs><style>.cls-1{opacity:0.6;}.cls-2{fill:#ebebeb;}.cls-3,.cls-8{fill:#fff;}.cls-4{fill:#f5f5f5;}.cls-5{fill:#e0e0e0;}.cls-6{fill:#263238;}.cls-7{fill:#e8505b;}.cls-8{fill-rule:evenodd;}.cls-9{fill:#455a64;}.cls-10{fill:#ffbe9d;}.cls-11{opacity:0.4;}.cls-12{opacity:0.5;}.cls-13{fill:#eb996e;}</style></defs><g id="Layer_2" data-name="Layer 2"><g id="Layer_1-2" data-name="Layer 1"><g class="cls-1"><path class="cls-2" d="M118.26,111.39h0A37.23,37.23,0,0,1,81,74.16h0a37.24,37.24,0,0,1,37.24-37.24h0A37.24,37.24,0,0,1,155.5,74.16h0A37.24,37.24,0,0,1,118.26,111.39Z"/><rect class="cls-3" x="101.37" y="65.85" width="7.71" height="24.9"/><path class="cls-3" d="M105.19,62.59A4.59,4.59,0,1,0,100.63,58,4.57,4.57,0,0,0,105.19,62.59Z"/><path class="cls-3" d="M121.4,77.68c0-3.5,1.61-5.58,4.7-5.58,2.83,0,4.19,2,4.19,5.58V90.75H138V75c0-6.67-3.78-9.9-9.06-9.9a8.67,8.67,0,0,0-7.5,4.12V65.85H114v24.9h7.39Z"/><polygon class="cls-4" points="168.16 0 173.26 9.32 182.59 14.42 173.26 19.52 168.16 28.84 163.06 19.52 153.74 14.42 163.06 9.32 168.16 0"/><polygon class="cls-2" points="380.82 252.58 384.64 259.57 391.63 263.4 384.64 267.22 380.82 274.22 376.99 267.22 370 263.4 376.99 259.57 380.82 252.58"/><polygon class="cls-5" points="391.63 218.06 393.36 221.21 396.51 222.94 393.36 224.66 391.63 227.82 389.91 224.66 386.75 222.94 389.91 221.21 391.63 218.06"/><polygon class="cls-5" points="131.74 3.51 133.47 6.66 136.63 8.39 133.47 10.11 131.74 13.27 130.02 10.11 126.86 8.39 130.02 6.66 131.74 3.51"/><path class="cls-5" d="M45.25,296.59a11.28,11.28,0,0,0,6.58-10.52c-.06-6.23-4.83-11.23-10.67-11.19S30.63,280,30.69,286.25a11.25,11.25,0,0,0,6.87,10.44C21.32,299.35,22.29,317,22.29,317l38.47-.32S61.41,298.81,45.25,296.59Z"/><path class="cls-2" d="M414.26,413.08a6,6,0,0,0-11.81.35,6,6,0,0,0-11.82-.24,8.16,8.16,0,0,0,1.45,5.83,24.12,24.12,0,0,0,4.23,4.46c2.15,1.91,4.13,3.71,6.28,5.62,2.14-1.93,4-3.74,6.08-5.67a23.8,23.8,0,0,0,4.19-4.5A8.14,8.14,0,0,0,414.26,413.08Z"/><path class="cls-5" d="M439.31,184l4.12-.81,6.51-14.32-1.63-8.23s6.3-1.66,7.68,9.27,1.66,8,1.66,8,13.54-2.63,14.89-1.67c1,.69,4,14.05,5.61,21.31a8,8,0,0,1-4,9.06,6.29,6.29,0,0,1-1.42.49c-3.37.67-21.16,1.34-21.16,1.34l-7.12,1.41Z"/><polygon class="cls-5" points="427.06 184.06 435.19 211.75 442.25 210.35 436.77 182.72 427.06 184.06"/><path class="cls-6" d="M481.46,484.15c0,.16-107.78.28-240.72.28S0,484.31,0,484.15s107.76-.28,240.74-.28S481.46,484,481.46,484.15Z"/><path class="cls-7" d="M397.73,173.1h0a44.17,44.17,0,0,1-59-20.4h0a44.17,44.17,0,0,1,20.4-59h0a44.16,44.16,0,0,1,59,20.4h0A44.15,44.15,0,0,1,397.73,173.1Z"/><path class="cls-3" d="M367.5,143.26a1,1,0,0,0,1-1.33c-.11-.54-.39-1.88-.51-2.45-.14-.77-.33-1-1.12-1.32a8.65,8.65,0,0,1-4.37-4.44c-3.33-6.85-1.19-15.47,7-19.47,7.27-3.53,13.43-1,16.32,4.91,3.8,7.81,3.55,16.08-1.58,18.58a4.67,4.67,0,0,1-6.82-3.14c-.85-3.83-1.08-8.3-2.28-10.78-1.08-2.22-3.17-3.49-5.63-2.29-2.9,1.41-3.77,5.54-1.82,9.56A11.55,11.55,0,0,0,370.7,135l3.7,16.46c1.09,4.88,4.58,9.83,4.92,10.33a.4.4,0,0,0,.72-.15c.1-.48,1.48-6.42.58-11.25-.25-1.36-1.72-8.37-1.72-8.37,1.82,1.34,5.34,1.58,8.26.16,8.71-4.24,10.76-15,5.59-25.68-3.91-8-14.35-12.21-24.7-7.18-12.87,6.26-14.87,18.65-11.13,26.34C359.19,140.27,363,143.56,367.5,143.26Z"/><path class="cls-7" d="M441.84,297.67h0a30.44,30.44,0,0,1-17.58-39.32h0a30.44,30.44,0,0,1,39.32-17.58h0a30.45,30.45,0,0,1,17.58,39.32h0A30.46,30.46,0,0,1,441.84,297.67Z"/><path class="cls-8" d="M468.61,274.39a16.41,16.41,0,0,0-30.52-12l-.27.66a16.18,16.18,0,0,0-.8,8.69l-5.88,7.11,9.52.54a16.43,16.43,0,0,0,27.81-4.63C468.52,274.65,468.57,274.52,468.61,274.39Zm-20.35,7.32a13.77,13.77,0,0,1-6.28-4.83l-5.55-.31,3.42-4.13a13.61,13.61,0,0,1,.41-8.44,13.11,13.11,0,0,1,.54-1.21,13.8,13.8,0,0,1,25.57,10c-.1.35-.21.68-.34,1A13.76,13.76,0,0,1,448.26,281.71Z"/><path class="cls-8" d="M459,274.68c-.31-.33-1.81-1.94-2.11-2.19s-.52-.42-.92-.14-1.44.84-1.74,1-.55.11-.86-.22a11,11,0,0,1-2.31-3,11.67,11.67,0,0,1-1.1-3.38c-.08-.45.19-.58.45-.69s.54-.3.82-.44l.2-.13a4,4,0,0,0,.41-.35.72.72,0,0,0,.22-.67c0-.22-.07-2.34-.1-3.21s-.39-.85-.61-.94-.46-.21-.71-.31a1.47,1.47,0,0,0-1.18.08,4.47,4.47,0,0,0-2.5,2.61,4.94,4.94,0,0,0-.29,1.35,8.88,8.88,0,0,0,.35,3.09c.09.32,1,5.13,4.26,8.09s3.45,2.45,4.16,2.64a4,4,0,0,0,3.21-.8,3.3,3.3,0,0,0,.9-1.69C459.51,275.2,459.3,275,459,274.68Z"/><path class="cls-7" d="M45.79,156.9h0a23.23,23.23,0,0,1-23.23-23.23h0a23.23,23.23,0,0,1,23.23-23.22h0A23.22,23.22,0,0,1,69,133.67h0A23.22,23.22,0,0,1,45.79,156.9Z"/><path class="cls-3" d="M33.41,141.45a14.45,14.45,0,0,0,22.22-12.82A10.37,10.37,0,0,0,58.16,126a10.2,10.2,0,0,1-2.91.8A5.08,5.08,0,0,0,57.48,124a10.29,10.29,0,0,1-3.22,1.23,5.09,5.09,0,0,0-8.66,4.63,14.39,14.39,0,0,1-10.46-5.3,5.09,5.09,0,0,0,1.57,6.78,5.1,5.1,0,0,1-2.3-.64,5.08,5.08,0,0,0,4.07,5,5,5,0,0,1-2.29.09,5.07,5.07,0,0,0,4.74,3.53A10.2,10.2,0,0,1,33.41,141.45Z"/><path class="cls-9" d="M87.53,417.08h0a40,40,0,0,1-48.19-29.65h0A40,40,0,0,1,69,339.25h0a40,40,0,0,1,48.18,29.64h0A40,40,0,0,1,87.53,417.08Z"/><path class="cls-3" d="M74.09,360.67c5.7-1.36,6.38-1.49,8.65-1.93a12.26,12.26,0,0,1,4.14-.21,6.87,6.87,0,0,1,2.83,1,6.67,6.67,0,0,1,2.18,2.08,12.15,12.15,0,0,1,1.68,3.78c.64,2.23.82,2.9,2.18,8.6s1.49,6.37,1.93,8.65a12.2,12.2,0,0,1,.21,4.13,7,7,0,0,1-1,2.84,6.87,6.87,0,0,1-2.08,2.18A12.15,12.15,0,0,1,91,393.48c-2.23.63-2.9.82-8.6,2.17s-6.37,1.5-8.65,1.93a11.69,11.69,0,0,1-4.13.21,6.82,6.82,0,0,1-2.84-1,6.94,6.94,0,0,1-2.18-2.07,12.12,12.12,0,0,1-1.68-3.79c-.63-2.22-.82-2.89-2.17-8.59s-1.5-6.38-1.93-8.65a11.74,11.74,0,0,1-.21-4.14,7.26,7.26,0,0,1,3.08-5,12.12,12.12,0,0,1,3.79-1.68c2.22-.64,2.89-.82,8.59-2.18m-.92-3.84c-5.79,1.38-6.51,1.58-8.76,2.22a16.16,16.16,0,0,0-4.94,2.23A11.19,11.19,0,0,0,54.71,369a16.42,16.42,0,0,0,.24,5.42c.44,2.3.59,3,2,8.83s1.58,6.51,2.23,8.76A16.12,16.12,0,0,0,61.37,397a11.21,11.21,0,0,0,7.73,4.75,16.36,16.36,0,0,0,5.41-.24c2.3-.44,3-.59,8.83-2s6.51-1.58,8.77-2.22a16.27,16.27,0,0,0,4.94-2.23,11.21,11.21,0,0,0,4.75-7.73,15.84,15.84,0,0,0-.24-5.41c-.44-2.3-.59-3-2-8.83s-1.58-6.51-2.22-8.77a16.27,16.27,0,0,0-2.23-4.94,11.22,11.22,0,0,0-7.72-4.75,15.9,15.9,0,0,0-5.42.24c-2.3.44-3,.59-8.83,2"/><path class="cls-3" d="M75.65,367.21a11.26,11.26,0,1,0,13.56,8.34,11.26,11.26,0,0,0-13.56-8.34M80,385.28a7.31,7.31,0,1,1,5.42-8.81A7.31,7.31,0,0,1,80,385.28"/><path class="cls-3" d="M89.49,363.45a2.63,2.63,0,1,1-3.17-1.95,2.63,2.63,0,0,1,3.17,1.95"/><path class="cls-9" d="M390.53,381.87h0a18.65,18.65,0,0,1-18.65-18.66h0a18.65,18.65,0,0,1,18.65-18.65h0a18.65,18.65,0,0,1,18.65,18.65h0A18.65,18.65,0,0,1,390.53,381.87Z"/><path class="cls-3" d="M387.69,374.49h4.54V363.12h3.17l.33-3.81h-3.5v-2.17c0-.89.18-1.25,1-1.25h2.45v-3.95h-3.14c-3.38,0-4.9,1.49-4.9,4.34v3h-2.36v3.86h2.36Z"/><path class="cls-6" d="M326.91,484.94,177,484.85a32.65,32.65,0,0,1-32.63-32.66l.07-375.72a32.65,32.65,0,0,1,32.67-32.64L327,43.91a32.66,32.66,0,0,1,32.63,32.66l-.08,375.73A32.65,32.65,0,0,1,326.91,484.94Z"/><path class="cls-3" d="M326.86,57.2H297.8a7.21,7.21,0,0,0-7.05,7.37v5.27a7.22,7.22,0,0,1-7.05,7.37l-56.64,0A7.23,7.23,0,0,1,220,69.79V64.52a7.21,7.21,0,0,0-7.05-7.38H177.29A22.86,22.86,0,0,0,154.41,80l-.07,366.74a22.87,22.87,0,0,0,22.85,22.87l149.57.09a22.87,22.87,0,0,0,22.88-22.86l.07-366.74A22.87,22.87,0,0,0,326.86,57.2Z"/><path class="cls-6" d="M329.05,87c0,.1-3.78.21-8.44.24s-8.44,0-8.44-.1,3.77-.21,8.44-.25S329.05,86.9,329.05,87Z"/><path class="cls-6" d="M329.08,91.32c0,.09-3.77.21-8.44.24s-8.44,0-8.44-.1,3.78-.21,8.44-.25S329.08,91.22,329.08,91.32Z"/><path class="cls-6" d="M329.12,95.64c0,.09-3.78.2-8.44.24s-8.44,0-8.44-.11,3.77-.2,8.44-.24S329.12,95.54,329.12,95.64Z"/><path class="cls-6" d="M170.12,99.85l.44,0,1.23,0,4.54-.11-.12.13q0-1.51-.06-3.3c0-.61-.05-1.19,0-1.89a1.73,1.73,0,0,1,1.53-1.4c.73,0,1.37,0,2.17,0A1.77,1.77,0,0,1,181.35,95c0,1.54,0,3.14.05,4.8l-.21-.2,5.73-.06-.22.22q0-3.46-.06-7.14c0-.61,0-1.22,0-1.82a1.84,1.84,0,0,0-.8-1.35l-2.51-2.47-2.41-2.39-1.18-1.15c-.4-.39-.71-.79-1.18-.89a1.59,1.59,0,0,0-1.32.25c-.34.3-.71.71-1.06,1l-2.06,2.08c-1.29,1.34-2.64,2.57-3.62,3.73a4.09,4.09,0,0,0-.29,2.14v2c0,1.23,0,2.32,0,3.25s0,1.52,0,2.08,0,.74,0,.75a6.85,6.85,0,0,1,0-.69c0-.56,0-1.23-.06-2s0-2-.07-3.28c0-.65,0-1.33,0-2.06,0-.36,0-.74,0-1.12a2.35,2.35,0,0,1,.32-1.2c1.06-1.3,2.32-2.45,3.63-3.83l2-2.09c.36-.36.67-.72,1.1-1.1a2,2,0,0,1,1.66-.33,3.15,3.15,0,0,1,1.38,1l1.18,1.15,2.42,2.38,2.51,2.46a4.82,4.82,0,0,1,.64.69,1.88,1.88,0,0,1,.3,1c0,.6,0,1.21,0,1.83,0,2.44,0,4.83,0,7.14v.22h-.22l-5.73,0H181v-.21c0-1.67,0-3.27,0-4.81a1.39,1.39,0,0,0-1.16-1.39c-.66,0-1.44,0-2.08,0a1.38,1.38,0,0,0-1.23,1.11c-.06.58,0,1.25,0,1.83v3.42h-.12l-4.62,0-1.21,0A2.69,2.69,0,0,1,170.12,99.85Z"/><path class="cls-9" d="M269,386.42a9,9,0,0,1-1.57.11l-4.28.09c-3.61.05-8.61.08-14.13.08s-10.51,0-14.13-.08l-4.28-.09a9,9,0,0,1-1.57-.11,7.91,7.91,0,0,1,1.57-.11l4.28-.09c3.62-.05,8.61-.09,14.13-.09s10.52,0,14.13.09l4.28.09A7.91,7.91,0,0,1,269,386.42Z"/><path class="cls-9" d="M331.8,396.25c0,.16-23,.28-51.39.28s-51.39-.12-51.39-.28,23-.28,51.39-.28S331.8,396.09,331.8,396.25Z"/><path class="cls-9" d="M299.68,405.5c0,.15-15.82.28-35.33.28S229,405.65,229,405.5s15.82-.28,35.33-.28S299.68,405.34,299.68,405.5Z"/><path class="cls-6" d="M333.83,423.5l-3.19-3.2-3,3v-9.17h6.23Zm-3.19-3.6.1.1,2.81,2.82v-8.36h-5.67v8.2Z"/><path class="cls-6" d="M248.8,422.31l-1.13-.5a2.87,2.87,0,1,1,.87-.63Zm-2.64-6.1a2.92,2.92,0,0,0,.05,5.83,3.09,3.09,0,0,0,1.41-.45l0,0,.83.37-.19-.82,0,0a2.86,2.86,0,0,0,.76-2A2.91,2.91,0,0,0,246.16,416.21Z"/><path class="cls-6" d="M256,421.83l-1.29-3.16-2.42-2.2,5.87-.05Zm-3.16-5.15,2.06,1.89,1.1,2.69,1.85-4.62Z"/><rect class="cls-6" x="254.63" y="417.44" width="3.82" height="0.21" transform="translate(-186.23 207.51) rotate(-33.05)"/><path class="cls-7" d="M239.55,417.13a1.81,1.81,0,0,0-3.58.12,1.81,1.81,0,0,0-3.58-.07,2.44,2.44,0,0,0,.44,1.77,7.17,7.17,0,0,0,1.29,1.35L236,422c.65-.59,1.2-1.14,1.84-1.73a7.49,7.49,0,0,0,1.27-1.37A2.39,2.39,0,0,0,239.55,417.13Z"/><path class="cls-6" d="M340.37,431.61s0-.35,0-1,0-1.67,0-3c0-2.63,0-6.48,0-11.48,0-10-.06-24.52-.1-42.75l.18.18-173.81.1h0l.28-.28c0,20.23,0,39.86,0,58.22l-.27-.27,124.38.13,36.31.07,9.74,0,2.53,0h.86l-.83,0-2.49,0-9.69,0-36.24.08-124.57.13h-.27v-.28c0-18.36,0-38,0-58.22v-.29h.29l173.81.1h.19v.19c0,18.28-.08,32.85-.1,42.86,0,5,0,8.82,0,11.44,0,1.28,0,2.26,0,2.94S340.37,431.61,340.37,431.61Z"/><rect class="cls-2" x="178.5" y="378.43" width="38.49" height="48.15" transform="translate(-205.87 597.95) rotate(-89.67)"/><path class="cls-6" d="M221.93,383.39H221l-2.63,0H208.5l-34.72-.07.25-.25c-.06,11.46-.12,24.59-.19,38.49l-.27-.28h3.31l3.3,0,6.49,0,12.49.09,22.55.16-.24.23c.12-11.56.22-21.15.28-27.88.05-3.35.08-6,.11-7.81,0-.89,0-1.58,0-2.07s0-.73,0-.73,0,.22,0,.68,0,1.16,0,2c0,1.82,0,4.44,0,7.77,0,6.76,0,16.4,0,28v.23h-.23L199.16,422l-12.5-.07-6.48,0-3.3,0h-3.31c.24.26-.36-.34-.29-.29.09-13.89.17-27,.24-38.48v-.26h.25l34.89.33,9.81.12,2.58.05h.66Z"/><rect class="cls-5" x="180.89" y="380.12" width="33.65" height="44.77" transform="translate(-205.91 597.92) rotate(-89.67)"/><polygon class="cls-4" points="175.23 419.2 190.99 398.37 200.6 411.51 207.21 404.55 220 419.45 175.23 419.2"/><path class="cls-4" d="M204.8,395.89a3.53,3.53,0,1,1-3.51-3.55A3.53,3.53,0,0,1,204.8,395.89Z"/><path class="cls-6" d="M255,133.67a1.77,1.77,0,0,1-.51.06l-1.48.05-5.42.09c-4.58.06-10.9.09-17.89.09s-13.32,0-17.89-.09l-5.43-.09-1.47-.05a1.81,1.81,0,0,1-.52-.06,3.08,3.08,0,0,1,.52,0l1.47-.06,5.43-.09c4.57-.05,10.9-.08,17.89-.08s13.31,0,17.89.08l5.42.09,1.48.06A3,3,0,0,1,255,133.67Z"/><path class="cls-6" d="M326.1,346.47l-4.74-4.76-4.52,4.51,0-13.63,9.27,0Zm-4.74-5.35.15.15,4.18,4.19,0-12.44h-8.43l0,12.2Z"/><path class="cls-6" d="M205.61,345l-2.22-1a6.23,6.23,0,0,1-2.87.87,6.17,6.17,0,1,1,4.58-2.1Zm-5.18-12a5.74,5.74,0,1,0,.09,11.48,6,6,0,0,0,2.76-.87l.09-.05,1.64.73-.37-1.61.07-.08a5.73,5.73,0,0,0-4.28-9.6Z"/><path class="cls-6" d="M219.87,344.09l-2.54-6.21-4.77-4.34,11.56-.1ZM213.64,334l4.06,3.73,2.17,5.28,3.63-9.09Z"/><rect class="cls-6" x="217.1" y="335.46" width="7.52" height="0.42" transform="translate(-147.32 174.75) rotate(-33.05)"/><path class="cls-7" d="M187.42,334.83a3.58,3.58,0,0,0-7.06.24,3.57,3.57,0,0,0-7.05-.12,4.81,4.81,0,0,0,.88,3.48,14.41,14.41,0,0,0,2.53,2.65l3.76,3.35c1.27-1.16,2.35-2.25,3.62-3.41a13.79,13.79,0,0,0,2.49-2.69A4.84,4.84,0,0,0,187.42,334.83Z"/><circle class="cls-2" cx="186.36" cy="133.67" r="7.84"/><path class="cls-9" d="M323.14,301.47c0,.16-32.89.29-73.45.29s-73.46-.13-73.46-.29,32.88-.28,73.46-.28S323.14,301.32,323.14,301.47Z"/><path class="cls-9" d="M323.14,289.24c0,.16-32.89.28-73.45.28s-73.46-.12-73.46-.28,32.88-.28,73.46-.28S323.14,289.08,323.14,289.24Z"/><path class="cls-9" d="M256.2,313.87c0,.16-17.91.28-40,.28s-40-.12-40-.28,17.9-.28,40-.28S256.2,313.71,256.2,313.87Z"/><path class="cls-6" d="M246.33,447.16a3.12,3.12,0,1,1-3.11-3.18A3.14,3.14,0,0,1,246.33,447.16Z"/><path class="cls-6" d="M256,447.2a3.12,3.12,0,1,1-3.11-3.18A3.14,3.14,0,0,1,256,447.2Z"/><path class="cls-6" d="M265.67,447.25a3.12,3.12,0,1,1-3.11-3.18A3.14,3.14,0,0,1,265.67,447.25Z"/><rect class="cls-5" x="167.59" y="149.2" width="173.83" height="106.3"/><polygon class="cls-4" points="183.64 255.52 233.45 188.85 264.33 230.54 285.26 208.25 326.31 255.48 183.64 255.52"/><path class="cls-4" d="M277.42,180.67a11.24,11.24,0,1,1-11.24-11.23A11.23,11.23,0,0,1,277.42,180.67Z"/><path class="cls-6" d="M341,354.3c0-2.28-.11-98.31-.26-240.47l.26.26-173.81,0h0l.29-.28c0,89.93,0,173.15-.06,240.47l-.23-.23L341,354.3l-173.83.23h-.23v-.23c0-67.32,0-150.54,0-240.47v-.28h.3l173.81,0h.26v.26c-.06,71.15-.1,131.29-.13,173.66,0,21.15-.05,37.86-.07,49.29,0,5.7,0,10.08,0,13.05,0,1.47,0,2.59,0,3.34S341,354.3,341,354.3Z"/><path class="cls-10" d="M259.27,384.13l3.85-12.93c.67-2.8,1.56-6.1,2.76-9.87,1.08-3.39,3.84-7,6.36-9.52,3.93-4,5.79-4,8.43-6.14.24-.15.51-.37.74-.5a4.08,4.08,0,0,0,1.28-1.11c2.27-2.45.09-6.26-4.53-5.9-3.47.27-9.14,1.27-18.36,10.78-.12.14-.24.26-.35.41-4.84,6.29-9.38-11.66-10.2-18.35a7,7,0,0,0-9.47-5.43l-22.45,10.51a10.41,10.41,0,0,0-6.56.22,6.67,6.67,0,0,0-4.28,7.92l9.11,36.36-26.75,89h57.66Z"/><path class="cls-7" d="M303.57,302.38,285.74,337.3l-8.91-2.47L232,371.27a9.07,9.07,0,0,1-12.6-1.13l-17.06-19.81s34.39-14.82,40.75-27.08-1-15.05-1-15.05l16.19-18.39Z"/><path class="cls-7" d="M280.45,231s-26.09-5.77-62.81-41.08-54-82.19-58.46-82-24.11-8.88-61.43,72.3-22.62,100-15.2,99.89S140.41,266,171.9,269.55s72,20,72,20Z"/><path class="cls-7" d="M335.87,275.28,327,292.2l-4,7.58a22.08,22.08,0,0,1-28.79,9.78l-55.92-19.48,32.57-74.35,55.87,29.78A22.08,22.08,0,0,1,335.87,275.28Z"/><g class="cls-11"><path d="M335.87,275.28,327,292.2l-4,7.58a22.08,22.08,0,0,1-28.79,9.78l-55.92-19.48,32.57-74.35,55.87,29.78A22.08,22.08,0,0,1,335.87,275.28Z"/></g><path class="cls-7" d="M100.76,181.77c-19.86,44-28.13,83.17-18.46,87.53s33.59-27.75,53.46-71.72,28.12-83.17,18.46-87.53S120.63,137.79,100.76,181.77Z"/><g class="cls-12"><path d="M100.76,181.77c-19.86,44-28.13,83.17-18.46,87.53s33.59-27.75,53.46-71.72,28.12-83.17,18.46-87.53S120.63,137.79,100.76,181.77Z"/></g><polygon class="cls-7" points="340.67 299.73 325.51 294.97 334.89 277.14 346.26 284.2 340.67 299.73"/><g class="cls-1"><polygon points="334.89 277.14 325.51 294.97 328.63 295.95 336.25 277.98 334.89 277.14"/></g><path class="cls-7" d="M324.45,281.25c-.22.49-7.79-2.45-16.89-6.56s-16.32-7.86-16.1-8.35,7.79,2.45,16.9,6.57S324.67,280.76,324.45,281.25Z"/><path class="cls-7" d="M329.11,270.63c-.24.48-7.08-2.4-15.29-6.44s-14.67-7.71-14.43-8.19,7.08,2.4,15.29,6.44S329.35,270.15,329.11,270.63Z"/><path class="cls-7" d="M318.57,292.39c-.08.26-1.88-.15-4.75-1-1.44-.44-3.14-1-5-1.66s-3.81-1.65-5.88-2.6c-8.3-3.85-14.63-7.61-14.42-8.06s7,2.48,15.23,6.29c2.06.94,4,2,5.77,2.72s3.43,1.41,4.79,2C317,291.26,318.65,292.14,318.57,292.39Z"/><path class="cls-7" d="M141.26,172s-22.68-14.06-35.09,16.58,11.46,35.67,11.46,35.67A204.35,204.35,0,0,0,141.26,172Z"/><g class="cls-12"><path d="M165.37,135.48c.14,0-.19,2.1-.89,5.85s-1.73,9.18-3.18,15.85l-3.13,10.72q-.85,2.9-1.76,6-.47,1.53-.93,3.12c-.34,1-.78,2.07-1.17,3.13-1.64,4.21-3.35,8.64-5.13,13.22-.44,1.14-.89,2.3-1.35,3.46s-1.06,2.28-1.59,3.43l-3.37,6.95-3.38,6.94c-.58,1.13-1.06,2.31-1.71,3.38l-1.89,3.2-7.22,12.2c-.59,1-1.13,2-1.74,2.86L125,238.44l-3.61,5.08c-2.33,3.26-4.5,6.31-6.5,9.1-4.33,5.25-8,9.4-10.47,12.27s-3.95,4.41-4,4.33,1.14-1.8,3.47-4.81l10-12.66,6.26-9.17c1.12-1.65,2.29-3.35,3.49-5.1.61-.87,1.22-1.76,1.84-2.66s1.11-1.89,1.69-2.86c2.25-3.88,4.62-8,7.08-12.17.61-1.06,1.23-2.12,1.86-3.2s1.11-2.23,1.68-3.35l3.35-6.9,3.35-6.9c.53-1.14,1.16-2.23,1.6-3.39l1.36-3.44,5.19-13.09c.4-1.05.85-2.06,1.2-3.09s.65-2.08,1-3.09c.64-2,1.25-4,1.85-5.91,1.2-3.8,2.31-7.35,3.34-10.6,1.57-6.53,2.86-11.85,3.77-15.65S165.24,135.46,165.37,135.48Z"/></g><g class="cls-11"><path d="M207.81,347.89c2.06,3.76,4.18,7.57,7.24,10.57s7.26,5.13,11.53,4.7,8.3-4,8.35-8.26c2,1.54,5.18.71,6.88-1.21s2.25-4.59,2.45-7.14c2.78,1.64,6.65.34,8.5-2.3s2-6.2,1.08-9.3a32.47,32.47,0,0,0-4.47-8.55c2.14.17,4.41.32,6.33-.65s3.2-3.51,2.09-5.34a5.35,5.35,0,0,0-3.12-2c-3.36-1.05-5.71-1.89-9.2-1.48-.81,0,1.39,9.21-20.53,21.8C212,346.17,207.81,347.89,207.81,347.89Z"/></g><path class="cls-13" d="M257.17,361.19c0,.1-1.47-.18-3.84-.11a21.68,21.68,0,0,0-16.11,7.72c-1.53,1.8-2.22,3.12-2.31,3.07a3.47,3.47,0,0,1,.43-1,16.57,16.57,0,0,1,1.57-2.36,20.49,20.49,0,0,1,16.42-7.87,16.82,16.82,0,0,1,2.83.25A3.51,3.51,0,0,1,257.17,361.19Z"/><path class="cls-10" d="M209.23,342.05c3.54,3.4,6,7.14,9.66,10.56,1.68,1.55,4.29,4.49,6.55,4.88s3.7.09,4.59-2c.73-1.71-.57-4.05-1.47-5.45-2.36-3.7-4.62-6.6-6.38-9.48-.83-1.34.24-1.62.63-1,1.7,1.76,4.24,3.29,5.76,5.21,2.09,2.63,2.46,6.1,7.92,5a4.76,4.76,0,0,0,2-.84c2.06-1.57,2.14-4.3,1.28-6.49a17.93,17.93,0,0,0-3-4.6c2.32,2.63,4.86,5.39,8.55,5.68a5.07,5.07,0,0,0,5.17-2.79c1.09-2.48-.47-4.88-2.05-6.82a70.3,70.3,0,0,0-9.27-9.47,7.07,7.07,0,0,0-4.5-1.67c-1.91,0-4.3.35-5.48,2a7.41,7.41,0,0,0-1.48,5.68s-4.79-2.43-8.64.11a12.19,12.19,0,0,0-4.8,6.9Z"/><path class="cls-10" d="M234.72,321.71a5.75,5.75,0,0,1-.68-6.48c.81-1.6,1.84-3.15,2.88-3.5,4.56-1.54,24.46,1.91,24.28,6.32s-1.63,6.54-12.44,5c-1.9-.28-4.88-.65-4.88-.65l-2.6,3.91Z"/><path class="cls-13" d="M238.28,340.2c-.16.1-1.67-3-4.76-5.76s-6.29-4-6.21-4.18a6.34,6.34,0,0,1,2.11.74,19.21,19.21,0,0,1,4.48,3,19,19,0,0,1,3.44,4.16A6.29,6.29,0,0,1,238.28,340.2Z"/><path class="cls-13" d="M241.63,326.63c-.1.09-1.41-1-3.2-2.08a21.09,21.09,0,0,0-2.34-1.28c-.61-.29-1-.37-1-.46s.47-.13,1.16.08a10.89,10.89,0,0,1,2.49,1.18C240.56,325.2,241.76,326.51,241.63,326.63Z"/><path class="cls-13" d="M245,322.52a8.58,8.58,0,0,1-3.83-.43,7.15,7.15,0,0,1-2.45-1.28c-.55-.47-.78-.86-.72-.9a15.85,15.85,0,0,0,3.34,1.64C243.28,322.12,245,322.34,245,322.52Z"/><path class="cls-13" d="M225.63,345.67a13.24,13.24,0,0,1-1.82-2.36,21.28,21.28,0,0,0-4.64-5.28,9.38,9.38,0,0,0-6.58-1.74,11.6,11.6,0,0,0-2.77.88s.19-.23.63-.5a6.36,6.36,0,0,1,2.07-.78,9.32,9.32,0,0,1,7,1.68,19.17,19.17,0,0,1,4.65,5.52A18.81,18.81,0,0,1,225.63,345.67Z"/><path class="cls-13" d="M240.85,389.69a58.58,58.58,0,0,1-8.13,1.17,61.36,61.36,0,0,1-8.2.61,59.21,59.21,0,0,1,8.14-1.17A61.35,61.35,0,0,1,240.85,389.69Z"/><polygon class="cls-7" points="412.08 28.21 413.31 30.46 415.55 31.68 413.31 32.91 412.08 35.15 410.85 32.91 408.61 31.68 410.85 30.46 412.08 28.21"/><polygon class="cls-7" points="437.73 83.83 438.96 86.07 441.2 87.3 438.96 88.53 437.73 90.77 436.51 88.53 434.26 87.3 436.51 86.07 437.73 83.83"/><polygon class="cls-7" points="26.52 232.22 27.75 234.46 29.99 235.69 27.75 236.91 26.52 239.16 25.29 236.91 23.05 235.69 25.29 234.46 26.52 232.22"/><polygon class="cls-7" points="378.42 42.04 381.25 47.22 386.43 50.05 381.25 52.88 378.42 58.06 375.58 52.88 370.4 50.05 375.58 47.22 378.42 42.04"/><polygon class="cls-7" points="49.52 196.96 52.34 202.13 57.51 204.96 52.34 207.78 49.52 212.95 46.69 207.78 41.52 204.96 46.69 202.13 49.52 196.96"/><polygon class="cls-7" points="444.71 320.29 447.54 325.46 452.71 328.29 447.54 331.11 444.71 336.28 441.89 331.11 436.72 328.29 441.89 325.46 444.71 320.29"/></g></g></g></svg>