<svg xmlns="http://www.w3.org/2000/svg" viewBox="0 0 500 370.2"><defs><style>.cls-1{opacity:0.3;}.cls-2{fill:#4169e1;}</style></defs><g id="Layer_2" data-name="Layer 2"><g id="Layer_1-2" data-name="Layer 1"><g class="cls-1"><path class="cls-2" d="M250,0A398.17,398.17,0,0,0,0,88l31.1,31.1a355.45,355.45,0,0,1,437.8,0L500,88A398.17,398.17,0,0,0,250,0Z"/><path class="cls-2" d="M67.3,155.3l31.3,31.3a260.56,260.56,0,0,1,302.8,0l31.3-31.3a304.9,304.9,0,0,0-365.4,0Z"/><path class="cls-2" d="M135.1,223.1l31.7,31.7a166.63,166.63,0,0,1,166.2,0l31.7-31.7a209.78,209.78,0,0,0-229.6,0Z"/><circle class="cls-2" cx="250" cy="326" r="44.2"/></g></g></g></svg>