<svg xmlns="http://www.w3.org/2000/svg" viewBox="0 0 324.66 82.87"><defs><style>.cls-1{fill:#fff;}</style></defs><g id="Layer_2" data-name="Layer 2"><g id="Layer_1-2" data-name="Layer 1"><path class="cls-1" d="M120,5.34A23.55,23.55,0,1,1,96.47,29,23.51,23.51,0,0,1,120,5.34Zm0,38.6a15,15,0,1,0-15-15A15.08,15.08,0,0,0,120,43.94Z"/><path class="cls-1" d="M145.28,49.89l8.5-11.45-8.24-10.92a1.15,1.15,0,0,1,1-1.9H152a2.24,2.24,0,0,1,2.16.92l4.25,6.15h.07l4.32-6.15a2.06,2.06,0,0,1,2-.92h5.89c1.11,0,1.43,1.05.78,1.9l-8.24,10.86,8.31,11.51c.58.85.26,1.9-.79,1.9H164.9a2.08,2.08,0,0,1-1.83-1l-4.64-6.54h-.07l-5,7.07a1.63,1.63,0,0,1-1,.52h-6.28C145,51.79,144.69,50.74,145.28,49.89Z"/><path class="cls-1" d="M175.5,7.24A1.29,1.29,0,0,1,176.75,6h5.56a1.29,1.29,0,0,1,1.24,1.24V26.15A15.65,15.65,0,0,1,189.37,25c7.79,0,12.95,6.08,12.95,13.74s-5.43,13.73-12.56,13.73a11.5,11.5,0,0,1-8.57-3.92l-.65,2c-.2.72-.65,1.24-1.24,1.24h-2.55a1.29,1.29,0,0,1-1.25-1.24Zm13.28,38.14c3.47,0,6-3,6-6.67A6.44,6.44,0,0,0,188.39,32a8.43,8.43,0,0,0-5.1,1.51v7.59A5.7,5.7,0,0,0,188.78,45.38Z"/><path class="cls-1" d="M206.58,26.87a1.25,1.25,0,0,1,1.24-1.25h2.49a1.19,1.19,0,0,1,1.17.85L212.4,29A9.16,9.16,0,0,1,219.79,25c3.08,0,5.83,1,5,2.61l-2.42,4.26a1.16,1.16,0,0,1-1.5.59A6.93,6.93,0,0,0,219,32a5.3,5.3,0,0,0-4.65,2.69V50.55c0,.91-.59,1.24-1.5,1.24h-5a1.29,1.29,0,0,1-1.24-1.24Z"/><path class="cls-1" d="M226.66,11.82a4.47,4.47,0,0,1,4.45-4.52,4.52,4.52,0,1,1,0,9A4.47,4.47,0,0,1,226.66,11.82Zm.59,15.05a1.25,1.25,0,0,1,1.24-1.25h5.43a1.25,1.25,0,0,1,1.25,1.25V50.55a1.29,1.29,0,0,1-1.25,1.24h-5.43a1.29,1.29,0,0,1-1.24-1.24Z"/><path class="cls-1" d="M252.37,25a15.61,15.61,0,0,1,5.82,1.18V7.24A1.29,1.29,0,0,1,259.44,6H265a1.29,1.29,0,0,1,1.24,1.24V50.55A1.29,1.29,0,0,1,265,51.79h-2.55c-.59,0-1.05-.52-1.25-1.24l-.65-2A11.47,11.47,0,0,1,252,52.44c-7.13,0-12.56-6.21-12.56-13.73S244.59,25,252.37,25ZM253,45.38a5.7,5.7,0,0,0,5.5-4.25V33.54A8.48,8.48,0,0,0,253.35,32,6.43,6.43,0,0,0,247,38.71C247,42.37,249.49,45.38,253,45.38Z"/><path class="cls-1" d="M274.62,42.5a9.73,9.73,0,0,1-2-6.15A11.39,11.39,0,0,1,284,25h11.9a1.21,1.21,0,0,1,1.25,1.24v2.16a1.15,1.15,0,0,1-.72,1.11l-3.67,1.18s2.62,2,2.62,6.67c0,5.17-4.32,10.27-11.19,10.27-2.48,0-4.18-.52-5.23-.52a2.6,2.6,0,0,0-2.42,2.49,2.36,2.36,0,0,0,2.62,2.22h8.37c5.95,0,10.79,3.4,10.79,9.16,0,6-4.84,11.12-14.32,11.12-9.69,0-13.35-4.78-13.35-9,0-3.93,3.27-5.82,3.93-6.22V56.7a7.08,7.08,0,0,1-4.91-6.87C269.71,44.72,274.62,42.5,274.62,42.5Zm9.35,23c3.67,0,6.09-1.64,6.09-4.12,0-1.18-.92-3.21-4.78-3.21a31.2,31.2,0,0,0-4.25.26c-.79.26-2.82,1.18-2.82,3.21C278.21,64,280.44,65.53,284,65.53Zm.26-24.14a4.41,4.41,0,0,0,4.52-4.71A4.41,4.41,0,0,0,284.23,32a4.51,4.51,0,0,0-4.58,4.71A4.51,4.51,0,0,0,284.23,41.39Z"/><path class="cls-1" d="M312.43,25a12,12,0,0,1,12.23,12.17,15,15,0,0,1-.13,1.76A1.25,1.25,0,0,1,323.29,40H306.54a6.25,6.25,0,0,0,6.28,5.7,9.07,9.07,0,0,0,5.1-1.64c.66-.39,1.25-.52,1.71,0l2.68,3.08a1.07,1.07,0,0,1-.07,1.7,14.11,14.11,0,0,1-9.75,3.59c-7.85,0-13.41-6.21-13.41-13.73S304.64,25,312.43,25ZM317,35.44A4.88,4.88,0,0,0,312.23,31a5.16,5.16,0,0,0-5.1,4.45Z"/><path class="cls-1" d="M104,60.75a.56.56,0,0,1,.54-.56h6.64a10.38,10.38,0,1,1,0,20.75h-6.64a.56.56,0,0,1-.54-.56Zm6.7,18.14a8.35,8.35,0,1,0,0-16.69h-4.45V78.89Z"/><path class="cls-1" d="M128.39,60.75a.58.58,0,0,1,.56-.56h1.19a.59.59,0,0,1,.56.56V80.38a.59.59,0,0,1-.56.56H129a.58.58,0,0,1-.56-.56Z"/><path class="cls-1" d="M148.16,59.89a10.41,10.41,0,0,1,7.17,2.76.57.57,0,0,1,0,.83c-.26.27-.59.56-.83.83s-.44.27-.77,0A9,9,0,0,0,148.13,62a8.54,8.54,0,0,0,0,17.07,11.22,11.22,0,0,0,5.34-1.24V73.65h-3.41a.55.55,0,0,1-.57-.54V72a.55.55,0,0,1,.57-.57h5.13a.56.56,0,0,1,.53.57v6.79a.74.74,0,0,1-.24.47,14.59,14.59,0,0,1-7.32,2,10.68,10.68,0,1,1,0-21.35Z"/><path class="cls-1" d="M162.89,60.75a.59.59,0,0,1,.57-.56h1.18a.58.58,0,0,1,.56.56V80.38a.58.58,0,0,1-.56.56h-1.18a.59.59,0,0,1-.57-.56Z"/><path class="cls-1" d="M176.41,62.17h-5.16a.55.55,0,0,1-.56-.56v-.86a.56.56,0,0,1,.56-.56h12.57a.56.56,0,0,1,.56.56v.86a.55.55,0,0,1-.56.56h-5.16V80.38a.58.58,0,0,1-.56.56H177a.59.59,0,0,1-.56-.56Z"/><path class="cls-1" d="M185.89,80.17l9-20a.52.52,0,0,1,.5-.33h.3a.54.54,0,0,1,.5.33l8.95,20a.52.52,0,0,1-.5.77h-1.19a.55.55,0,0,1-.5-.33l-2.19-4.89H190.25l-2.16,4.89a.55.55,0,0,1-.51.33H186.4A.53.53,0,0,1,185.89,80.17ZM200,73.88c-1.46-3.23-2.88-6.49-4.33-9.72h-.24l-4.33,9.72Z"/><path class="cls-1" d="M210.62,60.75a.56.56,0,0,1,.56-.56h1.16a.59.59,0,0,1,.56.56V79h8.54a.57.57,0,0,1,.56.57v.86a.57.57,0,0,1-.56.56H211.18a.56.56,0,0,1-.56-.56Z"/><path class="cls-1" d="M30.06,35.39V49.48l12.2,7,12.2-7V35.39l-12.2-7Zm20.13,2.47V47l-4,2.29-4,2.29-4-2.29-4-2.29V37.86l4-2.29,4-2.29,4,2.29Z"/><path class="cls-1" d="M63.64,6.45V54.78L42.26,67.12,20.88,54.78V30.09L42.26,17.75l12.2,7V2.09a41.48,41.48,0,1,0,9.18,4.36Z"/></g></g></svg>