<svg xmlns="http://www.w3.org/2000/svg" viewBox="0 0 271.98 52.13"><defs><style>.cls-1{fill:#2a3173;}.cls-2{fill:#845080;}.cls-3{fill:none;stroke:#2a3173;stroke-miterlimit:10;stroke-width:0.45px;}.cls-4{fill:#22418c;}.cls-5{fill:#a0be5c;}.cls-6{fill:#fafbfb;}.cls-7{fill:#fafbfd;}.cls-8{fill:#f7fafd;}.cls-9{fill:#211f20;}.cls-10{fill:#211e20;}.cls-11{fill:#201d1e;}.cls-12{fill:#222021;}.cls-13{fill:#221e1f;}.cls-14{fill:#8d8c8c;}.cls-15{fill:#211e1f;}.cls-16{fill:#221f1f;}.cls-17{fill:#999899;}.cls-18{fill:#211f1f;}.cls-19{fill:#1d1d1d;}.cls-20{fill:#1e1c1d;}.cls-21{fill:#20201f;}.cls-22{fill:#23418a;}.cls-23{fill:#989c9a;}.cls-24{fill:#221f1e;}.cls-25{fill:#201d1f;}.cls-26{fill:#241d1e;}.cls-27{fill:#1f1e1f;}.cls-28{fill:#343434;}.cls-29{fill:#6a6869;}.cls-30{fill:#201f20;}.cls-31{fill:#1f1f1f;}.cls-32{fill:#2e2e2e;}.cls-33{fill:#333;}.cls-34{fill:#20428c;}</style></defs><g id="Layer_2" data-name="Layer 2"><g id="Layer_1-2" data-name="Layer 1"><path class="cls-1" d="M80.77,21.79a1.41,1.41,0,0,1,.31-.91,1.16,1.16,0,0,1,.92-.36h3.45a1.35,1.35,0,0,1,.47.09,1.32,1.32,0,0,1,.42.27,1.53,1.53,0,0,1,.31.41,1,1,0,0,1,.13.5V45.67c0,.83-.44,1.25-1.31,1.25H82a1.11,1.11,0,0,1-1.25-1.25Z"/><path class="cls-2" d="M111.29,40a1.61,1.61,0,0,1,.59-.28,1.68,1.68,0,0,1,.4-.06.81.81,0,0,1,.61.38l.5.68,1.47,2.1a1.52,1.52,0,0,1,.17.3.83.83,0,0,1,.06.28.9.9,0,0,1-.23.6,3.63,3.63,0,0,1-.6.53,16.64,16.64,0,0,1-3.82,2.08,12.51,12.51,0,0,1-4.5.79,13.33,13.33,0,0,1-3.58-.49,14.15,14.15,0,0,1-3.24-1.37,13.88,13.88,0,0,1-2.76-2.12,14,14,0,0,1-2.15-2.76,13.55,13.55,0,0,1,0-13.8,14,14,0,0,1,2.15-2.76A13.88,13.88,0,0,1,99.12,22a14.15,14.15,0,0,1,3.24-1.37A13.48,13.48,0,0,1,114,22.74l0,0a4.36,4.36,0,0,0,.57.51.8.8,0,0,1,.28.68c0,.08,0,.18,0,.29a.63.63,0,0,1-.12.31l-1.7,2.6a1.15,1.15,0,0,1-.91.62,1.33,1.33,0,0,1-.79-.35,9.07,9.07,0,0,0-2.48-1.46,7.88,7.88,0,0,0-2.91-.56,7,7,0,0,0-3,.68,8.24,8.24,0,0,0-2.51,1.83,8.56,8.56,0,0,0-1.7,2.68,8.57,8.57,0,0,0,1.69,9.09,8,8,0,0,0,2.51,1.78,7.17,7.17,0,0,0,3,.65,7,7,0,0,0,3.06-.61A12.39,12.39,0,0,0,111.29,40"/><path class="cls-1" d="M141.05,44a14.9,14.9,0,0,1-4,2.45,12.35,12.35,0,0,1-4.77.89A13.48,13.48,0,0,1,127,46.29a13.91,13.91,0,0,1-7.41-7.24,13,13,0,0,1-1.11-5.35,13.8,13.8,0,0,1,1.75-6.81,13.46,13.46,0,0,1,2-2.76A13,13,0,0,1,124.93,22a13.28,13.28,0,0,1,6.89-1.87,12.64,12.64,0,0,1,3.12.39,13.29,13.29,0,0,1,2.92,1.09,13.82,13.82,0,0,1,2.59,1.71,13.07,13.07,0,0,1,2.12,2.28,12.38,12.38,0,0,1,1.83,3.76A16.08,16.08,0,0,1,145,33.8a9.29,9.29,0,0,1,0,1,1.24,1.24,0,0,1-.26.65,1.22,1.22,0,0,1-.63.37,4.87,4.87,0,0,1-1.16.11H124.44a7.13,7.13,0,0,0,1,2.65,8.24,8.24,0,0,0,1.8,2,7.62,7.62,0,0,0,2.27,1.2,7.73,7.73,0,0,0,2.45.41,8.21,8.21,0,0,0,1.8-.19,9,9,0,0,0,3-1.22,8.47,8.47,0,0,0,1.11-.84l0,0a3.33,3.33,0,0,1,.48-.36.92.92,0,0,1,.48-.14.91.91,0,0,1,.43.13,1.43,1.43,0,0,1,.46.41l1,1.15c.26.3.48.56.64.77a2.75,2.75,0,0,1,.37.54,1.06,1.06,0,0,1,.11.45,1.56,1.56,0,0,1-.79,1.17m-9.23-18.75a6.62,6.62,0,0,0-2.39.45,8,8,0,0,0-2.13,1.21,8.52,8.52,0,0,0-1.68,1.81A7.23,7.23,0,0,0,124.57,31h14.71a7.91,7.91,0,0,0-1-2.32,7.63,7.63,0,0,0-1.63-1.81,7.22,7.22,0,0,0-2.19-1.18,8.3,8.3,0,0,0-2.64-.41"/><path class="cls-1" d="M83.62,13.47H81.8A8,8,0,0,0,82,15.05c.46,0,1-.06,1.64-.07Z"/><path class="cls-1" d="M85.5,11.27a4.84,4.84,0,0,0-.41-1.09,2.72,2.72,0,0,0-.66-.87,1.51,1.51,0,0,0-.34-.2h-.16v2.23c.6,0,1.12,0,1.57-.07"/><path class="cls-1" d="M81.8,13.16h1.82V11.65c-.63,0-1.18,0-1.64-.08a8.15,8.15,0,0,0-.18,1.59"/><path class="cls-1" d="M81.5,13.16a9.56,9.56,0,0,1,.17-1.62,9.13,9.13,0,0,1-1.58-.28,4.27,4.27,0,0,0-.53,1.9Z"/><path class="cls-1" d="M81.74,11.24a7.14,7.14,0,0,1,.4-1.1,3.29,3.29,0,0,1,.62-.91,4.22,4.22,0,0,0-2,1.15,4,4,0,0,0-.49.61,10,10,0,0,0,1.48.25"/><path class="cls-1" d="M82.05,15.36a5.37,5.37,0,0,0,.41,1.09,2.83,2.83,0,0,0,.66.87,1.16,1.16,0,0,0,.34.19h.16V15.29c-.6,0-1.12,0-1.57.07"/><path class="cls-1" d="M82.19,16.59a6,6,0,0,1-.45-1.21,9.68,9.68,0,0,0-1.48.26,4.18,4.18,0,0,0,2.5,1.76,3.11,3.11,0,0,1-.57-.81"/><path class="cls-1" d="M81.5,13.47H79.56a4.31,4.31,0,0,0,.53,1.9,9.9,9.9,0,0,1,1.58-.29,9.34,9.34,0,0,1-.17-1.61"/><path class="cls-1" d="M83.93,15c.63,0,1.18,0,1.64.07a8,8,0,0,0,.18-1.58H83.93Z"/><path class="cls-1" d="M84.09,17.51a2.22,2.22,0,0,0,1-1.15,5.71,5.71,0,0,0,.36-1c-.45,0-1-.06-1.57-.06v2.23h.16"/><path class="cls-1" d="M85.36,10a5.52,5.52,0,0,1,.45,1.2A10,10,0,0,0,87.29,11a4.23,4.23,0,0,0-.58-.7,4.17,4.17,0,0,0-1.92-1.06,3.11,3.11,0,0,1,.57.81"/><path class="cls-1" d="M82.41,10.27a6.5,6.5,0,0,0-.36,1c.45,0,1,.07,1.57.07V9.11h-.16a2.18,2.18,0,0,0-1,1.15"/><path class="cls-1" d="M86.05,13.16H88a4.27,4.27,0,0,0-.53-1.9,9.13,9.13,0,0,1-1.58.28,9.56,9.56,0,0,1,.17,1.62"/><path class="cls-1" d="M83.93,11.65v1.51h1.82a8.06,8.06,0,0,0-.18-1.59c-.46,0-1,.07-1.64.08"/><path class="cls-1" d="M86.05,13.47a8.45,8.45,0,0,1-.17,1.61,9.9,9.9,0,0,1,1.58.29,4.31,4.31,0,0,0,.53-1.9Z"/><path class="cls-1" d="M85.81,15.38a6.05,6.05,0,0,1-.4,1.11,3.29,3.29,0,0,1-.62.91,4.16,4.16,0,0,0,2-1.16,3.9,3.9,0,0,0,.49-.6,9.68,9.68,0,0,0-1.48-.26"/><path class="cls-1" d="M154.53,23.51a.19.19,0,0,1,.05-.13.18.18,0,0,1,.15-.05H155a.23.23,0,0,1,.14,0,.24.24,0,0,1,.05.14V31a.17.17,0,0,1-.19.19h-.27c-.13,0-.2-.06-.2-.19Z"/><path class="cls-1" d="M157,24.69a.19.19,0,0,1,.06-.15.2.2,0,0,1,.14-.05h.21a.19.19,0,0,1,.15.06.22.22,0,0,1,.05.14v.77a2.31,2.31,0,0,1,.51-.56,2.66,2.66,0,0,1,.58-.34,2.78,2.78,0,0,1,.59-.17,3.62,3.62,0,0,1,.54,0,2.72,2.72,0,0,1,1.11.22,2.57,2.57,0,0,1,.85.6,3.15,3.15,0,0,1,.55.9,3.24,3.24,0,0,1,.19,1.09v3.75a.21.21,0,0,1-.06.17.2.2,0,0,1-.15.06h-.19a.2.2,0,0,1-.16-.05.26.26,0,0,1-.05-.17V27.14a2.48,2.48,0,0,0-.16-.8,2.43,2.43,0,0,0-.41-.7,2,2,0,0,0-.66-.49,2.11,2.11,0,0,0-.89-.19,2.22,2.22,0,0,0-.8.15,2.22,2.22,0,0,0-1.19,1.07,2.08,2.08,0,0,0-.2.84V31c0,.12-.06.17-.16.17h-.28c-.11,0-.16-.05-.16-.17V29.52s0,0,0-.06Z"/><path class="cls-1" d="M166.13,30.89v.19a.11.11,0,0,1,0,.08l-.09,0-.11,0h-.09a1.9,1.9,0,0,1-.54-.07,1.2,1.2,0,0,1-.45-.23,1.07,1.07,0,0,1-.3-.41,1.42,1.42,0,0,1-.11-.61V25h-.91c-.06,0-.11,0-.13,0a.14.14,0,0,1-.05-.12v-.25a.14.14,0,0,1,.05-.12.21.21,0,0,1,.13,0h.91V22.82a.09.09,0,0,1,0-.08l.05,0s0,0,0,0l.1,0,.12,0,.09,0c.07,0,.12,0,.14.06a.26.26,0,0,1,0,.14v1.69h1.18c.12,0,.17.05.17.17v.21c0,.12-.05.18-.17.18H165v4.45c0,.15,0,.3,0,.43a1.2,1.2,0,0,0,.08.36.57.57,0,0,0,.16.25.46.46,0,0,0,.29.09h.13l.24,0a.32.32,0,0,1,.13.05.18.18,0,0,1,.06.09s0,.08,0,.13Z"/><path class="cls-1" d="M167.41,28c0,.06,0,.14,0,.24a1.35,1.35,0,0,0,0,.29,3.13,3.13,0,0,0,.39.85,2.79,2.79,0,0,0,.61.67,2.71,2.71,0,0,0,.78.44,3.06,3.06,0,0,0,1.44.11,3,3,0,0,0,.45-.12,2.87,2.87,0,0,0,.4-.18,2.64,2.64,0,0,0,.35-.23A.38.38,0,0,0,172,30l.11-.08.09-.07a.16.16,0,0,1,.09,0,.17.17,0,0,1,.09.07l.13.2a.19.19,0,0,1,0,.1.05.05,0,0,1,0,0,.07.07,0,0,1,0,.06.64.64,0,0,1-.14.15,2,2,0,0,1-.2.16,3.8,3.8,0,0,1-.92.47,3.14,3.14,0,0,1-1.08.17,3.29,3.29,0,0,1-1.33-.27,3.49,3.49,0,0,1-1.1-.74,3.36,3.36,0,0,1-.75-1.1,3.3,3.3,0,0,1-.28-1.33,3.46,3.46,0,0,1,.12-.92,3.83,3.83,0,0,1,.35-.83,3.23,3.23,0,0,1,.53-.7,3.35,3.35,0,0,1,.7-.54,3.39,3.39,0,0,1,.83-.35,3.59,3.59,0,0,1,.93-.12,3.29,3.29,0,0,1,.89.11,3.34,3.34,0,0,1,.81.32,3.42,3.42,0,0,1,.69.51,3.57,3.57,0,0,1,.54.69,3.81,3.81,0,0,1,.36.85,4.46,4.46,0,0,1,.14,1h0v0h0c0,.13-.06.18-.17.18Zm2.06-3a2.52,2.52,0,0,0-.75.33,2.9,2.9,0,0,0-.62.54,3.52,3.52,0,0,0-.44.69,2.51,2.51,0,0,0-.25.79H173a2.51,2.51,0,0,0-.31-1,2.9,2.9,0,0,0-1.49-1.3,2.81,2.81,0,0,0-1-.18,2,2,0,0,0-.35,0,2.9,2.9,0,0,0-.41.08"/><path class="cls-1" d="M179.18,25.58l-.06,0a.18.18,0,0,1-.09,0l-.13-.08-.26-.16-.31-.15a2,2,0,0,0-.34-.12,1.24,1.24,0,0,0-.33,0,2.19,2.19,0,0,0-.77.14,2.13,2.13,0,0,0-.62.4,1.87,1.87,0,0,0-.42.64,2.06,2.06,0,0,0-.16.84V31c0,.11-.06.16-.17.16h-.28c-.11,0-.17-.05-.17-.16V24.66c0-.09.05-.14.15-.14s0,0,0,0h.26a.2.2,0,0,1,.14.05.24.24,0,0,1,.05.14v.86a1.76,1.76,0,0,1,.29-.4,1.82,1.82,0,0,1,.42-.36,1.93,1.93,0,0,1,.54-.26,1.91,1.91,0,0,1,.64-.1,4.12,4.12,0,0,1,.51,0,3.15,3.15,0,0,1,.44.11,3,3,0,0,1,.41.19,4,4,0,0,1,.39.27.38.38,0,0,1,.09.09.14.14,0,0,1,0,.11.26.26,0,0,1-.09.14l-.19.19"/><path class="cls-1" d="M180.88,24.69a.23.23,0,0,1,.05-.15.25.25,0,0,1,.15-.05h.21a.17.17,0,0,1,.14.06.17.17,0,0,1,0,.14v.77a2.31,2.31,0,0,1,.51-.56,2.92,2.92,0,0,1,.58-.34,2.86,2.86,0,0,1,.6-.17,3.44,3.44,0,0,1,.54,0,2.64,2.64,0,0,1,1.1.22,2.47,2.47,0,0,1,.85.6,2.76,2.76,0,0,1,.55.9,3,3,0,0,1,.19,1.09v3.75c0,.08,0,.14-.05.17a.2.2,0,0,1-.15.06H186a.22.22,0,0,1-.16-.05.27.27,0,0,1,0-.17V27.14a2.48,2.48,0,0,0-.16-.8,2.25,2.25,0,0,0-.42-.7,2,2,0,0,0-.66-.49,2.08,2.08,0,0,0-.89-.19,2.17,2.17,0,0,0-.79.15,2.2,2.2,0,0,0-.69.42,2.13,2.13,0,0,0-.5.65,1.93,1.93,0,0,0-.21.84V31c0,.12,0,.17-.16.17h-.27a.15.15,0,0,1-.17-.17V24.69Z"/><path class="cls-1" d="M194,30.09v-.4a3.24,3.24,0,0,1-.51.66,3.14,3.14,0,0,1-.66.49,3.29,3.29,0,0,1-.77.32,3.35,3.35,0,0,1-.85.11,3,3,0,0,1-.91-.13,3.18,3.18,0,0,1-.83-.35,3.45,3.45,0,0,1-1.24-1.24,3.47,3.47,0,0,1-.48-1.74,3.45,3.45,0,0,1,.13-.91,3.51,3.51,0,0,1,.89-1.52,4.58,4.58,0,0,1,.7-.55,3.57,3.57,0,0,1,.83-.35,3.39,3.39,0,0,1,.91-.12,2.94,2.94,0,0,1,.84.11,3,3,0,0,1,.78.32,3.16,3.16,0,0,1,.67.5A3,3,0,0,1,194,26v-1.3a.15.15,0,0,1,.17-.17h.27c.12,0,.18.06.18.17V31a.14.14,0,0,1-.06.13.2.2,0,0,1-.13,0h-.22c-.14,0-.21-.06-.21-.19Zm0-2.27a2.52,2.52,0,0,0-.24-1.09,2.88,2.88,0,0,0-.62-.91,3,3,0,0,0-.9-.63,2.69,2.69,0,0,0-1.08-.23h0a2.45,2.45,0,0,0-1.07.23,2.79,2.79,0,0,0-.89.62,2.85,2.85,0,0,0-.61.91,2.65,2.65,0,0,0-.23,1.08,2.74,2.74,0,0,0,.22,1.1,2.87,2.87,0,0,0,.6.92,2.63,2.63,0,0,0,.88.63,2.51,2.51,0,0,0,1.09.23,2.78,2.78,0,0,0,1.11-.22,3.06,3.06,0,0,0,.91-.62,3.24,3.24,0,0,0,.62-.92,2.71,2.71,0,0,0,.23-1.1"/><path class="cls-1" d="M198.25,30.89v.19a.09.09,0,0,1,0,.08l-.08,0-.11,0h-.09a1.9,1.9,0,0,1-.54-.07,1.2,1.2,0,0,1-.45-.23,1,1,0,0,1-.3-.41,1.42,1.42,0,0,1-.11-.61V25h-.91a.2.2,0,0,1-.14,0,.17.17,0,0,1,0-.12v-.25a.17.17,0,0,1,0-.12.26.26,0,0,1,.14,0h.91V22.82a.09.09,0,0,1,0-.08l0,0,0,0,.1,0,.12,0,.09,0a.16.16,0,0,1,.14.06.26.26,0,0,1,0,.14v1.69h1.18a.15.15,0,0,1,.17.17v.21c0,.12-.06.18-.17.18h-1.18v4.45c0,.15,0,.3,0,.43a1.2,1.2,0,0,0,.08.36.49.49,0,0,0,.16.25.44.44,0,0,0,.29.09h.12l.25,0a.32.32,0,0,1,.13.05.18.18,0,0,1,.06.09s0,.08,0,.13Z"/><path class="cls-1" d="M199.32,22.55a.38.38,0,0,1,0-.16.13.13,0,0,1,.12-.07h.38a.13.13,0,0,1,.13.07.78.78,0,0,1,0,.16v.2c0,.1,0,.17-.05.2a.35.35,0,0,1-.19,0h-.19a.32.32,0,0,1-.19,0,.14.14,0,0,1-.06-.13Zm0,2.11a.15.15,0,0,1,.17-.17h.28a.15.15,0,0,1,.17.17V31a.15.15,0,0,1-.17.17h-.27c-.12,0-.18-.05-.18-.17Z"/><path class="cls-1" d="M201.48,27.82a3.44,3.44,0,0,1,.12-.91,3.83,3.83,0,0,1,.35-.83,3.69,3.69,0,0,1,.55-.7,3.51,3.51,0,0,1,1.52-.89,3.44,3.44,0,0,1,.91-.12,3.33,3.33,0,0,1,1.74.47,3.45,3.45,0,0,1,1.24,1.24,3,3,0,0,1,.35.83,3.08,3.08,0,0,1,.13.91,3.15,3.15,0,0,1-.13.92,3,3,0,0,1-.35.82,3.35,3.35,0,0,1-.54.7,4.14,4.14,0,0,1-.7.55,4,4,0,0,1-.82.35,3.52,3.52,0,0,1-.92.12,3.44,3.44,0,0,1-.91-.12,3.4,3.4,0,0,1-1.52-.9,3.4,3.4,0,0,1-.55-.7,3.75,3.75,0,0,1-.35-.82,3.52,3.52,0,0,1-.12-.92m.63,0a3,3,0,0,0,.1.74,2.94,2.94,0,0,0,.28.68,2.9,2.9,0,0,0,1.68,1.34,2.55,2.55,0,0,0,.74.1,2.88,2.88,0,0,0,1.1-.22,2.89,2.89,0,0,0,1.53-1.52,2.72,2.72,0,0,0,.22-1.11,2.77,2.77,0,0,0-.22-1.1,3.18,3.18,0,0,0-.6-.92,3,3,0,0,0-.9-.63A2.66,2.66,0,0,0,205,25a2.71,2.71,0,0,0-1.1.23,2.88,2.88,0,0,0-.91.62,3.18,3.18,0,0,0-.6.92,2.71,2.71,0,0,0-.23,1.1"/><path class="cls-1" d="M209.79,24.69a.18.18,0,0,1,.05-.15.25.25,0,0,1,.15-.05h.21a.17.17,0,0,1,.14.06.17.17,0,0,1,0,.14v.77a2.31,2.31,0,0,1,.51-.56,2.72,2.72,0,0,1,.59-.34,2.62,2.62,0,0,1,.59-.17,3.44,3.44,0,0,1,.54,0,2.64,2.64,0,0,1,1.1.22,2.47,2.47,0,0,1,.85.6,2.76,2.76,0,0,1,.55.9,3,3,0,0,1,.19,1.09v3.75c0,.08,0,.14-.05.17a.2.2,0,0,1-.15.06h-.2a.22.22,0,0,1-.16-.05.27.27,0,0,1,0-.17V27.14a2.48,2.48,0,0,0-.16-.8,2.25,2.25,0,0,0-.42-.7,2,2,0,0,0-.66-.49,2.08,2.08,0,0,0-.89-.19,2.17,2.17,0,0,0-.79.15,2.2,2.2,0,0,0-.69.42,2.13,2.13,0,0,0-.5.65,1.93,1.93,0,0,0-.21.84V31c0,.12,0,.17-.16.17H210a.15.15,0,0,1-.17-.17V24.69Z"/><path class="cls-1" d="M222.87,30.09v-.4a3.24,3.24,0,0,1-.51.66,3.14,3.14,0,0,1-.66.49,3.29,3.29,0,0,1-.77.32,3.41,3.41,0,0,1-.85.11,3,3,0,0,1-.91-.13,3.18,3.18,0,0,1-.83-.35,3.45,3.45,0,0,1-1.24-1.24,3.47,3.47,0,0,1-.48-1.74,3.45,3.45,0,0,1,.13-.91,3.32,3.32,0,0,1,.35-.82,3.09,3.09,0,0,1,.55-.7,4.07,4.07,0,0,1,.69-.55,3.57,3.57,0,0,1,.83-.35,3.39,3.39,0,0,1,.91-.12,3.2,3.2,0,0,1,1.62.43,3.16,3.16,0,0,1,.67.5,3,3,0,0,1,.51.66v-1.3a.15.15,0,0,1,.17-.17h.27c.12,0,.18.06.18.17V31a.14.14,0,0,1-.06.13.2.2,0,0,1-.13,0h-.22c-.14,0-.21-.06-.21-.19Zm0-2.27a2.52,2.52,0,0,0-.24-1.09,2.88,2.88,0,0,0-.62-.91,3,3,0,0,0-.9-.63,2.69,2.69,0,0,0-1.08-.23h0a2.45,2.45,0,0,0-1.07.23,2.79,2.79,0,0,0-.89.62,2.85,2.85,0,0,0-.61.91,2.65,2.65,0,0,0-.23,1.08,2.74,2.74,0,0,0,.22,1.1,2.87,2.87,0,0,0,.6.92,2.63,2.63,0,0,0,.88.63,2.51,2.51,0,0,0,1.09.23,2.78,2.78,0,0,0,1.11-.22,3.06,3.06,0,0,0,.91-.62,3.24,3.24,0,0,0,.62-.92,2.71,2.71,0,0,0,.23-1.1"/><path class="cls-1" d="M225.07,22.64a.15.15,0,0,1,.17-.17h.28a.15.15,0,0,1,.17.17V31c0,.11-.06.16-.17.16h-.27c-.12,0-.18-.05-.18-.16Z"/><path class="cls-1" d="M160.68,35.9a.19.19,0,0,1,.11.16.15.15,0,0,1,0,.11l-.14.18-.07.07a.13.13,0,0,1-.08,0,.48.48,0,0,1-.21-.1,4.27,4.27,0,0,0-1-.52,3.19,3.19,0,0,0-1.06-.18,3.48,3.48,0,0,0-.93.12,3.35,3.35,0,0,0-.82.36,3.05,3.05,0,0,0-.69.54,3.35,3.35,0,0,0-.54.7,3.77,3.77,0,0,0-.34.8,3.28,3.28,0,0,0-.12.88,2.93,2.93,0,0,0,.13.88,4,4,0,0,0,.36.82,3.64,3.64,0,0,0,.54.7,4.07,4.07,0,0,0,.69.55,3.62,3.62,0,0,0,.8.36,2.76,2.76,0,0,0,.86.13,3.51,3.51,0,0,0,.55-.05,4,4,0,0,0,.57-.16,2.87,2.87,0,0,0,.54-.24,3.49,3.49,0,0,0,.49-.33.24.24,0,0,1,.13-.05c.08,0,.14.05.2.14l.07.12a.22.22,0,0,1,0,.13.25.25,0,0,1-.1.2,4.18,4.18,0,0,1-1.14.61,3.87,3.87,0,0,1-1.33.22,4.23,4.23,0,0,1-1.06-.14,3.84,3.84,0,0,1-.95-.41,4.14,4.14,0,0,1-1.44-1.44,4,4,0,0,1-.41-1,3.79,3.79,0,0,1-.14-1.07,3.72,3.72,0,0,1,.14-1.06,4.06,4.06,0,0,1,.4-1,4.51,4.51,0,0,1,.63-.81,4.26,4.26,0,0,1,1.78-1,4,4,0,0,1,3.54.71"/><path class="cls-1" d="M162.51,39.87c0,.05,0,.13,0,.23a1.18,1.18,0,0,0,0,.28,3.06,3.06,0,0,0,.39.86,2.79,2.79,0,0,0,.61.67,2.71,2.71,0,0,0,.78.44,3.06,3.06,0,0,0,1.44.11,1.66,1.66,0,0,0,.45-.12,2.87,2.87,0,0,0,.4-.18,2.64,2.64,0,0,0,.35-.23l.11-.07.11-.09.09-.07.08,0s.06,0,.1.07l.13.2a.19.19,0,0,1,0,.1s0,0,0,.05a.08.08,0,0,1,0,0,1,1,0,0,1-.14.15l-.2.16a3.48,3.48,0,0,1-.92.47,3.14,3.14,0,0,1-1.08.17,3.38,3.38,0,0,1-1.34-.27,3.44,3.44,0,0,1-1.1-.74,3.49,3.49,0,0,1-.74-1.1,3.14,3.14,0,0,1-.28-1.33,3.46,3.46,0,0,1,.12-.92,3.81,3.81,0,0,1,.34-.83,3.64,3.64,0,0,1,.54-.7,3.35,3.35,0,0,1,.7-.54,3.39,3.39,0,0,1,.83-.35,3.54,3.54,0,0,1,.93-.12,3.29,3.29,0,0,1,.89.11,3.5,3.5,0,0,1,.81.32,3.42,3.42,0,0,1,.69.51,3.57,3.57,0,0,1,.54.69,3.38,3.38,0,0,1,.35.85,3.94,3.94,0,0,1,.15,1h0v0s0,0,0,0a.16.16,0,0,1-.17.18Zm2.07-3a2.52,2.52,0,0,0-.75.33,2.9,2.9,0,0,0-.62.54,3.05,3.05,0,0,0-.7,1.48h5.63a2.51,2.51,0,0,0-.31-1,2.9,2.9,0,0,0-1.49-1.3,2.87,2.87,0,0,0-1-.18,1.88,1.88,0,0,0-.34,0,2.66,2.66,0,0,0-.41.08"/><path class="cls-1" d="M170.28,36.51a.18.18,0,0,1,.2-.2h.21a.17.17,0,0,1,.14.06.17.17,0,0,1,0,.14v.77a2.31,2.31,0,0,1,.51-.56,2.72,2.72,0,0,1,.59-.34,2.62,2.62,0,0,1,.59-.17,3.44,3.44,0,0,1,.54,0,2.61,2.61,0,0,1,1.95.82,2.76,2.76,0,0,1,.55.9,3,3,0,0,1,.2,1.08v3.76a.21.21,0,0,1-.06.17.2.2,0,0,1-.15.06h-.2a.22.22,0,0,1-.16-.05.25.25,0,0,1,0-.17V39a2.48,2.48,0,0,0-.16-.8,2.25,2.25,0,0,0-.42-.7A2,2,0,0,0,174,37a1.94,1.94,0,0,0-.89-.19,2.17,2.17,0,0,0-.79.15,2.2,2.2,0,0,0-.69.42,2.13,2.13,0,0,0-.5.65,2,2,0,0,0-.21.84v3.95c0,.12,0,.17-.15.17h-.28a.15.15,0,0,1-.17-.17V36.51Z"/><path class="cls-1" d="M179.4,42.71a.25.25,0,0,1,0,.08v.11a.09.09,0,0,1,0,.08l-.09,0-.1,0h-.09a1.9,1.9,0,0,1-.54-.07,1.2,1.2,0,0,1-.45-.23,1,1,0,0,1-.3-.41,1.41,1.41,0,0,1-.12-.61V36.86h-.91a.17.17,0,0,1-.13,0s0-.06,0-.12v-.25c0-.06,0-.1,0-.12a.23.23,0,0,1,.13,0h.91V34.64a.1.1,0,0,1,0-.08l0,0,0,0,.1,0,.12,0,.09,0c.07,0,.11,0,.13.06a.2.2,0,0,1,0,.14V36.3h1.18a.15.15,0,0,1,.17.17v.21c0,.12-.06.18-.17.18h-1.18v4.45c0,.15,0,.3,0,.43a1.21,1.21,0,0,0,.07.36.58.58,0,0,0,.17.25.44.44,0,0,0,.29.09H179l.25,0,.13,0a.14.14,0,0,1,0,.09.53.53,0,0,1,0,.13Z"/><path class="cls-1" d="M184.72,37.4l-.06,0a.16.16,0,0,1-.09,0l-.13-.08-.26-.16-.31-.15a1.5,1.5,0,0,0-.34-.11,1.32,1.32,0,0,0-.33,0,2.19,2.19,0,0,0-.77.14,2.13,2.13,0,0,0-.62.4,2.06,2.06,0,0,0-.43.64,2.24,2.24,0,0,0-.15.84V42.8c0,.11-.06.16-.17.16h-.28c-.11,0-.17-.05-.17-.16V36.48c0-.09,0-.14.15-.14H181a.18.18,0,0,1,.15.06.19.19,0,0,1,0,.13v.86a1.76,1.76,0,0,1,.29-.4,1.82,1.82,0,0,1,.42-.36,1.93,1.93,0,0,1,.54-.26,1.91,1.91,0,0,1,.64-.1,4.12,4.12,0,0,1,.51,0,3.15,3.15,0,0,1,.44.11,1.84,1.84,0,0,1,.4.19,3,3,0,0,1,.39.27.39.39,0,0,1,.1.08.17.17,0,0,1,0,.12.26.26,0,0,1-.09.14l-.19.19"/><path class="cls-1" d="M186.43,39.87c0,.05,0,.13,0,.23a1.18,1.18,0,0,0,0,.28,3.06,3.06,0,0,0,.39.86,3,3,0,0,0,.6.67,2.91,2.91,0,0,0,.79.44,2.82,2.82,0,0,0,.92.15,2.89,2.89,0,0,0,.52,0,1.66,1.66,0,0,0,.45-.12,2.32,2.32,0,0,0,.39-.18,2.21,2.21,0,0,0,.36-.23l.11-.07.1-.09.1-.07.08,0s.06,0,.1.07l.13.2a.34.34,0,0,1,0,.1s0,0,0,.05a.08.08,0,0,1,0,0,1,1,0,0,1-.14.15l-.2.16a3.64,3.64,0,0,1-.92.47,3.14,3.14,0,0,1-1.08.17,3.38,3.38,0,0,1-1.34-.27,3.44,3.44,0,0,1-1.1-.74,3.49,3.49,0,0,1-.74-1.1,3.14,3.14,0,0,1-.28-1.33,3.46,3.46,0,0,1,.12-.92,3.37,3.37,0,0,1,.34-.83,3.64,3.64,0,0,1,.54-.7,3.35,3.35,0,0,1,.7-.54,3.24,3.24,0,0,1,.83-.35,3.48,3.48,0,0,1,.93-.12,3.42,3.42,0,0,1,1.69.43,3.22,3.22,0,0,1,.7.51,4.57,4.57,0,0,1,.54.69,3.38,3.38,0,0,1,.35.85,3.94,3.94,0,0,1,.15,1h0v0a.16.16,0,0,1-.17.18Zm2.06-3a2.58,2.58,0,0,0-.74.33,2.68,2.68,0,0,0-.62.54,3.05,3.05,0,0,0-.7,1.48h5.63a2.69,2.69,0,0,0-.31-1,2.9,2.9,0,0,0-1.49-1.3,2.87,2.87,0,0,0-1-.18,2.06,2.06,0,0,0-.35,0,2.9,2.9,0,0,0-.41.08"/><path class="cls-1" d="M197.07,39.64a3.44,3.44,0,0,1,.12-.91,3.39,3.39,0,0,1,.35-.83,3.45,3.45,0,0,1,1.24-1.24,3.4,3.4,0,0,1,1.74-.47,3.44,3.44,0,0,1,.91.12,3.32,3.32,0,0,1,.82.35,3.7,3.7,0,0,1,.71.54,3.64,3.64,0,0,1,.54.7,3.39,3.39,0,0,1,.35.83,3.44,3.44,0,0,1,.12.91,3.52,3.52,0,0,1-.12.92,3.36,3.36,0,0,1-.89,1.52,3.51,3.51,0,0,1-1.53.9,3.44,3.44,0,0,1-.91.12,3.39,3.39,0,0,1-.91-.12,3.83,3.83,0,0,1-.83-.35,3.69,3.69,0,0,1-.7-.55,3.36,3.36,0,0,1-.89-1.52,3.52,3.52,0,0,1-.12-.92m.63,0a2.71,2.71,0,0,0,.1.75,3.27,3.27,0,0,0,.28.67,2.8,2.8,0,0,0,1,1,3,3,0,0,0,.66.3,3.08,3.08,0,0,0,.75.1,2.74,2.74,0,0,0,1.1-.22,3,3,0,0,0,.91-.61,2.85,2.85,0,0,0,.61-.91,2.72,2.72,0,0,0,.23-1.11,2.77,2.77,0,0,0-.22-1.1,3.18,3.18,0,0,0-.6-.92,3,3,0,0,0-.9-.62,2.56,2.56,0,0,0-1.1-.24,2.78,2.78,0,0,0-1.1.23,3,3,0,0,0-.9.62,3,3,0,0,0-.61.92,2.7,2.7,0,0,0-.22,1.1"/><path class="cls-1" d="M207.54,36.86a.17.17,0,0,1,.13,0,.17.17,0,0,1,.06.14v.17a.18.18,0,0,1-.06.15.14.14,0,0,1-.13,0h-1.15v5.36a.18.18,0,0,1,0,.15.2.2,0,0,1-.13,0H206c-.11,0-.17-.06-.17-.19V37.41H205a.16.16,0,0,1-.14,0,.21.21,0,0,1-.05-.15V37a.2.2,0,0,1,.05-.14.2.2,0,0,1,.14,0h.81V35.79a2.11,2.11,0,0,1,.14-.77,1.67,1.67,0,0,1,.38-.6,1.6,1.6,0,0,1,.59-.39,1.93,1.93,0,0,1,.73-.13.18.18,0,0,1,.15.06.17.17,0,0,1,.06.14v.22a.15.15,0,0,1-.06.13.19.19,0,0,1-.13,0,1.3,1.3,0,0,0-.49.09,1,1,0,0,0-.4.28,1.53,1.53,0,0,0-.27.47,2.25,2.25,0,0,0-.1.67v.85Z"/><path class="cls-1" d="M217.49,35.15c.14,0,.2.06.2.19v.27a.19.19,0,0,1-.05.14.17.17,0,0,1-.15,0H212.9v2.75h3.69a.2.2,0,0,1,.14,0,.18.18,0,0,1,.06.15V39a.2.2,0,0,1,0,.14.18.18,0,0,1-.15.06H212.9V42.3h4.66a.18.18,0,0,1,.2.2v.27c0,.13-.07.19-.2.19h-5.15a.16.16,0,0,1-.12,0,.16.16,0,0,1,0-.14V35.34a.21.21,0,0,1,0-.15.21.21,0,0,1,.14,0Z"/><path class="cls-1" d="M219,42.88h0l-.07.07a.11.11,0,0,1-.08,0h-.45l-.06,0a.06.06,0,0,1-.06,0,.05.05,0,0,1,0,0,.19.19,0,0,1,0-.11l2.2-3.21-.87-1.29-.81-1.17-.39-.58h0a.19.19,0,0,1,0-.11s0-.06.08-.08l.15,0h.34l.09,0,.08.08,1.74,2.66.88-1.31.88-1.31a.3.3,0,0,1,.2-.12.93.93,0,0,1,.23,0h.2c.06,0,.09,0,.1.07a.21.21,0,0,1-.05.13l-.39.58c-.13.19-.27.38-.4.58l-.4.59-.43.62c-.15.21-.3.43-.45.67l1.1,1.6,1.1,1.61,0,0a.31.31,0,0,1,0,.08.12.12,0,0,1-.07.07.22.22,0,0,1-.11,0h-.42a.19.19,0,0,1-.13-.08L220.82,40Z"/><path class="cls-1" d="M229.58,37.52l0,0-.05,0s-.06,0-.1-.06l-.2-.19a2,2,0,0,0-.37-.24,2.68,2.68,0,0,0-1.33-.31,2.64,2.64,0,0,0-1.07.23,2.92,2.92,0,0,0-.9.61,3,3,0,0,0-.62.91,2.79,2.79,0,0,0-.23,1.11,2.7,2.7,0,0,0,.22,1.1,3,3,0,0,0,.61.92,2.91,2.91,0,0,0,.89.62,2.51,2.51,0,0,0,1.08.24,2.76,2.76,0,0,0,.51,0,2.12,2.12,0,0,0,.45-.12,2.32,2.32,0,0,0,.39-.18,2.85,2.85,0,0,0,.37-.23l.09-.07.11-.08.1-.07.08,0a.17.17,0,0,1,.11.06l.13.19a.51.51,0,0,1,0,.11s0,0,0,0,0,0,0,.06a1.77,1.77,0,0,1-.34.31,3.64,3.64,0,0,1-.92.47,3.14,3.14,0,0,1-1.08.17,3.44,3.44,0,0,1-.91-.12,3.49,3.49,0,0,1-.82-.35,3.35,3.35,0,0,1-.7-.54,3.09,3.09,0,0,1-.55-.7,4,4,0,0,1-.36-.82,3.52,3.52,0,0,1-.12-.92,3.44,3.44,0,0,1,.12-.91,3.86,3.86,0,0,1,.36-.83,3.59,3.59,0,0,1,1.25-1.24,3.49,3.49,0,0,1,.82-.35,3.44,3.44,0,0,1,.91-.12,3.18,3.18,0,0,1,.62.06,3.83,3.83,0,0,1,.58.16,4.16,4.16,0,0,1,.52.25,3.13,3.13,0,0,1,.46.32h0v0l.08.08a.1.1,0,0,1,0,.09.22.22,0,0,1-.06.13Z"/><path class="cls-1" d="M231.43,39.87c0,.05,0,.13,0,.23a1.18,1.18,0,0,0,0,.28,3.06,3.06,0,0,0,.39.86,2.79,2.79,0,0,0,.61.67,2.71,2.71,0,0,0,.78.44,3.06,3.06,0,0,0,1.44.11,1.66,1.66,0,0,0,.45-.12,2.32,2.32,0,0,0,.39-.18,2.21,2.21,0,0,0,.36-.23l.11-.07.11-.09.09-.07.08,0s.06,0,.1.07l.13.2a.34.34,0,0,1,0,.1s0,0,0,.05a.08.08,0,0,1,0,0,1,1,0,0,1-.14.15l-.2.16a3.48,3.48,0,0,1-.92.47,3.14,3.14,0,0,1-1.08.17,3.38,3.38,0,0,1-1.34-.27,3.44,3.44,0,0,1-1.1-.74,3.49,3.49,0,0,1-.74-1.1,3.14,3.14,0,0,1-.28-1.33,3.46,3.46,0,0,1,.12-.92,3.81,3.81,0,0,1,.34-.83,3.64,3.64,0,0,1,.54-.7,3.35,3.35,0,0,1,.7-.54,3.24,3.24,0,0,1,.83-.35,3.54,3.54,0,0,1,.93-.12,3.29,3.29,0,0,1,.89.11,3.5,3.5,0,0,1,.81.32,3.42,3.42,0,0,1,.69.51,4,4,0,0,1,.54.69,3.38,3.38,0,0,1,.35.85,3.94,3.94,0,0,1,.15,1h0v0s0,0,0,0a.16.16,0,0,1-.17.18Zm2.06-3a2.58,2.58,0,0,0-.74.33,2.9,2.9,0,0,0-.62.54,3.05,3.05,0,0,0-.7,1.48h5.63a2.51,2.51,0,0,0-.31-1,2.9,2.9,0,0,0-1.49-1.3,2.87,2.87,0,0,0-1-.18,1.88,1.88,0,0,0-.34,0,3,3,0,0,0-.42.08"/><path class="cls-1" d="M239.09,34.46c0-.11,0-.17.16-.17h.28a.15.15,0,0,1,.17.17V42.8c0,.11-.06.16-.17.16h-.27c-.12,0-.17-.05-.17-.16Z"/><path class="cls-1" d="M241.39,34.46c0-.11.05-.17.16-.17h.28a.15.15,0,0,1,.17.17V42.8c0,.11-.06.16-.17.16h-.27c-.12,0-.17-.05-.17-.16Z"/><path class="cls-1" d="M244,39.87c0,.05,0,.13,0,.23a1.18,1.18,0,0,0,0,.28,3.06,3.06,0,0,0,.39.86,2.79,2.79,0,0,0,.61.67,2.71,2.71,0,0,0,.78.44,3.06,3.06,0,0,0,1.44.11,1.66,1.66,0,0,0,.45-.12,2.87,2.87,0,0,0,.4-.18,2.64,2.64,0,0,0,.35-.23l.11-.07.11-.09.09-.07.08,0s.06,0,.1.07l.13.2a.34.34,0,0,1,0,.1s0,0,0,.05a.08.08,0,0,1,0,0,1,1,0,0,1-.14.15l-.2.16a3.48,3.48,0,0,1-.92.47,3.14,3.14,0,0,1-1.08.17,3.38,3.38,0,0,1-1.34-.27,3.44,3.44,0,0,1-1.1-.74,3.49,3.49,0,0,1-.74-1.1,3.14,3.14,0,0,1-.28-1.33,3.46,3.46,0,0,1,.12-.92,3.81,3.81,0,0,1,.34-.83,3.64,3.64,0,0,1,.54-.7,3.35,3.35,0,0,1,.7-.54,3.39,3.39,0,0,1,.83-.35,3.54,3.54,0,0,1,.93-.12,3.29,3.29,0,0,1,.89.11,3.5,3.5,0,0,1,.81.32,3.42,3.42,0,0,1,.69.51,3.57,3.57,0,0,1,.54.69,3.38,3.38,0,0,1,.35.85,3.94,3.94,0,0,1,.15,1h0v0s0,0,0,0a.16.16,0,0,1-.17.18Zm2.07-3a2.52,2.52,0,0,0-.75.33,2.9,2.9,0,0,0-.62.54,3.05,3.05,0,0,0-.7,1.48h5.63a2.51,2.51,0,0,0-.31-1,2.9,2.9,0,0,0-1.49-1.3,2.87,2.87,0,0,0-1-.18,1.88,1.88,0,0,0-.34,0,2.66,2.66,0,0,0-.41.08"/><path class="cls-1" d="M251.75,36.51a.18.18,0,0,1,.2-.2h.21a.17.17,0,0,1,.14.06.17.17,0,0,1,0,.14v.77a2.31,2.31,0,0,1,.51-.56,2.72,2.72,0,0,1,.59-.34,2.62,2.62,0,0,1,.59-.17,3.44,3.44,0,0,1,.54,0,2.64,2.64,0,0,1,1.1.22,2.51,2.51,0,0,1,.85.6,2.76,2.76,0,0,1,.55.9,3,3,0,0,1,.2,1.08v3.76a.21.21,0,0,1-.06.17.2.2,0,0,1-.15.06h-.2a.22.22,0,0,1-.16-.05.25.25,0,0,1,0-.17V39a2.48,2.48,0,0,0-.16-.8,2.25,2.25,0,0,0-.42-.7,2,2,0,0,0-.66-.49,1.94,1.94,0,0,0-.89-.19,2.17,2.17,0,0,0-.79.15,2.2,2.2,0,0,0-.69.42,2.13,2.13,0,0,0-.5.65,2,2,0,0,0-.21.84v3.95c0,.12,0,.17-.15.17h-.28a.15.15,0,0,1-.17-.17V36.51Z"/><path class="cls-1" d="M263.89,37.52l0,0,0,0s-.06,0-.1-.06l-.2-.19a2.38,2.38,0,0,0-.37-.24,2.68,2.68,0,0,0-1.34-.31,2.59,2.59,0,0,0-1.06.23,2.92,2.92,0,0,0-.9.61,3,3,0,0,0-.62.91,2.63,2.63,0,0,0-.23,1.11,2.7,2.7,0,0,0,.22,1.1,3,3,0,0,0,.61.92,2.79,2.79,0,0,0,.89.62,2.49,2.49,0,0,0,1.07.24,2.78,2.78,0,0,0,.52,0,2.12,2.12,0,0,0,.45-.12,2.32,2.32,0,0,0,.39-.18,2.74,2.74,0,0,0,.36-.23l.1-.07.11-.08.1-.07.08,0a.14.14,0,0,1,.1.06,1.64,1.64,0,0,1,.13.19.24.24,0,0,1,0,.11.05.05,0,0,1,0,0s0,0,0,.06a2,2,0,0,1-.33.31,3.64,3.64,0,0,1-.92.47,3.14,3.14,0,0,1-1.08.17,3.39,3.39,0,0,1-.91-.12,3.32,3.32,0,0,1-.82-.35,3.7,3.7,0,0,1-.71-.54,3.35,3.35,0,0,1-.54-.7,3.35,3.35,0,0,1-.49-1.74,3.42,3.42,0,0,1,.49-1.74,3.64,3.64,0,0,1,.54-.7,3.7,3.7,0,0,1,.71-.54,3.32,3.32,0,0,1,.82-.35,3.39,3.39,0,0,1,.91-.12,3.08,3.08,0,0,1,.61.06,3.65,3.65,0,0,1,.59.16,4.16,4.16,0,0,1,.52.25A2.58,2.58,0,0,1,264,37h0v0l.09.08a.1.1,0,0,1,0,.09.19.19,0,0,1-.07.13Z"/><path class="cls-1" d="M265.74,39.87a1.21,1.21,0,0,1,0,.23,1.16,1.16,0,0,0,.05.28,3,3,0,0,0,.38.86,3,3,0,0,0,.61.67,2.91,2.91,0,0,0,.79.44,2.77,2.77,0,0,0,.92.15,2.89,2.89,0,0,0,.52,0,1.66,1.66,0,0,0,.45-.12,2.32,2.32,0,0,0,.39-.18,2.74,2.74,0,0,0,.36-.23l.1-.07.11-.09.1-.07.08,0s.06,0,.1.07a1.28,1.28,0,0,1,.12.2.19.19,0,0,1,0,.1.06.06,0,0,0,0,.1l-.14.15-.2.16a3.64,3.64,0,0,1-.92.47,3.14,3.14,0,0,1-1.08.17,3.38,3.38,0,0,1-1.34-.27,3.33,3.33,0,0,1-1.1-.74,3.7,3.7,0,0,1-.75-1.1,3.29,3.29,0,0,1-.27-1.33,3.46,3.46,0,0,1,.12-.92,3.37,3.37,0,0,1,.34-.83,4,4,0,0,1,.53-.7,3.64,3.64,0,0,1,.7-.54,3.57,3.57,0,0,1,.83-.35,3.61,3.61,0,0,1,.94-.12,3.34,3.34,0,0,1,.89.11,3.26,3.26,0,0,1,.8.32,3.16,3.16,0,0,1,.69.51,3.57,3.57,0,0,1,.54.69,3.81,3.81,0,0,1,.36.85,3.94,3.94,0,0,1,.15,1h0v0c0,.11-.05.18-.17.18Zm2.06-3a2.47,2.47,0,0,0-.74.33,2.68,2.68,0,0,0-.62.54,3.05,3.05,0,0,0-.7,1.48h5.63a2.53,2.53,0,0,0-.32-1,2.77,2.77,0,0,0-.62-.78,3.14,3.14,0,0,0-.86-.52,2.87,2.87,0,0,0-1-.18,2,2,0,0,0-.35,0,2.9,2.9,0,0,0-.41.08"/><rect class="cls-1" x="149.4" y="21.4" width="0.47" height="24.69"/><polygon class="cls-3" points="68.7 44.05 68.7 44.05 68.7 12.46 68.7 44.05"/><path class="cls-4" d="M47.62,1.17a10.85,10.85,0,0,1,5-1.17V33.66H41.44V13c0-.94,0-1.88,0-2.82A13.35,13.35,0,0,1,41.89,8,11.19,11.19,0,0,1,47.62,1.17Zm-1.76,9.54A3.59,3.59,0,0,1,45.55,12H47a2.77,2.77,0,0,1-.32-1.12,1.25,1.25,0,0,1,.56-1.13,1.12,1.12,0,0,1,1.55.47A6.23,6.23,0,0,1,49,12.58a7.07,7.07,0,0,0-2.79.27A1,1,0,0,0,45.56,14a2,2,0,0,0,.93.91,3.54,3.54,0,0,0,2,.27,2.32,2.32,0,0,0,1.85-1.3h-1a2.79,2.79,0,0,1-2.22.37,1,1,0,0,1-.8-.51.37.37,0,0,1,.27-.36,2.65,2.65,0,0,1,1.18-.2h2.35a4.66,4.66,0,0,1-.34-2.46,1.68,1.68,0,0,0-.94-1.41,2.33,2.33,0,0,0-1.4-.21A1.89,1.89,0,0,0,45.86,10.71Zm1.51,2.8c0,.08,0,.24,0,.32s.22.24.38.25.33-.14.47-.24c0-.16,0-.36-.16-.46A.53.53,0,0,0,47.37,13.51Zm-.87,3.71a2.52,2.52,0,0,0-.62,2.08,3.28,3.28,0,0,0,.54,1.24,2.27,2.27,0,0,0-1.56.62.91.91,0,0,0-.13,1.13,2.36,2.36,0,0,0,1.08.92,3.71,3.71,0,0,0,1.69.17,2.27,2.27,0,0,0,1.82-1.45h-.93a2,2,0,0,1-1.32.49,2.09,2.09,0,0,1-1.5-.38c-.16-.11-.12-.31-.14-.48a2,2,0,0,1,1.22-.4h3.19v-.95a2.56,2.56,0,0,1-1.26.34c-.45,0-1,.09-1.33-.27a2.32,2.32,0,0,1-.46-1.89,1.28,1.28,0,0,1,.72-1.09,1,1,0,0,1,1.35.75,5.74,5.74,0,0,1-.26.69h1.46a4.58,4.58,0,0,0-.78-1.58A2,2,0,0,0,46.5,17.22Zm.31,8.3a3.4,3.4,0,0,0-.43,2.26,3.41,3.41,0,0,1-.3,2,1.15,1.15,0,0,1-.74.41c0,.29,0,.59,0,.89a1.92,1.92,0,0,0,1.53-.75A2,2,0,0,0,47.21,29c.44,0,.88,0,1.31,0A2,2,0,0,0,50,28.07a2.4,2.4,0,0,0-.09-2.39,2,2,0,0,0-1.34-.84A2,2,0,0,0,46.81,25.52Z"/><path class="cls-4" d="M6.41.08a11.16,11.16,0,0,1,11,11.38v22.2c-3.66,0-7.32,0-11,0Q6.41,16.88,6.41.08ZM10,8.77a3.47,3.47,0,0,1,.18,1.1c-.14,1.34-.3,2.67-.44,4a1.11,1.11,0,0,1-.3.17c0,.17,0,.34,0,.51.71,0,1.41,0,2.12-.05a7.32,7.32,0,0,0,.35-.88A1.31,1.31,0,0,1,10.8,13a2.51,2.51,0,0,1-.16-1.73,3,3,0,0,1,.67-1.54.66.66,0,0,1,.88,0,1,1,0,0,1-.07,1.55c-.34,0-.79-.11-.84-.52L11,11l-.11.16a1.3,1.3,0,0,0,.18.91,1.63,1.63,0,0,0,.77-.22c.09,0,.25-.12.32,0a1.44,1.44,0,0,1,.22,1.3c-.16.48-.3,1-.5,1.42.64,0,1.29,0,1.94,0a25.57,25.57,0,0,1-.43-4.1,4,4,0,0,1,.28-1.61Zm1,8.58a1.87,1.87,0,0,0-.6.62,3.67,3.67,0,0,0-.55,3.28,4,4,0,0,0,1.67,1.9c.2.12.39-.08.53-.2a8.11,8.11,0,0,0,1.67-2,3.91,3.91,0,0,0,0-2,2,2,0,0,0-1.24-1.6A2.18,2.18,0,0,0,11,17.35ZM9.8,25.51A9.78,9.78,0,0,1,10,29.28c-.05.29-.3.53-.31.83A1.77,1.77,0,0,0,11,31a1.89,1.89,0,0,0,1.27-.55,1.34,1.34,0,0,0,1.47.3,8.08,8.08,0,0,1-.43-1.16,6.52,6.52,0,0,1,0-2.16,10.07,10.07,0,0,1,.29-2c-.56,0-1.12,0-1.68.08a7.82,7.82,0,0,1,.38.9c0,.76-.06,1.51-.09,2.27a4.52,4.52,0,0,1-.17,1,.82.82,0,0,1-1.14,0,9.81,9.81,0,0,1,.55-2.6,4.1,4.1,0,0,0,0-1.26c0-.21-.14-.48-.38-.54A3.69,3.69,0,0,0,9.8,25.51Z"/><path class="cls-4" d="M27.38.26A11.17,11.17,0,0,1,38.6,4.84a9.73,9.73,0,0,1,1.21,2.27C38.55,8.24,37.25,9.32,36,10.4c-.84.67-1.66,1.36-2.55,2a3.3,3.3,0,0,1-2.65.53A3.55,3.55,0,0,1,28.64,11,7.22,7.22,0,0,1,28,8.57c-.24-1.69-.37-3.4-.46-5.1-.08-.58,0-1.16-.09-1.73S27.38.75,27.38.26Zm5.05,2.37a4,4,0,0,0-1.86.57A3.79,3.79,0,0,0,28.77,6a3.85,3.85,0,0,0,.91,3,3.78,3.78,0,0,0,3,1.32,3.85,3.85,0,0,0,3.79-3.72A3.8,3.8,0,0,0,35,3.45,3.9,3.9,0,0,0,32.43,2.63Z"/><path class="cls-4" d="M10.59,18.68a.79.79,0,0,1,.83-.58,1.86,1.86,0,0,1,1.11.93A3,3,0,0,1,13,20.94a1.1,1.1,0,0,1-.47.8c-.16.12-.37.07-.56.08a2.29,2.29,0,0,1-1.06-1.05A2.78,2.78,0,0,1,10.59,18.68Z"/><path class="cls-4" d="M47.45,25.93A1,1,0,0,1,49,25.66a1.67,1.67,0,0,1,.39,1V27A2.13,2.13,0,0,1,49,28.09a.77.77,0,0,1-.55.32c-.43,0-.86,0-1.29,0A6,6,0,0,1,47.45,25.93Z"/><path class="cls-4" d="M23.81,26.17A1.36,1.36,0,0,1,25.08,26c.44.25.53.79.7,1.22A12.64,12.64,0,0,1,26,33.67c-2.5,0-5,0-7.52,0,1.15-1.86,2.28-3.73,3.47-5.56A6.47,6.47,0,0,1,23.81,26.17Z"/><path class="cls-5" d="M26.25.54A3.35,3.35,0,0,1,27.33.32c-.56,1.93-1.07,3.87-1.61,5.8q-3.15,11.4-6.28,22.79c-.39,1.32-.69,2.67-1.11,4,0-.57,0-1.13,0-1.7V11.05a11,11,0,0,1,2.42-6.79A11.13,11.13,0,0,1,26.25.54Z"/><path class="cls-5" d="M37,12.19a46.27,46.27,0,0,1,3.2-4,11,11,0,0,1,.44,2.91c0,7.53,0,15.07,0,22.61-4.64,0-9.29,0-13.93,0A92.9,92.9,0,0,1,31.07,22.5,69.71,69.71,0,0,1,37,12.19Z"/><path class="cls-6" d="M32.43,2.63A3.9,3.9,0,0,1,35,3.45a3.8,3.8,0,0,1,1.46,3.18,3.85,3.85,0,0,1-3.79,3.72,3.78,3.78,0,0,1-3-1.32,3.85,3.85,0,0,1-.91-3,3.79,3.79,0,0,1,1.8-2.83A4,4,0,0,1,32.43,2.63Z"/><path class="cls-6" d="M10,8.77h3.73a4,4,0,0,0-.28,1.61,25.57,25.57,0,0,0,.43,4.1c-.65,0-1.3,0-1.94,0,.2-.46.34-.94.5-1.42a1.44,1.44,0,0,0-.22-1.3c-.07-.11-.23,0-.32,0a1.63,1.63,0,0,1-.77.22,1.3,1.3,0,0,1-.18-.91L11,11l.26-.13c.05.41.5.49.84.52a1,1,0,0,0,.07-1.55.66.66,0,0,0-.88,0,3,3,0,0,0-.67,1.54A2.51,2.51,0,0,0,10.8,13a1.31,1.31,0,0,0,1.06.6,7.32,7.32,0,0,1-.35.88c-.71,0-1.41.08-2.12.05,0-.17,0-.34,0-.51a1.11,1.11,0,0,0,.3-.17c.14-1.34.3-2.67.44-4A3.47,3.47,0,0,0,10,8.77Z"/><path class="cls-7" d="M45.86,10.71a1.89,1.89,0,0,1,1.63-1.63,2.33,2.33,0,0,1,1.4.21,1.68,1.68,0,0,1,.94,1.41,4.66,4.66,0,0,0,.34,2.46H47.82a2.65,2.65,0,0,0-1.18.2.37.37,0,0,0-.27.36,1,1,0,0,0,.8.51,2.79,2.79,0,0,0,2.22-.37h1a2.32,2.32,0,0,1-1.85,1.3,3.54,3.54,0,0,1-2-.27,2,2,0,0,1-.93-.91,1,1,0,0,1,.67-1.13A7.07,7.07,0,0,1,49,12.58a6.23,6.23,0,0,0-.21-2.36,1.12,1.12,0,0,0-1.55-.47,1.25,1.25,0,0,0-.56,1.13A2.77,2.77,0,0,0,47,12H45.55A3.59,3.59,0,0,0,45.86,10.71Z"/><path class="cls-7" d="M46.5,17.22a2,2,0,0,1,2.78-.06,4.58,4.58,0,0,1,.78,1.58H48.6a5.74,5.74,0,0,0,.26-.69,1,1,0,0,0-1.35-.75,1.28,1.28,0,0,0-.72,1.09,2.32,2.32,0,0,0,.46,1.89c.34.36.88.27,1.33.27a2.56,2.56,0,0,0,1.26-.34v.95H46.65a2,2,0,0,0-1.22.4c0,.17,0,.37.14.48a2.09,2.09,0,0,0,1.5.38,2,2,0,0,0,1.32-.49h.93a2.27,2.27,0,0,1-1.82,1.45,3.71,3.71,0,0,1-1.69-.17,2.36,2.36,0,0,1-1.08-.92.91.91,0,0,1,.13-1.13,2.27,2.27,0,0,1,1.56-.62,3.28,3.28,0,0,1-.54-1.24A2.52,2.52,0,0,1,46.5,17.22Z"/><path class="cls-7" d="M11,17.35a2.18,2.18,0,0,1,1.47,0A2,2,0,0,1,13.68,19a3.91,3.91,0,0,1,0,2A8.11,8.11,0,0,1,12,23c-.14.12-.33.32-.53.2a4,4,0,0,1-1.67-1.9A3.67,3.67,0,0,1,10.37,18,1.87,1.87,0,0,1,11,17.35Zm-.38,1.33a2.78,2.78,0,0,0,.28,2.09,2.29,2.29,0,0,0,1.06,1.05c.19,0,.4,0,.56-.08a1.1,1.1,0,0,0,.47-.8A3,3,0,0,0,12.53,19a1.86,1.86,0,0,0-1.11-.93A.79.79,0,0,0,10.59,18.68Z"/><path class="cls-7" d="M46.81,25.52a2,2,0,0,1,1.77-.68,2,2,0,0,1,1.34.84A2.4,2.4,0,0,1,50,28.07a2,2,0,0,1-1.49.93c-.43,0-.87,0-1.31,0a2,2,0,0,1-.34,1.33,1.92,1.92,0,0,1-1.53.75c0-.3,0-.6,0-.89a1.15,1.15,0,0,0,.74-.41,3.41,3.41,0,0,0,.3-2A3.4,3.4,0,0,1,46.81,25.52Zm.64.41a6,6,0,0,0-.25,2.5c.43,0,.86,0,1.29,0a.77.77,0,0,0,.55-.32A2.13,2.13,0,0,0,49.42,27V26.7a1.67,1.67,0,0,0-.39-1A1,1,0,0,0,47.45,25.93Z"/><path class="cls-7" d="M9.8,25.51a3.69,3.69,0,0,1,1.28-.11c.24.06.34.33.38.54a4.1,4.1,0,0,1,0,1.26,9.81,9.81,0,0,0-.55,2.6.82.82,0,0,0,1.14,0,4.52,4.52,0,0,0,.17-1c0-.76.1-1.51.09-2.27a7.82,7.82,0,0,0-.38-.9c.56-.08,1.12,0,1.68-.08a10.07,10.07,0,0,0-.29,2,6.52,6.52,0,0,0,0,2.16,8.08,8.08,0,0,0,.43,1.16,1.34,1.34,0,0,1-1.47-.3A1.89,1.89,0,0,1,11,31a1.77,1.77,0,0,1-1.36-.91c0-.3.26-.54.31-.83A9.78,9.78,0,0,0,9.8,25.51Z"/><path class="cls-8" d="M47.37,13.51a.53.53,0,0,1,.68-.13c.15.1.13.3.16.46-.14.1-.27.27-.47.24s-.27-.15-.38-.25S47.37,13.59,47.37,13.51Z"/><path class="cls-9" d="M19.69,38.07h1.08c-.07.15-.14.3-.2.45-.05,1.19,0,2.39,0,3.59.07.16.14.31.22.47H19.2a1.57,1.57,0,0,1-1,.8c-.65.06-1.3,0-2,0v-.83H10.73a1.64,1.64,0,0,1-.49,1.07,1.71,1.71,0,0,1-1.84.25,1.9,1.9,0,0,1-.83-.76,6.77,6.77,0,0,1,.78,0,1.29,1.29,0,0,0,1.28.17,1.16,1.16,0,0,0,.46-.73,3.76,3.76,0,0,1-1.7-.19,1.33,1.33,0,0,1-.76-1.29,1.51,1.51,0,0,1,1-1.43,2.32,2.32,0,0,1,1.33.09,1.35,1.35,0,0,1,.75,1.09c0,.44,0,.89,0,1.33h.67c0-.61,0-1.22,0-1.83a2.59,2.59,0,0,0-.24-.71q.54,0,1.08,0a1.54,1.54,0,0,0-.24.73v1.82h1.19a1.58,1.58,0,0,1-.42-1.51,1.68,1.68,0,0,1,1-1,2,2,0,0,1,1.49.24,1.5,1.5,0,0,1,.13,2.28h.87a7.32,7.32,0,0,1,.09-1.69,1.48,1.48,0,0,1,.61-.72,2.27,2.27,0,0,1,1.21-.13,1.44,1.44,0,0,1,1.15,1.13,6,6,0,0,1,0,1.41H20V39a2.19,2.19,0,0,0-.15-.76Zm-10.88,2a1,1,0,0,0-.52,1,1.13,1.13,0,0,0,.6,1.12,7.85,7.85,0,0,0,1.19,0,4,4,0,0,0-.19-1.78A.84.84,0,0,0,8.81,40.05ZM14,40a1,1,0,0,0-.59,1,1.17,1.17,0,0,0,.53,1.1,1.28,1.28,0,0,0,.7,0,.82.82,0,0,0,.53-.69,1.48,1.48,0,0,0-.27-1.19A.83.83,0,0,0,14,40Zm3.24.18a1.15,1.15,0,0,0-.32.82c0,.68,0,1.35,0,2h1a1,1,0,0,0,.6-.4,2.43,2.43,0,0,0,.19-1.31,1.71,1.71,0,0,0-.17-1A.88.88,0,0,0,17.2,40.2Z"/><path class="cls-9" d="M35.5,38.07h1.06l0,.13a1.29,1.29,0,0,0-.16.57v3a1.52,1.52,0,0,0,.12.59,2.12,2.12,0,0,0,.11.21c-1.67,0-3.34,0-5,0-.25,0-.14.28-.19.43a1.41,1.41,0,0,1-1.44,1.07v-.66a.94.94,0,0,0,.86-1c0-.69,0-1.38,0-2.08a1.59,1.59,0,0,0-.22-.73h1.06a1.73,1.73,0,0,0-.25.89v1.65h1.26c-.26-.36-.57-.71-.8-1.09a1.36,1.36,0,0,1,.71-1.26A2.13,2.13,0,0,1,34,39.67a1.82,1.82,0,0,1,.93.94,4.36,4.36,0,0,1,0,.51c-.33.33-.61.71-.93,1.05h1.7V38.85A1.81,1.81,0,0,0,35.5,38.07Zm-3,3c.24.4.53.76.78,1.15.34-.37.64-.78,1-1.14a1,1,0,0,0-1.14-1A.89.89,0,0,0,32.54,41Z"/><path class="cls-9" d="M37.07,38.07h1.07l0,.12a2,2,0,0,0-.2,1v2.42a2,2,0,0,0,.26,1H37.05a1.57,1.57,0,0,0,.25-.81c0-.94,0-1.88,0-2.83A1.8,1.8,0,0,0,37.07,38.07Z"/><path class="cls-9" d="M57.33,38.07h1.15l-.11.09a1.64,1.64,0,0,0-.17.61c0,1,0,2.06,0,3.09a1.33,1.33,0,0,0,.25.71H57.32a1.47,1.47,0,0,0,.24-.64V38.77A1.25,1.25,0,0,0,57.33,38.07Z"/><path class="cls-9" d="M27.3,43.38c0-.19-.07-.49.2-.49s.38.18.4.39A.75.75,0,0,1,27.3,43.38Z"/><path class="cls-9" d="M9.7,46.32a5,5,0,0,0,1-.2c0,.59-.07,1.17,0,1.76a2.09,2.09,0,0,1,.77-.43,1.17,1.17,0,0,1,1.25.47,1.15,1.15,0,0,1-.33,1.44,5.84,5.84,0,0,1-.68.41,1.51,1.51,0,0,1-1.23-.08l-.31.19c0-1.13,0-2.27,0-3.4H9.7ZM11,47.86a.67.67,0,0,0-.37.74c0,.27-.11.67.18.83a1.07,1.07,0,0,0,1.09,0,1,1,0,0,0,.08-1.5A.94.94,0,0,0,11,47.86Z"/><path class="cls-9" d="M2,46.3h.23c.28.68.61,1.33.9,2a9.25,9.25,0,0,0,.68,1.33,5.48,5.48,0,0,0,.81,0,10.23,10.23,0,0,0,0-2.07l-.45,0,0-.14a5.16,5.16,0,0,0,1-.25l0,.5.17,0v.07c0,.15-.15.29-.16.46,0,.45,0,.91,0,1.36a3.78,3.78,0,0,0,.57.1v.15c-.53,0-1.06,0-1.59,0v-.09H4v.09H2.59s0-.1,0-.15a2.09,2.09,0,0,0,.5-.08c-.11-.32-.25-.63-.38-.93H1.17c-.13.3-.27.6-.38.91a2.47,2.47,0,0,0,.47.11.61.61,0,0,1,0,.14H.06s0-.12,0-.17H.32A5.34,5.34,0,0,0,.9,48.56C1.25,47.81,1.65,47.08,2,46.3Zm-.67,2.1h1.3c-.22-.47-.43-1-.64-1.43C1.71,47.44,1.5,47.92,1.28,48.4Z"/><path class="cls-9" d="M35.64,47.26a6.42,6.42,0,0,0,1-.24c0,.18,0,.35,0,.53a2.71,2.71,0,0,1,.6-.47,1,1,0,0,1,1.22.39,11,11,0,0,1,.12,2.07c.11.15.31.08.47.11,0,0,0,.11,0,.15H38a7.81,7.81,0,0,0,0-2,.75.75,0,0,0-1.38.35,1.6,1.6,0,0,0,0,.49,8.78,8.78,0,0,0,0,1l.42,0a.86.86,0,0,1,0,.16H35.62v-.16H36a7.51,7.51,0,0,0,0-2.17l-.44-.05Z"/><path class="cls-9" d="M39.07,47.6c.37-.1.74-.18,1.12-.25,0,.45-.09.89,0,1.34s0,.62.06.93c.16,0,.4,0,.47.17-.5,0-1,0-1.49,0l0-.15.44,0a13.24,13.24,0,0,0,0-1.89A2.61,2.61,0,0,1,39.07,47.6Z"/><path class="cls-10" d="M21.19,38.07h1.08c-.06.15-.13.3-.2.45,0,1.11,0,2.22,0,3.33a1.39,1.39,0,0,0,.25.73H21.19a1.37,1.37,0,0,0,.23-.73V38.77a1.29,1.29,0,0,0-.16-.58Z"/><path class="cls-11" d="M50.52,38.07c.38,0,.75,0,1.13,0l-.1.08-.18.44c0,1.19,0,2.38,0,3.57,1.16,0,2.32,0,3.48,0,0-.36,0-.71,0-1.07,0-.14,0-.29-.07-.44a1.07,1.07,0,0,0-.48-.6.86.86,0,0,0-1.14.38,1.42,1.42,0,0,0-.11.76,4.06,4.06,0,0,0,.26.51H52.17c.32-.48.15-1.13.52-1.58a1.52,1.52,0,0,1,1.3-.52,1.33,1.33,0,0,1,1.43,1.14c0,.47,0,1,0,1.42H56c0-1.11,0-2.22,0-3.33a1.33,1.33,0,0,0-.16-.65s0-.1-.06-.14H56.9a1.28,1.28,0,0,0-.11.2,1.72,1.72,0,0,0-.12.75c0,.94,0,1.88,0,2.82a1.66,1.66,0,0,0,.24.74h-6.4a1.79,1.79,0,0,0,.25-.89V38.94A1.78,1.78,0,0,0,50.52,38.07Z"/><path class="cls-11" d="M11.07,38.68l.28-.1.28.09v0c0,.11,0,.25-.09.34h-.46Z"/><path class="cls-11" d="M1.2,39.67A1.86,1.86,0,0,1,2.88,40c.61.55.35,1.45.41,2.18H6.37a3.83,3.83,0,0,0-.22-1.78.86.86,0,0,0-1.37-.12,1.23,1.23,0,0,0,0,1.45H3.71A1.78,1.78,0,0,0,4,40.86,1.33,1.33,0,0,1,5.1,39.63a2,2,0,0,1,1.22.18A1.22,1.22,0,0,1,7,40.94a3.27,3.27,0,0,0,.23,1.64H1.86A1.8,1.8,0,0,1,.51,42a1.68,1.68,0,0,1-.18-1.61A1.69,1.69,0,0,1,1.2,39.67Zm-.26.85a1.33,1.33,0,0,0,.49,1.59,5.06,5.06,0,0,0,1.23.07c-.06-.64.16-1.38-.29-1.92A.86.86,0,0,0,.94,40.52Z"/><path class="cls-11" d="M16.18,46.6a3.2,3.2,0,0,1,1.26-.19,2.31,2.31,0,0,1,1.27.5,1.72,1.72,0,0,1-.13,2.42,2.36,2.36,0,0,1-2.53.33A1.72,1.72,0,0,1,15.6,47,2.35,2.35,0,0,1,16.18,46.6Zm-.1.38a1.74,1.74,0,0,0,.4,2.49,1.5,1.5,0,0,0,1.68-.15,1.65,1.65,0,0,0,.38-.62,4.35,4.35,0,0,0,0-1l-.09-.27a1.5,1.5,0,0,0-.67-.67l-.26-.09A1.64,1.64,0,0,0,16.08,47Z"/><path class="cls-11" d="M20.81,47.28a1.18,1.18,0,0,1,1.88.64,1.69,1.69,0,0,1-2.24,1.69,1.32,1.32,0,0,0,0,.56c0,.27,0,.54,0,.81L21,51c0,.07-.08.2-.2.15a11.43,11.43,0,0,0-1.31,0s0-.12,0-.17l.43,0,.07-.21c0-1,0-2.08,0-3.11l-.07-.22-.46,0,0-.17a7.32,7.32,0,0,0,.79-.15h.1c0,.16,0,.33,0,.49l.27,0c-.3.33-.1.81-.19,1.21s.23.45.46.53a1,1,0,0,0,.88-.12,1.09,1.09,0,0,0-.07-1.77A2.64,2.64,0,0,0,20.81,47.28Z"/><path class="cls-11" d="M25.12,47.11a1.12,1.12,0,0,1,.75,1.26c-.71.06-1.43,0-2.15,0v.38a1.07,1.07,0,0,0,.52.64,1.47,1.47,0,0,0,1.42-.09h.15l-.13.22a2.22,2.22,0,0,1-1.6.26,1.26,1.26,0,0,1-.84-.62,1.58,1.58,0,0,1,.08-1.52,1.93,1.93,0,0,1,.84-.55l.22,0,0,0-.23.14a1,1,0,0,0-.42.88c.54,0,1.07,0,1.61,0,0-.33-.08-.72-.41-.89l-.19-.13A2.71,2.71,0,0,1,25.12,47.11Z"/><path class="cls-11" d="M47.45,47.31a5.53,5.53,0,0,0,.9-.28c0,.21,0,.43,0,.64.18-.23.31-.55.63-.61.13-.06.25,0,.37.07a5.93,5.93,0,0,0-.1.72.76.76,0,0,0-.52-.33.76.76,0,0,0-.38.66,5,5,0,0,0,.08,1.44,3,3,0,0,1-.6,0,2.54,2.54,0,0,0,.09-.72,10.27,10.27,0,0,0-.06-1.47l-.39,0S47.46,47.34,47.45,47.31Z"/><path class="cls-12" d="M1.1,38.68l.28-.11.26.2c.07.17-.08.29-.18.41-.13,0-.26-.07-.38-.12L1,38.86Z"/><path class="cls-12" d="M25.45,38.73c.16-.11.4-.18.54,0s0,.22.06.33a.5.5,0,0,1-.58,0Z"/><path class="cls-13" d="M1.74,38.75,2,38.57a1.69,1.69,0,0,1,.29.17c0,.1,0,.2,0,.31L2,39.17,1.76,39A2.11,2.11,0,0,1,1.74,38.75Z"/><path class="cls-14" d="M11.72,38.75l.2-.16c-.06.13-.19.29-.05.41s.55,0,.42-.24l-.11-.18c.11.07.28.19.22.35-.08.31-.58.3-.7,0l-.11.16a.67.67,0,0,1-.52-.06h.46c.09-.09.06-.23.09-.34Z"/><path class="cls-15" d="M11.92,38.59h.26l.11.18c.13.27-.23.44-.42.24S11.86,38.72,11.92,38.59Z"/><path class="cls-15" d="M40.61,39a.41.41,0,0,1,.29-.48c.15.07.41.18.31.39S40.8,39.17,40.61,39Z"/><path class="cls-15" d="M41.38,38.67l.29-.09.29.22-.09.28c-.16.07-.37.13-.49,0S41.35,38.79,41.38,38.67Z"/><path class="cls-15" d="M27.45,39.66l.12-.07a6.29,6.29,0,0,0,1,0,1.56,1.56,0,0,0-.24.81c0,.58,0,1.17,0,1.75.25,0,.49,0,.74,0,0-.57,0-1.15,0-1.72a1.52,1.52,0,0,0-.25-.82,7.48,7.48,0,0,0,.82,0l.26,0c-.08.15-.15.3-.22.46,0,.56,0,1.13,0,1.7a1.63,1.63,0,0,0,.25.77c-1.37,0-2.75,0-4.12,0a2.12,2.12,0,0,1-1.21-.27,1.5,1.5,0,0,1,0-2.44l.21-.14a2.65,2.65,0,0,1,1.34-.06,1.43,1.43,0,0,1,.87.94,11.76,11.76,0,0,1,0,1.57h.71c0-.64,0-1.27,0-1.91A1.86,1.86,0,0,0,27.45,39.66Zm-2.73.74a1.3,1.3,0,0,0,.44,1.72,5.55,5.55,0,0,0,1.22.06,3.69,3.69,0,0,0-.22-1.81A.85.85,0,0,0,24.72,40.4Z"/><path class="cls-12" d="M14,38.79c.11-.22.36-.19.55-.13l0,.3-.19.2C14.17,39.2,13.92,39,14,38.79Z"/><path class="cls-16" d="M24.84,38.65a.45.45,0,0,1,.56.18l-.11.24a.37.37,0,0,1-.58-.19Z"/><path class="cls-17" d="M14.54,38.66l.13.23a.61.61,0,0,1-.28.27l.19-.2Z"/><path class="cls-18" d="M44.05,39.73a1.87,1.87,0,0,1,1.72.19A1.64,1.64,0,0,1,46.35,41c-.3.39-.64.75-1,1.13H47a15.51,15.51,0,0,1,0-1.67,1.59,1.59,0,0,1,.93-.85,4,4,0,0,1,1,0,1.48,1.48,0,0,1,.87.62,1.53,1.53,0,0,1-.15,1.85,2.26,2.26,0,0,1-1.44.46H41.41a1.62,1.62,0,0,1-1.52-.87c0-.09,0-.18-.08-.27A1.71,1.71,0,0,1,40,40.33a1.65,1.65,0,0,1,.77-.66,2.13,2.13,0,0,1,1.51.17,1.28,1.28,0,0,1,.59,1.1c0,.41,0,.82,0,1.24H44c-.3-.34-.54-.72-.83-1.06A1.51,1.51,0,0,1,44.05,39.73Zm-3.52.79A1.29,1.29,0,0,0,41,42.13a5.05,5.05,0,0,0,1.23,0,7.26,7.26,0,0,0-.06-1.32,1,1,0,0,0-.56-.79A.82.82,0,0,0,40.53,40.52Zm3.35.15c0,.12,0,.24,0,.35.28.38.53.77.8,1.16.33-.38.64-.77,1-1.15a.94.94,0,0,0-1.14-1A.9.9,0,0,0,43.88,40.67Zm3.74.09c0,.47,0,.94,0,1.42.5,0,1.14.16,1.51-.28a1.7,1.7,0,0,0,.24-1.32A.87.87,0,0,0,48.24,40C47.9,40.12,47.74,40.46,47.62,40.76Z"/><path class="cls-18" d="M50.05,47.18a2.07,2.07,0,0,1,1.8-.06c0,.22,0,.45,0,.67h-.19c0-.71-1.08-.92-1.41-.35a.4.4,0,0,0,.19.55,8.9,8.9,0,0,1,1.47.43.8.8,0,0,1-.21,1.2,2.64,2.64,0,0,1-2,.12,8.08,8.08,0,0,1,.11-.86l.14,0a1.09,1.09,0,0,0,.19.63,1.35,1.35,0,0,0,1.19,0c.16-.07.22-.25.31-.39s-.08-.23-.11-.34l-.17-.11a5.08,5.08,0,0,0-.94-.2,1.23,1.23,0,0,1-.55-.3A.73.73,0,0,1,50.05,47.18Z"/><path class="cls-19" d="M53.7,43c0-.33.39-.33.6-.19l0,.38C54.07,43.25,53.69,43.31,53.7,43Z"/><path class="cls-20" d="M27.91,43.09a.55.55,0,0,1,.46-.21l.18.13c0,.13,0,.29-.1.37a1.7,1.7,0,0,1-.39,0Z"/><path class="cls-21" d="M29.05,43l.2-.15c.13,0,.28,0,.38.12a1.63,1.63,0,0,1,0,.38,1.36,1.36,0,0,1-.45,0C29,43.31,29.06,43.16,29.05,43Z"/><path class="cls-22" d="M0,44.89H58.52c0,.21,0,.42,0,.64H0Z"/><path class="cls-23" d="M39.66,46.2a3,3,0,0,1,.42-.05,1.92,1.92,0,0,1,.13.17A5.41,5.41,0,0,0,39.66,46.2Z"/><path class="cls-24" d="M52.68,46.33a.67.67,0,0,1,.55-.1l.12.2c0,.1-.07.2-.11.3h-.46C52.74,46.6,52.71,46.46,52.68,46.33Z"/><path class="cls-25" d="M31.69,46.31h1.46v.17h-.42c0,.34,0,.68,0,1,0,.49,0,1,0,1.46a.69.69,0,0,0,.6.54A1.2,1.2,0,0,0,34.78,49c0-.79,0-1.58,0-2.36-.11-.16-.32-.1-.48-.12v-.16h1.24v.16c-.17,0-.46,0-.48.2,0,.69,0,1.39,0,2.08a1.06,1.06,0,0,1-.57,1,2.29,2.29,0,0,1-1.63.07.86.86,0,0,1-.61-.75,23.78,23.78,0,0,0-.1-2.53l-.44,0Z"/><path class="cls-26" d="M39.66,46.2a5.41,5.41,0,0,1,.55.12c0,.14,0,.31-.13.39a2,2,0,0,1-.42,0l-.11-.22C39.58,46.41,39.62,46.3,39.66,46.2Z"/><path class="cls-27" d="M54.68,46.56c.17-.07.33-.15.5-.21,0,.35-.06.7-.07,1l.78,0a2.28,2.28,0,0,0,0,.26h-.76c0,.48,0,1,0,1.45a.94.94,0,0,0,.11.36,4.06,4.06,0,0,0,.7,0,.74.74,0,0,1-1.21.08c0-.1-.05-.2-.07-.3s0-.2,0-.26a9.41,9.41,0,0,0,0-1.3c-.17,0-.35-.05-.52-.09l.52-.25Z"/><path class="cls-27" d="M45.31,47.07l.51-.08a1.11,1.11,0,0,1,1.06,1.32,10.86,10.86,0,0,1-2,.09,1.07,1.07,0,0,0,.67,1.09,1.5,1.5,0,0,0,1.23-.2c0,.31-.35.42-.61.51a2.77,2.77,0,0,1-.7.07,1.49,1.49,0,0,1-.84-.44,1.66,1.66,0,0,1-.2-1.6A1.5,1.5,0,0,1,45.31,47.07Zm-.21.39a1.06,1.06,0,0,0-.18.74h1.39a1.18,1.18,0,0,0-.16-.78A.69.69,0,0,0,45.1,47.46Z"/><path class="cls-27" d="M26.36,47.32a5.13,5.13,0,0,0,.94-.22c0,.16.05.33.07.5.23-.19.43-.45.73-.5a1,1,0,0,1,1.1.46,3.59,3.59,0,0,1,.05.46c.06.5,0,1,0,1.51l0,.11-.5.11c0-.58,0-1.17,0-1.75a.62.62,0,0,0-.73-.54.92.92,0,0,0-.61.32,7.55,7.55,0,0,0-.07,1.58l.09.26.4,0v.15H26.37l0-.16h.43a11.77,11.77,0,0,0,0-2.14h-.43Z"/><path class="cls-27" d="M55.93,47.12a10.9,10.9,0,0,0,1.4,0v.15l-.42,0A7.11,7.11,0,0,0,57.64,49l.44-.85a4.27,4.27,0,0,0,.31-.77c-.16,0-.38,0-.44-.2.4,0,.8,0,1.21,0-.16.14-.4.2-.49.41-.49.8-.91,1.64-1.35,2.46a1.33,1.33,0,0,1-.54.63,1.36,1.36,0,0,1-.75,0l.12-.42.26.11c.54.09.73-.51.94-.88-.32-.68-.63-1.36-1-2-.06-.17-.24-.2-.4-.24Z"/><path class="cls-27" d="M52.26,47.58a7.46,7.46,0,0,0,1-.24c0,.7,0,1.4,0,2.11l.08.19.4,0s0,.13,0,.17a9.39,9.39,0,0,0-1.5,0v-.15c.16,0,.39,0,.47-.13,0-.6,0-1.2,0-1.8l-.42,0Z"/><path class="cls-28" d="M20.25,47.11l.21-.09c0,.18,0,.36,0,.54l.34-.28h0a2.64,2.64,0,0,1,.88.21,1.08,1.08,0,0,0-1.08.15l-.27,0c0-.16,0-.33,0-.49Z"/><path class="cls-28" d="M29.28,49.53l.12.1h.33v.17a7.79,7.79,0,0,1-1.08,0l.09,0,.5-.11Z"/><path class="cls-29" d="M24.17,47.11a1.62,1.62,0,0,1,.95,0,2.71,2.71,0,0,0-.41.09l.19.13h-.78l.23-.14,0,0Z"/><path class="cls-30" d="M40.82,47.05c.49,0,1,0,1.46,0,0,0,0,.13,0,.17l-.41,0a1.68,1.68,0,0,0,.11.54c.13.29.25.59.37.89s.17.4.24.6a10,10,0,0,0,.79-2l-.42,0V47A5.67,5.67,0,0,0,44,47s0,.13,0,.18l-.22,0a20.58,20.58,0,0,0-1.23,2.6h-.31L42,49.16c-.29-.63-.53-1.28-.84-1.9C41.05,47.21,40.86,47.23,40.82,47.05Z"/><path class="cls-30" d="M6.74,47.41A2.24,2.24,0,0,1,7.85,47a1.51,1.51,0,0,1,1,.19,1.34,1.34,0,0,1,.34.44c0,.6-.06,1.21,0,1.8l.16.17-.69,0,0-.38-.2-.07,0-.07A.86.86,0,0,1,8.56,49c0-.25,0-.49,0-.74a6.11,6.11,0,0,0-1.11.24.54.54,0,0,0-.25.81c.17.19.44.15.66.16l.25.06a1.19,1.19,0,0,1-1.4.12.78.78,0,0,1,.17-1.23l.31-.12c.41-.08.83-.16,1.25-.2.25,0,.07-.32,0-.47a1.08,1.08,0,0,0-1.27-.23,2.22,2.22,0,0,0-.23.39H6.78C6.77,47.67,6.75,47.54,6.74,47.41Z"/><path class="cls-31" d="M5.29,47.66a.79.79,0,0,1,.94-.51l0,.76c-.16-.08-.29-.21-.45-.28a1.22,1.22,0,0,0-.45.1Z"/><path class="cls-32" d="M7.85,49.49a3.33,3.33,0,0,0,.58-.33l0,.07.2.07,0,.38.69,0h.32a.86.86,0,0,1,0,.16,10.09,10.09,0,0,0-1.1,0c0-.12,0-.24,0-.35a.69.69,0,0,0-.11-.13c-.11.08-.21.21-.35.23Z"/><path class="cls-33" d="M47.46,49.63l.38,0a3,3,0,0,0,.6,0h.06l.39,0v.16H47.45A1,1,0,0,1,47.46,49.63Z"/><path class="cls-34" d="M0,51.49H58.52v.64H0Z"/></g></g></svg>